ISO-10303-21;
HEADER;
/* Generated by software containing ST-Developer
 * from STEP Tools, Inc. (www.steptools.com) 
 */
/* OPTION: using custom renumber hook */

FILE_DESCRIPTION(
/* description */ ('STEP AP242 Edition 2',
'CAx-IF Rec.Pracs.---Representation and Presentation of Product Manufa
cturing Information (PMI)---4.0---2014-10-13',
'CAx-IF Rec.Pracs.---3D Tessellated Geometry---0.4---2014-09-14','2;1',
'CAx-IF Rec.Pracs.---User Defined Attributes---1.5---2016-08-15'),
/* implementation_level */ '2;1');

FILE_NAME(
/* name */ 'Part Studio 1 - Cover',
/* time_stamp */ '2026-07-26T11:39:52Z',
/* author */ (''),
/* organization */ (''),
/* preprocessor_version */ 'ST-DEVELOPER v20',
/* originating_system */ 'ONSHAPE BY PTC INC, 1.218',
/* authorisation */ '  ');

FILE_SCHEMA (('AP242_MANAGED_MODEL_BASED_3D_ENGINEERING_MIM_LF { 1 0 10303 442 3 1 4 }'));
ENDSEC;

DATA;
#10=SHAPE_REPRESENTATION_RELATIONSHIP('','',#1225,#11);
#11=ADVANCED_BREP_SHAPE_REPRESENTATION('',(#1223),#1982);
#12=CYLINDRICAL_SURFACE('',#1276,0.001);
#13=CYLINDRICAL_SURFACE('',#1278,0.001);
#14=CYLINDRICAL_SURFACE('',#1280,0.001);
#15=CYLINDRICAL_SURFACE('',#1282,0.001);
#16=CYLINDRICAL_SURFACE('',#1299,0.00175);
#17=CYLINDRICAL_SURFACE('',#1300,0.00175);
#18=CYLINDRICAL_SURFACE('',#1301,0.005);
#19=CYLINDRICAL_SURFACE('',#1302,0.005);
#20=CYLINDRICAL_SURFACE('',#1303,0.005);
#21=CYLINDRICAL_SURFACE('',#1304,0.005);
#22=CYLINDRICAL_SURFACE('',#1305,0.002);
#23=CYLINDRICAL_SURFACE('',#1310,0.002);
#24=CYLINDRICAL_SURFACE('',#1311,0.002);
#25=CYLINDRICAL_SURFACE('',#1312,0.002);
#26=CIRCLE('',#1230,0.001);
#27=CIRCLE('',#1231,0.001);
#28=CIRCLE('',#1232,0.001);
#29=CIRCLE('',#1233,0.001);
#30=CIRCLE('',#1235,0.001);
#31=CIRCLE('',#1236,0.001);
#32=CIRCLE('',#1237,0.001);
#33=CIRCLE('',#1238,0.001);
#34=CIRCLE('',#1241,0.005);
#35=CIRCLE('',#1242,0.005);
#36=CIRCLE('',#1245,0.002);
#37=CIRCLE('',#1246,0.002);
#38=CIRCLE('',#1247,0.005);
#39=CIRCLE('',#1248,0.005);
#40=CIRCLE('',#1249,0.002);
#41=CIRCLE('',#1250,0.002);
#42=CIRCLE('',#1251,0.00175);
#43=CIRCLE('',#1252,0.00175);
#44=CIRCLE('',#1260,0.005);
#45=CIRCLE('',#1261,0.005);
#46=CIRCLE('',#1263,0.005);
#47=CIRCLE('',#1264,0.005);
#48=CIRCLE('',#1288,0.00175);
#49=CIRCLE('',#1289,0.002);
#50=CIRCLE('',#1290,0.002);
#51=CIRCLE('',#1296,0.00175);
#52=CIRCLE('',#1297,0.002);
#53=CIRCLE('',#1298,0.002);
#54=ORIENTED_EDGE('',*,*,#400,.F.);
#55=ORIENTED_EDGE('',*,*,#401,.F.);
#56=ORIENTED_EDGE('',*,*,#402,.T.);
#57=ORIENTED_EDGE('',*,*,#403,.F.);
#58=ORIENTED_EDGE('',*,*,#404,.F.);
#59=ORIENTED_EDGE('',*,*,#405,.T.);
#60=ORIENTED_EDGE('',*,*,#406,.T.);
#61=ORIENTED_EDGE('',*,*,#407,.T.);
#62=ORIENTED_EDGE('',*,*,#408,.T.);
#63=ORIENTED_EDGE('',*,*,#409,.F.);
#64=ORIENTED_EDGE('',*,*,#410,.F.);
#65=ORIENTED_EDGE('',*,*,#411,.F.);
#66=ORIENTED_EDGE('',*,*,#412,.F.);
#67=ORIENTED_EDGE('',*,*,#413,.T.);
#68=ORIENTED_EDGE('',*,*,#414,.T.);
#69=ORIENTED_EDGE('',*,*,#415,.F.);
#70=ORIENTED_EDGE('',*,*,#416,.F.);
#71=ORIENTED_EDGE('',*,*,#417,.T.);
#72=ORIENTED_EDGE('',*,*,#418,.T.);
#73=ORIENTED_EDGE('',*,*,#419,.T.);
#74=ORIENTED_EDGE('',*,*,#420,.F.);
#75=ORIENTED_EDGE('',*,*,#421,.T.);
#76=ORIENTED_EDGE('',*,*,#422,.F.);
#77=ORIENTED_EDGE('',*,*,#423,.T.);
#78=ORIENTED_EDGE('',*,*,#424,.F.);
#79=ORIENTED_EDGE('',*,*,#425,.F.);
#80=ORIENTED_EDGE('',*,*,#426,.F.);
#81=ORIENTED_EDGE('',*,*,#427,.F.);
#82=ORIENTED_EDGE('',*,*,#428,.F.);
#83=ORIENTED_EDGE('',*,*,#429,.T.);
#84=ORIENTED_EDGE('',*,*,#430,.F.);
#85=ORIENTED_EDGE('',*,*,#431,.F.);
#86=ORIENTED_EDGE('',*,*,#432,.T.);
#87=ORIENTED_EDGE('',*,*,#433,.T.);
#88=ORIENTED_EDGE('',*,*,#434,.F.);
#89=ORIENTED_EDGE('',*,*,#435,.T.);
#90=ORIENTED_EDGE('',*,*,#436,.F.);
#91=ORIENTED_EDGE('',*,*,#437,.T.);
#92=ORIENTED_EDGE('',*,*,#438,.F.);
#93=ORIENTED_EDGE('',*,*,#439,.F.);
#94=ORIENTED_EDGE('',*,*,#440,.F.);
#95=ORIENTED_EDGE('',*,*,#441,.F.);
#96=ORIENTED_EDGE('',*,*,#442,.F.);
#97=ORIENTED_EDGE('',*,*,#443,.T.);
#98=ORIENTED_EDGE('',*,*,#444,.F.);
#99=ORIENTED_EDGE('',*,*,#445,.T.);
#100=ORIENTED_EDGE('',*,*,#446,.T.);
#101=ORIENTED_EDGE('',*,*,#447,.T.);
#102=ORIENTED_EDGE('',*,*,#448,.T.);
#103=ORIENTED_EDGE('',*,*,#449,.T.);
#104=ORIENTED_EDGE('',*,*,#450,.F.);
#105=ORIENTED_EDGE('',*,*,#451,.F.);
#106=ORIENTED_EDGE('',*,*,#452,.F.);
#107=ORIENTED_EDGE('',*,*,#453,.T.);
#108=ORIENTED_EDGE('',*,*,#454,.F.);
#109=ORIENTED_EDGE('',*,*,#455,.T.);
#110=ORIENTED_EDGE('',*,*,#456,.T.);
#111=ORIENTED_EDGE('',*,*,#444,.T.);
#112=ORIENTED_EDGE('',*,*,#457,.T.);
#113=ORIENTED_EDGE('',*,*,#458,.F.);
#114=ORIENTED_EDGE('',*,*,#459,.F.);
#115=ORIENTED_EDGE('',*,*,#412,.T.);
#116=ORIENTED_EDGE('',*,*,#460,.T.);
#117=ORIENTED_EDGE('',*,*,#461,.F.);
#118=ORIENTED_EDGE('',*,*,#462,.F.);
#119=ORIENTED_EDGE('',*,*,#410,.T.);
#120=ORIENTED_EDGE('',*,*,#463,.F.);
#121=ORIENTED_EDGE('',*,*,#464,.F.);
#122=ORIENTED_EDGE('',*,*,#465,.T.);
#123=ORIENTED_EDGE('',*,*,#466,.T.);
#124=ORIENTED_EDGE('',*,*,#467,.F.);
#125=ORIENTED_EDGE('',*,*,#468,.T.);
#126=ORIENTED_EDGE('',*,*,#469,.F.);
#127=ORIENTED_EDGE('',*,*,#470,.F.);
#128=ORIENTED_EDGE('',*,*,#471,.F.);
#129=ORIENTED_EDGE('',*,*,#472,.F.);
#130=ORIENTED_EDGE('',*,*,#473,.F.);
#131=ORIENTED_EDGE('',*,*,#474,.F.);
#132=ORIENTED_EDGE('',*,*,#458,.T.);
#133=ORIENTED_EDGE('',*,*,#475,.T.);
#134=ORIENTED_EDGE('',*,*,#442,.T.);
#135=ORIENTED_EDGE('',*,*,#476,.T.);
#136=ORIENTED_EDGE('',*,*,#477,.T.);
#137=ORIENTED_EDGE('',*,*,#418,.F.);
#138=ORIENTED_EDGE('',*,*,#478,.T.);
#139=ORIENTED_EDGE('',*,*,#479,.F.);
#140=ORIENTED_EDGE('',*,*,#480,.T.);
#141=ORIENTED_EDGE('',*,*,#481,.F.);
#142=ORIENTED_EDGE('',*,*,#451,.T.);
#143=ORIENTED_EDGE('',*,*,#482,.T.);
#144=ORIENTED_EDGE('',*,*,#483,.T.);
#145=ORIENTED_EDGE('',*,*,#404,.T.);
#146=ORIENTED_EDGE('',*,*,#403,.T.);
#147=ORIENTED_EDGE('',*,*,#484,.F.);
#148=ORIENTED_EDGE('',*,*,#485,.T.);
#149=ORIENTED_EDGE('',*,*,#486,.T.);
#150=ORIENTED_EDGE('',*,*,#487,.T.);
#151=ORIENTED_EDGE('',*,*,#488,.F.);
#152=ORIENTED_EDGE('',*,*,#489,.T.);
#153=ORIENTED_EDGE('',*,*,#430,.T.);
#154=ORIENTED_EDGE('',*,*,#490,.F.);
#155=ORIENTED_EDGE('',*,*,#491,.F.);
#156=ORIENTED_EDGE('',*,*,#415,.T.);
#157=ORIENTED_EDGE('',*,*,#492,.F.);
#158=ORIENTED_EDGE('',*,*,#493,.F.);
#159=ORIENTED_EDGE('',*,*,#494,.T.);
#160=ORIENTED_EDGE('',*,*,#495,.T.);
#161=ORIENTED_EDGE('',*,*,#496,.F.);
#162=ORIENTED_EDGE('',*,*,#406,.F.);
#163=ORIENTED_EDGE('',*,*,#497,.T.);
#164=ORIENTED_EDGE('',*,*,#498,.F.);
#165=ORIENTED_EDGE('',*,*,#499,.T.);
#166=ORIENTED_EDGE('',*,*,#500,.T.);
#167=ORIENTED_EDGE('',*,*,#501,.F.);
#168=ORIENTED_EDGE('',*,*,#502,.F.);
#169=ORIENTED_EDGE('',*,*,#503,.T.);
#170=ORIENTED_EDGE('',*,*,#504,.T.);
#171=ORIENTED_EDGE('',*,*,#505,.T.);
#172=ORIENTED_EDGE('',*,*,#473,.T.);
#173=ORIENTED_EDGE('',*,*,#472,.T.);
#174=ORIENTED_EDGE('',*,*,#506,.T.);
#175=ORIENTED_EDGE('',*,*,#494,.F.);
#176=ORIENTED_EDGE('',*,*,#504,.F.);
#177=ORIENTED_EDGE('',*,*,#450,.T.);
#178=ORIENTED_EDGE('',*,*,#507,.T.);
#179=ORIENTED_EDGE('',*,*,#508,.F.);
#180=ORIENTED_EDGE('',*,*,#498,.T.);
#181=ORIENTED_EDGE('',*,*,#509,.T.);
#182=ORIENTED_EDGE('',*,*,#482,.F.);
#183=ORIENTED_EDGE('',*,*,#510,.F.);
#184=ORIENTED_EDGE('',*,*,#480,.F.);
#185=ORIENTED_EDGE('',*,*,#511,.F.);
#186=ORIENTED_EDGE('',*,*,#453,.F.);
#187=ORIENTED_EDGE('',*,*,#479,.T.);
#188=ORIENTED_EDGE('',*,*,#512,.T.);
#189=ORIENTED_EDGE('',*,*,#513,.F.);
#190=ORIENTED_EDGE('',*,*,#454,.T.);
#191=ORIENTED_EDGE('',*,*,#511,.T.);
#192=ORIENTED_EDGE('',*,*,#514,.T.);
#193=ORIENTED_EDGE('',*,*,#515,.T.);
#194=ORIENTED_EDGE('',*,*,#476,.F.);
#195=ORIENTED_EDGE('',*,*,#445,.F.);
#196=ORIENTED_EDGE('',*,*,#456,.F.);
#197=ORIENTED_EDGE('',*,*,#420,.T.);
#198=ORIENTED_EDGE('',*,*,#516,.T.);
#199=ORIENTED_EDGE('',*,*,#514,.F.);
#200=ORIENTED_EDGE('',*,*,#455,.F.);
#201=ORIENTED_EDGE('',*,*,#513,.T.);
#202=ORIENTED_EDGE('',*,*,#517,.T.);
#203=ORIENTED_EDGE('',*,*,#518,.F.);
#204=ORIENTED_EDGE('',*,*,#519,.T.);
#205=ORIENTED_EDGE('',*,*,#520,.F.);
#206=ORIENTED_EDGE('',*,*,#502,.T.);
#207=ORIENTED_EDGE('',*,*,#521,.T.);
#208=ORIENTED_EDGE('',*,*,#522,.T.);
#209=ORIENTED_EDGE('',*,*,#408,.F.);
#210=ORIENTED_EDGE('',*,*,#499,.F.);
#211=ORIENTED_EDGE('',*,*,#508,.T.);
#212=ORIENTED_EDGE('',*,*,#523,.T.);
#213=ORIENTED_EDGE('',*,*,#448,.F.);
#214=ORIENTED_EDGE('',*,*,#524,.T.);
#215=ORIENTED_EDGE('',*,*,#518,.T.);
#216=ORIENTED_EDGE('',*,*,#525,.T.);
#217=ORIENTED_EDGE('',*,*,#471,.T.);
#218=ORIENTED_EDGE('',*,*,#470,.T.);
#219=ORIENTED_EDGE('',*,*,#526,.F.);
#220=ORIENTED_EDGE('',*,*,#527,.T.);
#221=ORIENTED_EDGE('',*,*,#528,.T.);
#222=ORIENTED_EDGE('',*,*,#529,.T.);
#223=ORIENTED_EDGE('',*,*,#464,.T.);
#224=ORIENTED_EDGE('',*,*,#530,.T.);
#225=ORIENTED_EDGE('',*,*,#521,.F.);
#226=ORIENTED_EDGE('',*,*,#531,.F.);
#227=ORIENTED_EDGE('',*,*,#495,.F.);
#228=ORIENTED_EDGE('',*,*,#506,.F.);
#229=ORIENTED_EDGE('',*,*,#522,.F.);
#230=ORIENTED_EDGE('',*,*,#530,.F.);
#231=ORIENTED_EDGE('',*,*,#463,.T.);
#232=ORIENTED_EDGE('',*,*,#409,.T.);
#233=ORIENTED_EDGE('',*,*,#405,.F.);
#234=ORIENTED_EDGE('',*,*,#483,.F.);
#235=ORIENTED_EDGE('',*,*,#509,.F.);
#236=ORIENTED_EDGE('',*,*,#497,.F.);
#237=ORIENTED_EDGE('',*,*,#520,.T.);
#238=ORIENTED_EDGE('',*,*,#532,.T.);
#239=ORIENTED_EDGE('',*,*,#446,.F.);
#240=ORIENTED_EDGE('',*,*,#474,.T.);
#241=ORIENTED_EDGE('',*,*,#505,.F.);
#242=ORIENTED_EDGE('',*,*,#503,.F.);
#243=ORIENTED_EDGE('',*,*,#501,.T.);
#244=ORIENTED_EDGE('',*,*,#500,.F.);
#245=ORIENTED_EDGE('',*,*,#407,.F.);
#246=ORIENTED_EDGE('',*,*,#496,.T.);
#247=ORIENTED_EDGE('',*,*,#531,.T.);
#248=ORIENTED_EDGE('',*,*,#533,.T.);
#249=ORIENTED_EDGE('',*,*,#432,.F.);
#250=ORIENTED_EDGE('',*,*,#534,.F.);
#251=ORIENTED_EDGE('',*,*,#460,.F.);
#252=ORIENTED_EDGE('',*,*,#417,.F.);
#253=ORIENTED_EDGE('',*,*,#535,.T.);
#254=ORIENTED_EDGE('',*,*,#536,.F.);
#255=ORIENTED_EDGE('',*,*,#537,.F.);
#256=ORIENTED_EDGE('',*,*,#461,.T.);
#257=ORIENTED_EDGE('',*,*,#534,.T.);
#258=ORIENTED_EDGE('',*,*,#431,.T.);
#259=ORIENTED_EDGE('',*,*,#489,.F.);
#260=ORIENTED_EDGE('',*,*,#533,.F.);
#261=ORIENTED_EDGE('',*,*,#538,.T.);
#262=ORIENTED_EDGE('',*,*,#490,.T.);
#263=ORIENTED_EDGE('',*,*,#433,.F.);
#264=ORIENTED_EDGE('',*,*,#535,.F.);
#265=ORIENTED_EDGE('',*,*,#416,.T.);
#266=ORIENTED_EDGE('',*,*,#491,.T.);
#267=ORIENTED_EDGE('',*,*,#538,.F.);
#268=ORIENTED_EDGE('',*,*,#539,.T.);
#269=ORIENTED_EDGE('',*,*,#423,.F.);
#270=ORIENTED_EDGE('',*,*,#540,.F.);
#271=ORIENTED_EDGE('',*,*,#435,.F.);
#272=ORIENTED_EDGE('',*,*,#436,.T.);
#273=ORIENTED_EDGE('',*,*,#540,.T.);
#274=ORIENTED_EDGE('',*,*,#422,.T.);
#275=ORIENTED_EDGE('',*,*,#541,.F.);
#276=ORIENTED_EDGE('',*,*,#541,.T.);
#277=ORIENTED_EDGE('',*,*,#429,.F.);
#278=ORIENTED_EDGE('',*,*,#542,.F.);
#279=ORIENTED_EDGE('',*,*,#437,.F.);
#280=ORIENTED_EDGE('',*,*,#438,.T.);
#281=ORIENTED_EDGE('',*,*,#542,.T.);
#282=ORIENTED_EDGE('',*,*,#428,.T.);
#283=ORIENTED_EDGE('',*,*,#543,.F.);
#284=ORIENTED_EDGE('',*,*,#439,.T.);
#285=ORIENTED_EDGE('',*,*,#543,.T.);
#286=ORIENTED_EDGE('',*,*,#427,.T.);
#287=ORIENTED_EDGE('',*,*,#544,.F.);
#288=ORIENTED_EDGE('',*,*,#440,.T.);
#289=ORIENTED_EDGE('',*,*,#544,.T.);
#290=ORIENTED_EDGE('',*,*,#426,.T.);
#291=ORIENTED_EDGE('',*,*,#545,.F.);
#292=ORIENTED_EDGE('',*,*,#441,.T.);
#293=ORIENTED_EDGE('',*,*,#545,.T.);
#294=ORIENTED_EDGE('',*,*,#425,.T.);
#295=ORIENTED_EDGE('',*,*,#546,.F.);
#296=ORIENTED_EDGE('',*,*,#434,.T.);
#297=ORIENTED_EDGE('',*,*,#546,.T.);
#298=ORIENTED_EDGE('',*,*,#424,.T.);
#299=ORIENTED_EDGE('',*,*,#539,.F.);
#300=ORIENTED_EDGE('',*,*,#457,.F.);
#301=ORIENTED_EDGE('',*,*,#443,.F.);
#302=ORIENTED_EDGE('',*,*,#475,.F.);
#303=ORIENTED_EDGE('',*,*,#469,.T.);
#304=ORIENTED_EDGE('',*,*,#547,.T.);
#305=ORIENTED_EDGE('',*,*,#548,.F.);
#306=ORIENTED_EDGE('',*,*,#549,.F.);
#307=ORIENTED_EDGE('',*,*,#550,.T.);
#308=ORIENTED_EDGE('',*,*,#551,.T.);
#309=ORIENTED_EDGE('',*,*,#465,.F.);
#310=ORIENTED_EDGE('',*,*,#414,.F.);
#311=ORIENTED_EDGE('',*,*,#467,.T.);
#312=ORIENTED_EDGE('',*,*,#552,.T.);
#313=ORIENTED_EDGE('',*,*,#553,.F.);
#314=ORIENTED_EDGE('',*,*,#554,.T.);
#315=ORIENTED_EDGE('',*,*,#555,.T.);
#316=ORIENTED_EDGE('',*,*,#553,.T.);
#317=ORIENTED_EDGE('',*,*,#556,.T.);
#318=ORIENTED_EDGE('',*,*,#550,.F.);
#319=ORIENTED_EDGE('',*,*,#413,.F.);
#320=ORIENTED_EDGE('',*,*,#459,.T.);
#321=ORIENTED_EDGE('',*,*,#557,.T.);
#322=ORIENTED_EDGE('',*,*,#548,.T.);
#323=ORIENTED_EDGE('',*,*,#558,.T.);
#324=ORIENTED_EDGE('',*,*,#481,.T.);
#325=ORIENTED_EDGE('',*,*,#510,.T.);
#326=ORIENTED_EDGE('',*,*,#452,.T.);
#327=ORIENTED_EDGE('',*,*,#559,.T.);
#328=ORIENTED_EDGE('',*,*,#560,.T.);
#329=ORIENTED_EDGE('',*,*,#484,.T.);
#330=ORIENTED_EDGE('',*,*,#561,.T.);
#331=ORIENTED_EDGE('',*,*,#486,.F.);
#332=ORIENTED_EDGE('',*,*,#562,.T.);
#333=ORIENTED_EDGE('',*,*,#563,.T.);
#334=ORIENTED_EDGE('',*,*,#564,.T.);
#335=ORIENTED_EDGE('',*,*,#488,.T.);
#336=ORIENTED_EDGE('',*,*,#565,.T.);
#337=ORIENTED_EDGE('',*,*,#566,.F.);
#338=ORIENTED_EDGE('',*,*,#536,.T.);
#339=ORIENTED_EDGE('',*,*,#567,.T.);
#340=ORIENTED_EDGE('',*,*,#563,.F.);
#341=ORIENTED_EDGE('',*,*,#568,.T.);
#342=ORIENTED_EDGE('',*,*,#559,.F.);
#343=ORIENTED_EDGE('',*,*,#569,.F.);
#344=ORIENTED_EDGE('',*,*,#462,.T.);
#345=ORIENTED_EDGE('',*,*,#537,.T.);
#346=ORIENTED_EDGE('',*,*,#566,.T.);
#347=ORIENTED_EDGE('',*,*,#570,.T.);
#348=ORIENTED_EDGE('',*,*,#493,.T.);
#349=ORIENTED_EDGE('',*,*,#567,.F.);
#350=ORIENTED_EDGE('',*,*,#492,.T.);
#351=ORIENTED_EDGE('',*,*,#555,.F.);
#352=ORIENTED_EDGE('',*,*,#516,.F.);
#353=ORIENTED_EDGE('',*,*,#419,.F.);
#354=ORIENTED_EDGE('',*,*,#477,.F.);
#355=ORIENTED_EDGE('',*,*,#515,.F.);
#356=ORIENTED_EDGE('',*,*,#517,.F.);
#357=ORIENTED_EDGE('',*,*,#512,.F.);
#358=ORIENTED_EDGE('',*,*,#478,.F.);
#359=ORIENTED_EDGE('',*,*,#421,.F.);
#360=ORIENTED_EDGE('',*,*,#449,.F.);
#361=ORIENTED_EDGE('',*,*,#525,.F.);
#362=ORIENTED_EDGE('',*,*,#523,.F.);
#363=ORIENTED_EDGE('',*,*,#507,.F.);
#364=ORIENTED_EDGE('',*,*,#447,.F.);
#365=ORIENTED_EDGE('',*,*,#532,.F.);
#366=ORIENTED_EDGE('',*,*,#519,.F.);
#367=ORIENTED_EDGE('',*,*,#524,.F.);
#368=ORIENTED_EDGE('',*,*,#570,.F.);
#369=ORIENTED_EDGE('',*,*,#565,.F.);
#370=ORIENTED_EDGE('',*,*,#487,.F.);
#371=ORIENTED_EDGE('',*,*,#564,.F.);
#372=ORIENTED_EDGE('',*,*,#571,.T.);
#373=ORIENTED_EDGE('',*,*,#557,.F.);
#374=ORIENTED_EDGE('',*,*,#529,.F.);
#375=ORIENTED_EDGE('',*,*,#528,.F.);
#376=ORIENTED_EDGE('',*,*,#411,.T.);
#377=ORIENTED_EDGE('',*,*,#569,.T.);
#378=ORIENTED_EDGE('',*,*,#572,.F.);
#379=ORIENTED_EDGE('',*,*,#400,.T.);
#380=ORIENTED_EDGE('',*,*,#401,.T.);
#381=ORIENTED_EDGE('',*,*,#572,.T.);
#382=ORIENTED_EDGE('',*,*,#561,.F.);
#383=ORIENTED_EDGE('',*,*,#402,.F.);
#384=ORIENTED_EDGE('',*,*,#526,.T.);
#385=ORIENTED_EDGE('',*,*,#549,.T.);
#386=ORIENTED_EDGE('',*,*,#571,.F.);
#387=ORIENTED_EDGE('',*,*,#527,.F.);
#388=ORIENTED_EDGE('',*,*,#568,.F.);
#389=ORIENTED_EDGE('',*,*,#562,.F.);
#390=ORIENTED_EDGE('',*,*,#485,.F.);
#391=ORIENTED_EDGE('',*,*,#560,.F.);
#392=ORIENTED_EDGE('',*,*,#556,.F.);
#393=ORIENTED_EDGE('',*,*,#552,.F.);
#394=ORIENTED_EDGE('',*,*,#466,.F.);
#395=ORIENTED_EDGE('',*,*,#551,.F.);
#396=ORIENTED_EDGE('',*,*,#558,.F.);
#397=ORIENTED_EDGE('',*,*,#547,.F.);
#398=ORIENTED_EDGE('',*,*,#468,.F.);
#399=ORIENTED_EDGE('',*,*,#554,.F.);
#400=EDGE_CURVE('',#573,#574,#690,.T.);
#401=EDGE_CURVE('',#575,#573,#691,.T.);
#402=EDGE_CURVE('',#575,#576,#692,.T.);
#403=EDGE_CURVE('',#577,#576,#693,.T.);
#404=EDGE_CURVE('',#578,#577,#694,.T.);
#405=EDGE_CURVE('',#578,#579,#695,.T.);
#406=EDGE_CURVE('',#579,#580,#696,.T.);
#407=EDGE_CURVE('',#580,#581,#697,.T.);
#408=EDGE_CURVE('',#581,#582,#698,.T.);
#409=EDGE_CURVE('',#583,#582,#699,.T.);
#410=EDGE_CURVE('',#584,#583,#700,.T.);
#411=EDGE_CURVE('',#574,#584,#701,.T.);
#412=EDGE_CURVE('',#585,#586,#702,.T.);
#413=EDGE_CURVE('',#585,#587,#703,.T.);
#414=EDGE_CURVE('',#587,#588,#704,.T.);
#415=EDGE_CURVE('',#589,#588,#705,.T.);
#416=EDGE_CURVE('',#590,#589,#706,.T.);
#417=EDGE_CURVE('',#590,#586,#707,.T.);
#418=EDGE_CURVE('',#591,#592,#708,.T.);
#419=EDGE_CURVE('',#592,#593,#709,.F.);
#420=EDGE_CURVE('',#594,#593,#710,.T.);
#421=EDGE_CURVE('',#594,#591,#711,.T.);
#422=EDGE_CURVE('',#595,#596,#26,.T.);
#423=EDGE_CURVE('',#595,#597,#712,.T.);
#424=EDGE_CURVE('',#598,#597,#27,.T.);
#425=EDGE_CURVE('',#599,#598,#713,.T.);
#426=EDGE_CURVE('',#600,#599,#28,.T.);
#427=EDGE_CURVE('',#601,#600,#714,.T.);
#428=EDGE_CURVE('',#602,#601,#29,.T.);
#429=EDGE_CURVE('',#602,#596,#715,.T.);
#430=EDGE_CURVE('',#603,#604,#716,.T.);
#431=EDGE_CURVE('',#605,#603,#717,.T.);
#432=EDGE_CURVE('',#605,#606,#718,.T.);
#433=EDGE_CURVE('',#606,#604,#719,.T.);
#434=EDGE_CURVE('',#607,#608,#30,.T.);
#435=EDGE_CURVE('',#607,#609,#720,.T.);
#436=EDGE_CURVE('',#610,#609,#31,.T.);
#437=EDGE_CURVE('',#610,#611,#721,.T.);
#438=EDGE_CURVE('',#612,#611,#32,.T.);
#439=EDGE_CURVE('',#613,#612,#722,.T.);
#440=EDGE_CURVE('',#614,#613,#33,.T.);
#441=EDGE_CURVE('',#608,#614,#723,.T.);
#442=EDGE_CURVE('',#615,#616,#724,.T.);
#443=EDGE_CURVE('',#615,#617,#725,.T.);
#444=EDGE_CURVE('',#618,#617,#726,.T.);
#445=EDGE_CURVE('',#618,#616,#727,.T.);
#446=EDGE_CURVE('',#619,#620,#728,.T.);
#447=EDGE_CURVE('',#620,#621,#34,.T.);
#448=EDGE_CURVE('',#621,#622,#729,.T.);
#449=EDGE_CURVE('',#622,#623,#35,.T.);
#450=EDGE_CURVE('',#624,#623,#730,.T.);
#451=EDGE_CURVE('',#625,#624,#731,.T.);
#452=EDGE_CURVE('',#626,#625,#732,.T.);
#453=EDGE_CURVE('',#626,#627,#733,.T.);
#454=EDGE_CURVE('',#628,#627,#734,.T.);
#455=EDGE_CURVE('',#628,#629,#735,.T.);
#456=EDGE_CURVE('',#629,#618,#736,.T.);
#457=EDGE_CURVE('',#617,#630,#737,.T.);
#458=EDGE_CURVE('',#619,#630,#738,.T.);
#459=EDGE_CURVE('',#585,#631,#739,.T.);
#460=EDGE_CURVE('',#586,#632,#740,.T.);
#461=EDGE_CURVE('',#633,#632,#741,.T.);
#462=EDGE_CURVE('',#584,#633,#742,.T.);
#463=EDGE_CURVE('',#634,#583,#743,.T.);
#464=EDGE_CURVE('',#631,#634,#744,.T.);
#465=EDGE_CURVE('',#588,#635,#745,.T.);
#466=EDGE_CURVE('',#635,#636,#36,.F.);
#467=EDGE_CURVE('',#637,#636,#746,.T.);
#468=EDGE_CURVE('',#637,#638,#37,.F.);
#469=EDGE_CURVE('',#639,#638,#747,.T.);
#470=EDGE_CURVE('',#640,#639,#748,.T.);
#471=EDGE_CURVE('',#641,#640,#749,.T.);
#472=EDGE_CURVE('',#642,#641,#750,.T.);
#473=EDGE_CURVE('',#643,#642,#751,.T.);
#474=EDGE_CURVE('',#619,#643,#752,.T.);
#475=EDGE_CURVE('',#630,#615,#753,.T.);
#476=EDGE_CURVE('',#616,#644,#754,.T.);
#477=EDGE_CURVE('',#644,#592,#38,.F.);
#478=EDGE_CURVE('',#591,#645,#39,.F.);
#479=EDGE_CURVE('',#646,#645,#755,.T.);
#480=EDGE_CURVE('',#646,#647,#756,.T.);
#481=EDGE_CURVE('',#625,#647,#757,.T.);
#482=EDGE_CURVE('',#624,#648,#758,.T.);
#483=EDGE_CURVE('',#648,#578,#759,.T.);
#484=EDGE_CURVE('',#649,#576,#760,.T.);
#485=EDGE_CURVE('',#649,#650,#40,.F.);
#486=EDGE_CURVE('',#650,#651,#761,.T.);
#487=EDGE_CURVE('',#651,#652,#41,.F.);
#488=EDGE_CURVE('',#653,#652,#762,.T.);
#489=EDGE_CURVE('',#653,#603,#763,.T.);
#490=EDGE_CURVE('',#654,#604,#764,.T.);
#491=EDGE_CURVE('',#589,#654,#765,.T.);
#492=EDGE_CURVE('',#655,#655,#42,.T.);
#493=EDGE_CURVE('',#656,#656,#43,.T.);
#494=EDGE_CURVE('',#657,#658,#766,.T.);
#495=EDGE_CURVE('',#658,#659,#767,.T.);
#496=EDGE_CURVE('',#580,#659,#768,.T.);
#497=EDGE_CURVE('',#579,#660,#769,.T.);
#498=EDGE_CURVE('',#661,#660,#770,.T.);
#499=EDGE_CURVE('',#661,#581,#771,.T.);
#500=EDGE_CURVE('',#581,#662,#772,.T.);
#501=EDGE_CURVE('',#663,#662,#773,.T.);
#502=EDGE_CURVE('',#664,#663,#774,.T.);
#503=EDGE_CURVE('',#664,#665,#775,.T.);
#504=EDGE_CURVE('',#665,#657,#776,.T.);
#505=EDGE_CURVE('',#665,#643,#777,.T.);
#506=EDGE_CURVE('',#641,#658,#778,.T.);
#507=EDGE_CURVE('',#623,#666,#779,.T.);
#508=EDGE_CURVE('',#661,#666,#780,.T.);
#509=EDGE_CURVE('',#660,#648,#781,.T.);
#510=EDGE_CURVE('',#647,#626,#782,.T.);
#511=EDGE_CURVE('',#627,#646,#783,.T.);
#512=EDGE_CURVE('',#645,#667,#784,.F.);
#513=EDGE_CURVE('',#628,#667,#785,.T.);
#514=EDGE_CURVE('',#629,#668,#786,.T.);
#515=EDGE_CURVE('',#668,#644,#787,.T.);
#516=EDGE_CURVE('',#593,#668,#44,.T.);
#517=EDGE_CURVE('',#667,#594,#45,.T.);
#518=EDGE_CURVE('',#669,#670,#788,.T.);
#519=EDGE_CURVE('',#669,#671,#46,.F.);
#520=EDGE_CURVE('',#664,#671,#789,.T.);
#521=EDGE_CURVE('',#663,#672,#790,.T.);
#522=EDGE_CURVE('',#672,#582,#791,.T.);
#523=EDGE_CURVE('',#666,#670,#47,.F.);
#524=EDGE_CURVE('',#621,#669,#792,.T.);
#525=EDGE_CURVE('',#670,#622,#793,.F.);
#526=EDGE_CURVE('',#673,#639,#794,.T.);
#527=EDGE_CURVE('',#673,#674,#795,.T.);
#528=EDGE_CURVE('',#674,#675,#796,.T.);
#529=EDGE_CURVE('',#675,#631,#797,.T.);
#530=EDGE_CURVE('',#634,#672,#798,.T.);
#531=EDGE_CURVE('',#659,#663,#799,.T.);
#532=EDGE_CURVE('',#671,#620,#800,.F.);
#533=EDGE_CURVE('',#676,#606,#801,.T.);
#534=EDGE_CURVE('',#632,#605,#802,.T.);
#535=EDGE_CURVE('',#590,#676,#803,.T.);
#536=EDGE_CURVE('',#677,#653,#804,.T.);
#537=EDGE_CURVE('',#633,#677,#805,.T.);
#538=EDGE_CURVE('',#676,#654,#806,.T.);
#539=EDGE_CURVE('',#607,#597,#807,.T.);
#540=EDGE_CURVE('',#609,#595,#808,.T.);
#541=EDGE_CURVE('',#610,#596,#809,.T.);
#542=EDGE_CURVE('',#611,#602,#810,.T.);
#543=EDGE_CURVE('',#612,#601,#811,.T.);
#544=EDGE_CURVE('',#613,#600,#812,.T.);
#545=EDGE_CURVE('',#614,#599,#813,.T.);
#546=EDGE_CURVE('',#608,#598,#814,.T.);
#547=EDGE_CURVE('',#638,#678,#815,.F.);
#548=EDGE_CURVE('',#679,#678,#816,.T.);
#549=EDGE_CURVE('',#639,#679,#817,.T.);
#550=EDGE_CURVE('',#587,#680,#818,.T.);
#551=EDGE_CURVE('',#680,#635,#819,.T.);
#552=EDGE_CURVE('',#636,#681,#820,.F.);
#553=EDGE_CURVE('',#682,#681,#821,.T.);
#554=EDGE_CURVE('',#682,#637,#822,.T.);
#555=EDGE_CURVE('',#683,#683,#48,.T.);
#556=EDGE_CURVE('',#681,#680,#49,.F.);
#557=EDGE_CURVE('',#631,#679,#823,.T.);
#558=EDGE_CURVE('',#678,#682,#50,.F.);
#559=EDGE_CURVE('',#684,#685,#824,.T.);
#560=EDGE_CURVE('',#685,#649,#825,.T.);
#561=EDGE_CURVE('',#576,#684,#826,.T.);
#562=EDGE_CURVE('',#650,#686,#827,.F.);
#563=EDGE_CURVE('',#686,#687,#828,.T.);
#564=EDGE_CURVE('',#687,#651,#829,.T.);
#565=EDGE_CURVE('',#652,#688,#830,.F.);
#566=EDGE_CURVE('',#677,#688,#831,.T.);
#567=EDGE_CURVE('',#689,#689,#51,.T.);
#568=EDGE_CURVE('',#686,#685,#52,.F.);
#569=EDGE_CURVE('',#584,#684,#832,.T.);
#570=EDGE_CURVE('',#688,#687,#53,.F.);
#571=EDGE_CURVE('',#674,#679,#833,.T.);
#572=EDGE_CURVE('',#573,#684,#834,.T.);
#573=VERTEX_POINT('',#1635);
#574=VERTEX_POINT('',#1636);
#575=VERTEX_POINT('',#1638);
#576=VERTEX_POINT('',#1640);
#577=VERTEX_POINT('',#1642);
#578=VERTEX_POINT('',#1644);
#579=VERTEX_POINT('',#1646);
#580=VERTEX_POINT('',#1648);
#581=VERTEX_POINT('',#1650);
#582=VERTEX_POINT('',#1652);
#583=VERTEX_POINT('',#1654);
#584=VERTEX_POINT('',#1656);
#585=VERTEX_POINT('',#1660);
#586=VERTEX_POINT('',#1661);
#587=VERTEX_POINT('',#1663);
#588=VERTEX_POINT('',#1665);
#589=VERTEX_POINT('',#1667);
#590=VERTEX_POINT('',#1669);
#591=VERTEX_POINT('',#1673);
#592=VERTEX_POINT('',#1674);
#593=VERTEX_POINT('',#1676);
#594=VERTEX_POINT('',#1678);
#595=VERTEX_POINT('',#1681);
#596=VERTEX_POINT('',#1682);
#597=VERTEX_POINT('',#1684);
#598=VERTEX_POINT('',#1686);
#599=VERTEX_POINT('',#1688);
#600=VERTEX_POINT('',#1690);
#601=VERTEX_POINT('',#1692);
#602=VERTEX_POINT('',#1694);
#603=VERTEX_POINT('',#1698);
#604=VERTEX_POINT('',#1699);
#605=VERTEX_POINT('',#1701);
#606=VERTEX_POINT('',#1703);
#607=VERTEX_POINT('',#1706);
#608=VERTEX_POINT('',#1707);
#609=VERTEX_POINT('',#1709);
#610=VERTEX_POINT('',#1711);
#611=VERTEX_POINT('',#1713);
#612=VERTEX_POINT('',#1715);
#613=VERTEX_POINT('',#1717);
#614=VERTEX_POINT('',#1719);
#615=VERTEX_POINT('',#1723);
#616=VERTEX_POINT('',#1724);
#617=VERTEX_POINT('',#1726);
#618=VERTEX_POINT('',#1728);
#619=VERTEX_POINT('',#1732);
#620=VERTEX_POINT('',#1733);
#621=VERTEX_POINT('',#1735);
#622=VERTEX_POINT('',#1737);
#623=VERTEX_POINT('',#1739);
#624=VERTEX_POINT('',#1741);
#625=VERTEX_POINT('',#1743);
#626=VERTEX_POINT('',#1745);
#627=VERTEX_POINT('',#1747);
#628=VERTEX_POINT('',#1749);
#629=VERTEX_POINT('',#1751);
#630=VERTEX_POINT('',#1754);
#631=VERTEX_POINT('',#1758);
#632=VERTEX_POINT('',#1760);
#633=VERTEX_POINT('',#1762);
#634=VERTEX_POINT('',#1765);
#635=VERTEX_POINT('',#1769);
#636=VERTEX_POINT('',#1771);
#637=VERTEX_POINT('',#1773);
#638=VERTEX_POINT('',#1775);
#639=VERTEX_POINT('',#1777);
#640=VERTEX_POINT('',#1779);
#641=VERTEX_POINT('',#1781);
#642=VERTEX_POINT('',#1783);
#643=VERTEX_POINT('',#1785);
#644=VERTEX_POINT('',#1789);
#645=VERTEX_POINT('',#1792);
#646=VERTEX_POINT('',#1794);
#647=VERTEX_POINT('',#1796);
#648=VERTEX_POINT('',#1799);
#649=VERTEX_POINT('',#1802);
#650=VERTEX_POINT('',#1804);
#651=VERTEX_POINT('',#1806);
#652=VERTEX_POINT('',#1808);
#653=VERTEX_POINT('',#1810);
#654=VERTEX_POINT('',#1813);
#655=VERTEX_POINT('',#1816);
#656=VERTEX_POINT('',#1818);
#657=VERTEX_POINT('',#1821);
#658=VERTEX_POINT('',#1822);
#659=VERTEX_POINT('',#1824);
#660=VERTEX_POINT('',#1827);
#661=VERTEX_POINT('',#1829);
#662=VERTEX_POINT('',#1832);
#663=VERTEX_POINT('',#1834);
#664=VERTEX_POINT('',#1836);
#665=VERTEX_POINT('',#1838);
#666=VERTEX_POINT('',#1845);
#667=VERTEX_POINT('',#1853);
#668=VERTEX_POINT('',#1857);
#669=VERTEX_POINT('',#1864);
#670=VERTEX_POINT('',#1865);
#671=VERTEX_POINT('',#1867);
#672=VERTEX_POINT('',#1870);
#673=VERTEX_POINT('',#1878);
#674=VERTEX_POINT('',#1880);
#675=VERTEX_POINT('',#1882);
#676=VERTEX_POINT('',#1893);
#677=VERTEX_POINT('',#1898);
#678=VERTEX_POINT('',#1922);
#679=VERTEX_POINT('',#1924);
#680=VERTEX_POINT('',#1928);
#681=VERTEX_POINT('',#1932);
#682=VERTEX_POINT('',#1934);
#683=VERTEX_POINT('',#1938);
#684=VERTEX_POINT('',#1945);
#685=VERTEX_POINT('',#1946);
#686=VERTEX_POINT('',#1951);
#687=VERTEX_POINT('',#1953);
#688=VERTEX_POINT('',#1957);
#689=VERTEX_POINT('',#1961);
#690=LINE('',#1634,#835);
#691=LINE('',#1637,#836);
#692=LINE('',#1639,#837);
#693=LINE('',#1641,#838);
#694=LINE('',#1643,#839);
#695=LINE('',#1645,#840);
#696=LINE('',#1647,#841);
#697=LINE('',#1649,#842);
#698=LINE('',#1651,#843);
#699=LINE('',#1653,#844);
#700=LINE('',#1655,#845);
#701=LINE('',#1657,#846);
#702=LINE('',#1659,#847);
#703=LINE('',#1662,#848);
#704=LINE('',#1664,#849);
#705=LINE('',#1666,#850);
#706=LINE('',#1668,#851);
#707=LINE('',#1670,#852);
#708=LINE('',#1672,#853);
#709=LINE('',#1675,#854);
#710=LINE('',#1677,#855);
#711=LINE('',#1679,#856);
#712=LINE('',#1683,#857);
#713=LINE('',#1687,#858);
#714=LINE('',#1691,#859);
#715=LINE('',#1695,#860);
#716=LINE('',#1697,#861);
#717=LINE('',#1700,#862);
#718=LINE('',#1702,#863);
#719=LINE('',#1704,#864);
#720=LINE('',#1708,#865);
#721=LINE('',#1712,#866);
#722=LINE('',#1716,#867);
#723=LINE('',#1720,#868);
#724=LINE('',#1722,#869);
#725=LINE('',#1725,#870);
#726=LINE('',#1727,#871);
#727=LINE('',#1729,#872);
#728=LINE('',#1731,#873);
#729=LINE('',#1736,#874);
#730=LINE('',#1740,#875);
#731=LINE('',#1742,#876);
#732=LINE('',#1744,#877);
#733=LINE('',#1746,#878);
#734=LINE('',#1748,#879);
#735=LINE('',#1750,#880);
#736=LINE('',#1752,#881);
#737=LINE('',#1753,#882);
#738=LINE('',#1755,#883);
#739=LINE('',#1757,#884);
#740=LINE('',#1759,#885);
#741=LINE('',#1761,#886);
#742=LINE('',#1763,#887);
#743=LINE('',#1764,#888);
#744=LINE('',#1766,#889);
#745=LINE('',#1768,#890);
#746=LINE('',#1772,#891);
#747=LINE('',#1776,#892);
#748=LINE('',#1778,#893);
#749=LINE('',#1780,#894);
#750=LINE('',#1782,#895);
#751=LINE('',#1784,#896);
#752=LINE('',#1786,#897);
#753=LINE('',#1787,#898);
#754=LINE('',#1788,#899);
#755=LINE('',#1793,#900);
#756=LINE('',#1795,#901);
#757=LINE('',#1797,#902);
#758=LINE('',#1798,#903);
#759=LINE('',#1800,#904);
#760=LINE('',#1801,#905);
#761=LINE('',#1805,#906);
#762=LINE('',#1809,#907);
#763=LINE('',#1811,#908);
#764=LINE('',#1812,#909);
#765=LINE('',#1814,#910);
#766=LINE('',#1820,#911);
#767=LINE('',#1823,#912);
#768=LINE('',#1825,#913);
#769=LINE('',#1826,#914);
#770=LINE('',#1828,#915);
#771=LINE('',#1830,#916);
#772=LINE('',#1831,#917);
#773=LINE('',#1833,#918);
#774=LINE('',#1835,#919);
#775=LINE('',#1837,#920);
#776=LINE('',#1839,#921);
#777=LINE('',#1841,#922);
#778=LINE('',#1842,#923);
#779=LINE('',#1844,#924);
#780=LINE('',#1846,#925);
#781=LINE('',#1847,#926);
#782=LINE('',#1849,#927);
#783=LINE('',#1850,#928);
#784=LINE('',#1852,#929);
#785=LINE('',#1854,#930);
#786=LINE('',#1856,#931);
#787=LINE('',#1858,#932);
#788=LINE('',#1863,#933);
#789=LINE('',#1868,#934);
#790=LINE('',#1869,#935);
#791=LINE('',#1871,#936);
#792=LINE('',#1874,#937);
#793=LINE('',#1875,#938);
#794=LINE('',#1877,#939);
#795=LINE('',#1879,#940);
#796=LINE('',#1881,#941);
#797=LINE('',#1883,#942);
#798=LINE('',#1884,#943);
#799=LINE('',#1885,#944);
#800=LINE('',#1889,#945);
#801=LINE('',#1892,#946);
#802=LINE('',#1894,#947);
#803=LINE('',#1895,#948);
#804=LINE('',#1897,#949);
#805=LINE('',#1899,#950);
#806=LINE('',#1901,#951);
#807=LINE('',#1904,#952);
#808=LINE('',#1905,#953);
#809=LINE('',#1907,#954);
#810=LINE('',#1909,#955);
#811=LINE('',#1911,#956);
#812=LINE('',#1913,#957);
#813=LINE('',#1915,#958);
#814=LINE('',#1917,#959);
#815=LINE('',#1921,#960);
#816=LINE('',#1923,#961);
#817=LINE('',#1925,#962);
#818=LINE('',#1927,#963);
#819=LINE('',#1929,#964);
#820=LINE('',#1931,#965);
#821=LINE('',#1933,#966);
#822=LINE('',#1935,#967);
#823=LINE('',#1940,#968);
#824=LINE('',#1944,#969);
#825=LINE('',#1947,#970);
#826=LINE('',#1948,#971);
#827=LINE('',#1950,#972);
#828=LINE('',#1952,#973);
#829=LINE('',#1954,#974);
#830=LINE('',#1956,#975);
#831=LINE('',#1958,#976);
#832=LINE('',#1963,#977);
#833=LINE('',#1973,#978);
#834=LINE('',#1975,#979);
#835=VECTOR('',#1317,1.);
#836=VECTOR('',#1318,1.);
#837=VECTOR('',#1319,1.);
#838=VECTOR('',#1320,1.);
#839=VECTOR('',#1321,1.);
#840=VECTOR('',#1322,1.);
#841=VECTOR('',#1323,1.);
#842=VECTOR('',#1324,1.);
#843=VECTOR('',#1325,1.);
#844=VECTOR('',#1326,1.);
#845=VECTOR('',#1327,1.);
#846=VECTOR('',#1328,1.);
#847=VECTOR('',#1331,1.);
#848=VECTOR('',#1332,1.);
#849=VECTOR('',#1333,1.);
#850=VECTOR('',#1334,1.);
#851=VECTOR('',#1335,1.);
#852=VECTOR('',#1336,1.);
#853=VECTOR('',#1339,1.);
#854=VECTOR('',#1340,1.);
#855=VECTOR('',#1341,1.);
#856=VECTOR('',#1342,1.);
#857=VECTOR('',#1345,1.);
#858=VECTOR('',#1348,1.);
#859=VECTOR('',#1351,1.);
#860=VECTOR('',#1354,1.);
#861=VECTOR('',#1357,1.);
#862=VECTOR('',#1358,1.);
#863=VECTOR('',#1359,1.);
#864=VECTOR('',#1360,1.);
#865=VECTOR('',#1363,1.);
#866=VECTOR('',#1366,1.);
#867=VECTOR('',#1369,1.);
#868=VECTOR('',#1372,1.);
#869=VECTOR('',#1375,1.);
#870=VECTOR('',#1376,1.);
#871=VECTOR('',#1377,1.);
#872=VECTOR('',#1378,1.);
#873=VECTOR('',#1381,1.);
#874=VECTOR('',#1384,1.);
#875=VECTOR('',#1387,1.);
#876=VECTOR('',#1388,1.);
#877=VECTOR('',#1389,1.);
#878=VECTOR('',#1390,1.);
#879=VECTOR('',#1391,1.);
#880=VECTOR('',#1392,1.);
#881=VECTOR('',#1393,1.);
#882=VECTOR('',#1394,1.);
#883=VECTOR('',#1395,1.);
#884=VECTOR('',#1398,1.);
#885=VECTOR('',#1399,1.);
#886=VECTOR('',#1400,1.);
#887=VECTOR('',#1401,1.);
#888=VECTOR('',#1402,1.);
#889=VECTOR('',#1403,1.);
#890=VECTOR('',#1406,1.);
#891=VECTOR('',#1409,1.);
#892=VECTOR('',#1412,1.);
#893=VECTOR('',#1413,1.);
#894=VECTOR('',#1414,1.);
#895=VECTOR('',#1415,1.);
#896=VECTOR('',#1416,1.);
#897=VECTOR('',#1417,1.);
#898=VECTOR('',#1418,1.);
#899=VECTOR('',#1419,1.);
#900=VECTOR('',#1424,1.);
#901=VECTOR('',#1425,1.);
#902=VECTOR('',#1426,1.);
#903=VECTOR('',#1427,1.);
#904=VECTOR('',#1428,1.);
#905=VECTOR('',#1429,1.);
#906=VECTOR('',#1432,1.);
#907=VECTOR('',#1435,1.);
#908=VECTOR('',#1436,1.);
#909=VECTOR('',#1437,1.);
#910=VECTOR('',#1438,1.);
#911=VECTOR('',#1445,1.);
#912=VECTOR('',#1446,1.);
#913=VECTOR('',#1447,1.);
#914=VECTOR('',#1448,1.);
#915=VECTOR('',#1449,1.);
#916=VECTOR('',#1450,1.);
#917=VECTOR('',#1451,1.);
#918=VECTOR('',#1452,1.);
#919=VECTOR('',#1453,1.);
#920=VECTOR('',#1454,1.);
#921=VECTOR('',#1455,1.);
#922=VECTOR('',#1458,1.);
#923=VECTOR('',#1459,1.);
#924=VECTOR('',#1462,1.);
#925=VECTOR('',#1463,1.);
#926=VECTOR('',#1464,1.);
#927=VECTOR('',#1467,1.);
#928=VECTOR('',#1468,1.);
#929=VECTOR('',#1471,1.);
#930=VECTOR('',#1472,1.);
#931=VECTOR('',#1475,1.);
#932=VECTOR('',#1476,1.);
#933=VECTOR('',#1485,1.);
#934=VECTOR('',#1488,1.);
#935=VECTOR('',#1489,1.);
#936=VECTOR('',#1490,1.);
#937=VECTOR('',#1495,1.);
#938=VECTOR('',#1496,1.);
#939=VECTOR('',#1499,1.);
#940=VECTOR('',#1500,1.);
#941=VECTOR('',#1501,1.);
#942=VECTOR('',#1502,1.);
#943=VECTOR('',#1503,1.);
#944=VECTOR('',#1504,1.);
#945=VECTOR('',#1511,1.);
#946=VECTOR('',#1516,1.);
#947=VECTOR('',#1517,1.);
#948=VECTOR('',#1518,1.);
#949=VECTOR('',#1521,1.);
#950=VECTOR('',#1522,1.);
#951=VECTOR('',#1525,1.);
#952=VECTOR('',#1530,1.);
#953=VECTOR('',#1531,1.);
#954=VECTOR('',#1534,1.);
#955=VECTOR('',#1537,1.);
#956=VECTOR('',#1540,1.);
#957=VECTOR('',#1543,1.);
#958=VECTOR('',#1546,1.);
#959=VECTOR('',#1549,1.);
#960=VECTOR('',#1556,1.);
#961=VECTOR('',#1557,1.);
#962=VECTOR('',#1558,1.);
#963=VECTOR('',#1561,1.);
#964=VECTOR('',#1562,1.);
#965=VECTOR('',#1565,1.);
#966=VECTOR('',#1566,1.);
#967=VECTOR('',#1567,1.);
#968=VECTOR('',#1574,1.);
#969=VECTOR('',#1581,1.);
#970=VECTOR('',#1582,1.);
#971=VECTOR('',#1583,1.);
#972=VECTOR('',#1586,1.);
#973=VECTOR('',#1587,1.);
#974=VECTOR('',#1588,1.);
#975=VECTOR('',#1591,1.);
#976=VECTOR('',#1592,1.);
#977=VECTOR('',#1599,1.);
#978=VECTOR('',#1618,1.);
#979=VECTOR('',#1621,1.);
#980=EDGE_LOOP('',(#54,#55,#56,#57,#58,#59,#60,#61,#62,#63,#64,#65));
#981=EDGE_LOOP('',(#66,#67,#68,#69,#70,#71));
#982=EDGE_LOOP('',(#72,#73,#74,#75));
#983=EDGE_LOOP('',(#76,#77,#78,#79,#80,#81,#82,#83));
#984=EDGE_LOOP('',(#84,#85,#86,#87));
#985=EDGE_LOOP('',(#88,#89,#90,#91,#92,#93,#94,#95));
#986=EDGE_LOOP('',(#96,#97,#98,#99));
#987=EDGE_LOOP('',(#100,#101,#102,#103,#104,#105,#106,#107,#108,#109,#110,
#111,#112,#113));
#988=EDGE_LOOP('',(#114,#115,#116,#117,#118,#119,#120,#121));
#989=EDGE_LOOP('',(#122,#123,#124,#125,#126,#127,#128,#129,#130,#131,#132,
#133,#134,#135,#136,#137,#138,#139,#140,#141,#142,#143,#144,#145,#146,#147,
#148,#149,#150,#151,#152,#153,#154,#155,#156));
#990=EDGE_LOOP('',(#157));
#991=EDGE_LOOP('',(#158));
#992=EDGE_LOOP('',(#159,#160,#161,#162,#163,#164,#165,#166,#167,#168,#169,
#170));
#993=EDGE_LOOP('',(#171,#172,#173,#174,#175,#176));
#994=EDGE_LOOP('',(#177,#178,#179,#180,#181,#182));
#995=EDGE_LOOP('',(#183,#184,#185,#186));
#996=EDGE_LOOP('',(#187,#188,#189,#190,#191));
#997=EDGE_LOOP('',(#192,#193,#194,#195,#196));
#998=EDGE_LOOP('',(#197,#198,#199,#200,#201,#202));
#999=EDGE_LOOP('',(#203,#204,#205,#206,#207,#208,#209,#210,#211,#212));
#1000=EDGE_LOOP('',(#213,#214,#215,#216));
#1001=EDGE_LOOP('',(#217,#218,#219,#220,#221,#222,#223,#224,#225,#226,#227,
#228));
#1002=EDGE_LOOP('',(#229,#230,#231,#232));
#1003=EDGE_LOOP('',(#233,#234,#235,#236));
#1004=EDGE_LOOP('',(#237,#238,#239,#240,#241,#242));
#1005=EDGE_LOOP('',(#243,#244,#245,#246,#247));
#1006=EDGE_LOOP('',(#248,#249,#250,#251,#252,#253));
#1007=EDGE_LOOP('',(#254,#255,#256,#257,#258,#259));
#1008=EDGE_LOOP('',(#260,#261,#262,#263));
#1009=EDGE_LOOP('',(#264,#265,#266,#267));
#1010=EDGE_LOOP('',(#268,#269,#270,#271));
#1011=EDGE_LOOP('',(#272,#273,#274,#275));
#1012=EDGE_LOOP('',(#276,#277,#278,#279));
#1013=EDGE_LOOP('',(#280,#281,#282,#283));
#1014=EDGE_LOOP('',(#284,#285,#286,#287));
#1015=EDGE_LOOP('',(#288,#289,#290,#291));
#1016=EDGE_LOOP('',(#292,#293,#294,#295));
#1017=EDGE_LOOP('',(#296,#297,#298,#299));
#1018=EDGE_LOOP('',(#300,#301,#302));
#1019=EDGE_LOOP('',(#303,#304,#305,#306));
#1020=EDGE_LOOP('',(#307,#308,#309,#310));
#1021=EDGE_LOOP('',(#311,#312,#313,#314));
#1022=EDGE_LOOP('',(#315));
#1023=EDGE_LOOP('',(#316,#317,#318,#319,#320,#321,#322,#323));
#1024=EDGE_LOOP('',(#324,#325,#326));
#1025=EDGE_LOOP('',(#327,#328,#329,#330));
#1026=EDGE_LOOP('',(#331,#332,#333,#334));
#1027=EDGE_LOOP('',(#335,#336,#337,#338));
#1028=EDGE_LOOP('',(#339));
#1029=EDGE_LOOP('',(#340,#341,#342,#343,#344,#345,#346,#347));
#1030=EDGE_LOOP('',(#348));
#1031=EDGE_LOOP('',(#349));
#1032=EDGE_LOOP('',(#350));
#1033=EDGE_LOOP('',(#351));
#1034=EDGE_LOOP('',(#352,#353,#354,#355));
#1035=EDGE_LOOP('',(#356,#357,#358,#359));
#1036=EDGE_LOOP('',(#360,#361,#362,#363));
#1037=EDGE_LOOP('',(#364,#365,#366,#367));
#1038=EDGE_LOOP('',(#368,#369,#370,#371));
#1039=EDGE_LOOP('',(#372,#373,#374,#375));
#1040=EDGE_LOOP('',(#376,#377,#378,#379));
#1041=EDGE_LOOP('',(#380,#381,#382,#383));
#1042=EDGE_LOOP('',(#384,#385,#386,#387));
#1043=EDGE_LOOP('',(#388,#389,#390,#391));
#1044=EDGE_LOOP('',(#392,#393,#394,#395));
#1045=EDGE_LOOP('',(#396,#397,#398,#399));
#1046=FACE_BOUND('',#980,.T.);
#1047=FACE_BOUND('',#981,.T.);
#1048=FACE_BOUND('',#982,.T.);
#1049=FACE_BOUND('',#983,.T.);
#1050=FACE_BOUND('',#984,.T.);
#1051=FACE_BOUND('',#985,.T.);
#1052=FACE_BOUND('',#986,.T.);
#1053=FACE_BOUND('',#987,.T.);
#1054=FACE_BOUND('',#988,.T.);
#1055=FACE_BOUND('',#989,.T.);
#1056=FACE_BOUND('',#990,.T.);
#1057=FACE_BOUND('',#991,.T.);
#1058=FACE_BOUND('',#992,.T.);
#1059=FACE_BOUND('',#993,.T.);
#1060=FACE_BOUND('',#994,.T.);
#1061=FACE_BOUND('',#995,.T.);
#1062=FACE_BOUND('',#996,.T.);
#1063=FACE_BOUND('',#997,.T.);
#1064=FACE_BOUND('',#998,.T.);
#1065=FACE_BOUND('',#999,.T.);
#1066=FACE_BOUND('',#1000,.T.);
#1067=FACE_BOUND('',#1001,.T.);
#1068=FACE_BOUND('',#1002,.T.);
#1069=FACE_BOUND('',#1003,.T.);
#1070=FACE_BOUND('',#1004,.T.);
#1071=FACE_BOUND('',#1005,.T.);
#1072=FACE_BOUND('',#1006,.T.);
#1073=FACE_BOUND('',#1007,.T.);
#1074=FACE_BOUND('',#1008,.T.);
#1075=FACE_BOUND('',#1009,.T.);
#1076=FACE_BOUND('',#1010,.T.);
#1077=FACE_BOUND('',#1011,.T.);
#1078=FACE_BOUND('',#1012,.T.);
#1079=FACE_BOUND('',#1013,.T.);
#1080=FACE_BOUND('',#1014,.T.);
#1081=FACE_BOUND('',#1015,.T.);
#1082=FACE_BOUND('',#1016,.T.);
#1083=FACE_BOUND('',#1017,.T.);
#1084=FACE_BOUND('',#1018,.T.);
#1085=FACE_BOUND('',#1019,.T.);
#1086=FACE_BOUND('',#1020,.T.);
#1087=FACE_BOUND('',#1021,.T.);
#1088=FACE_BOUND('',#1022,.T.);
#1089=FACE_BOUND('',#1023,.T.);
#1090=FACE_BOUND('',#1024,.T.);
#1091=FACE_BOUND('',#1025,.T.);
#1092=FACE_BOUND('',#1026,.T.);
#1093=FACE_BOUND('',#1027,.T.);
#1094=FACE_BOUND('',#1028,.T.);
#1095=FACE_BOUND('',#1029,.T.);
#1096=FACE_BOUND('',#1030,.T.);
#1097=FACE_BOUND('',#1031,.T.);
#1098=FACE_BOUND('',#1032,.T.);
#1099=FACE_BOUND('',#1033,.T.);
#1100=FACE_BOUND('',#1034,.T.);
#1101=FACE_BOUND('',#1035,.T.);
#1102=FACE_BOUND('',#1036,.T.);
#1103=FACE_BOUND('',#1037,.T.);
#1104=FACE_BOUND('',#1038,.T.);
#1105=FACE_BOUND('',#1039,.T.);
#1106=FACE_BOUND('',#1040,.T.);
#1107=FACE_BOUND('',#1041,.T.);
#1108=FACE_BOUND('',#1042,.T.);
#1109=FACE_BOUND('',#1043,.T.);
#1110=FACE_BOUND('',#1044,.T.);
#1111=FACE_BOUND('',#1045,.T.);
#1112=PLANE('',#1227);
#1113=PLANE('',#1228);
#1114=PLANE('',#1229);
#1115=PLANE('',#1234);
#1116=PLANE('',#1239);
#1117=PLANE('',#1240);
#1118=PLANE('',#1243);
#1119=PLANE('',#1244);
#1120=PLANE('',#1253);
#1121=PLANE('',#1254);
#1122=PLANE('',#1255);
#1123=PLANE('',#1256);
#1124=PLANE('',#1257);
#1125=PLANE('',#1258);
#1126=PLANE('',#1259);
#1127=PLANE('',#1262);
#1128=PLANE('',#1265);
#1129=PLANE('',#1266);
#1130=PLANE('',#1267);
#1131=PLANE('',#1268);
#1132=PLANE('',#1269);
#1133=PLANE('',#1270);
#1134=PLANE('',#1271);
#1135=PLANE('',#1272);
#1136=PLANE('',#1273);
#1137=PLANE('',#1274);
#1138=PLANE('',#1275);
#1139=PLANE('',#1277);
#1140=PLANE('',#1279);
#1141=PLANE('',#1281);
#1142=PLANE('',#1283);
#1143=PLANE('',#1284);
#1144=PLANE('',#1285);
#1145=PLANE('',#1286);
#1146=PLANE('',#1287);
#1147=PLANE('',#1291);
#1148=PLANE('',#1292);
#1149=PLANE('',#1293);
#1150=PLANE('',#1294);
#1151=PLANE('',#1295);
#1152=PLANE('',#1306);
#1153=PLANE('',#1307);
#1154=PLANE('',#1308);
#1155=PLANE('',#1309);
#1156=ADVANCED_FACE('',(#1046),#1112,.F.);
#1157=ADVANCED_FACE('',(#1047),#1113,.T.);
#1158=ADVANCED_FACE('',(#1048,#1049),#1114,.F.);
#1159=ADVANCED_FACE('',(#1050,#1051),#1115,.T.);
#1160=ADVANCED_FACE('',(#1052),#1116,.T.);
#1161=ADVANCED_FACE('',(#1053),#1117,.T.);
#1162=ADVANCED_FACE('',(#1054),#1118,.T.);
#1163=ADVANCED_FACE('',(#1055,#1056,#1057),#1119,.F.);
#1164=ADVANCED_FACE('',(#1058),#1120,.T.);
#1165=ADVANCED_FACE('',(#1059),#1121,.T.);
#1166=ADVANCED_FACE('',(#1060),#1122,.T.);
#1167=ADVANCED_FACE('',(#1061),#1123,.T.);
#1168=ADVANCED_FACE('',(#1062),#1124,.F.);
#1169=ADVANCED_FACE('',(#1063),#1125,.T.);
#1170=ADVANCED_FACE('',(#1064),#1126,.T.);
#1171=ADVANCED_FACE('',(#1065),#1127,.F.);
#1172=ADVANCED_FACE('',(#1066),#1128,.F.);
#1173=ADVANCED_FACE('',(#1067),#1129,.T.);
#1174=ADVANCED_FACE('',(#1068),#1130,.T.);
#1175=ADVANCED_FACE('',(#1069),#1131,.T.);
#1176=ADVANCED_FACE('',(#1070),#1132,.F.);
#1177=ADVANCED_FACE('',(#1071),#1133,.F.);
#1178=ADVANCED_FACE('',(#1072),#1134,.F.);
#1179=ADVANCED_FACE('',(#1073),#1135,.T.);
#1180=ADVANCED_FACE('',(#1074),#1136,.F.);
#1181=ADVANCED_FACE('',(#1075),#1137,.F.);
#1182=ADVANCED_FACE('',(#1076),#1138,.T.);
#1183=ADVANCED_FACE('',(#1077),#12,.F.);
#1184=ADVANCED_FACE('',(#1078),#1139,.T.);
#1185=ADVANCED_FACE('',(#1079),#13,.F.);
#1186=ADVANCED_FACE('',(#1080),#1140,.F.);
#1187=ADVANCED_FACE('',(#1081),#14,.F.);
#1188=ADVANCED_FACE('',(#1082),#1141,.F.);
#1189=ADVANCED_FACE('',(#1083),#15,.F.);
#1190=ADVANCED_FACE('',(#1084),#1142,.T.);
#1191=ADVANCED_FACE('',(#1085),#1143,.F.);
#1192=ADVANCED_FACE('',(#1086),#1144,.T.);
#1193=ADVANCED_FACE('',(#1087),#1145,.F.);
#1194=ADVANCED_FACE('',(#1088,#1089),#1146,.F.);
#1195=ADVANCED_FACE('',(#1090),#1147,.F.);
#1196=ADVANCED_FACE('',(#1091),#1148,.T.);
#1197=ADVANCED_FACE('',(#1092),#1149,.T.);
#1198=ADVANCED_FACE('',(#1093),#1150,.F.);
#1199=ADVANCED_FACE('',(#1094,#1095),#1151,.F.);
#1200=ADVANCED_FACE('',(#1096,#1097),#16,.F.);
#1201=ADVANCED_FACE('',(#1098,#1099),#17,.F.);
#1202=ADVANCED_FACE('',(#1100),#18,.T.);
#1203=ADVANCED_FACE('',(#1101),#19,.T.);
#1204=ADVANCED_FACE('',(#1102),#20,.T.);
#1205=ADVANCED_FACE('',(#1103),#21,.T.);
#1206=ADVANCED_FACE('',(#1104),#22,.T.);
#1207=ADVANCED_FACE('',(#1105),#1152,.T.);
#1208=ADVANCED_FACE('',(#1106),#1153,.F.);
#1209=ADVANCED_FACE('',(#1107),#1154,.T.);
#1210=ADVANCED_FACE('',(#1108),#1155,.F.);
#1211=ADVANCED_FACE('',(#1109),#23,.T.);
#1212=ADVANCED_FACE('',(#1110),#24,.T.);
#1213=ADVANCED_FACE('',(#1111),#25,.T.);
#1214=CLOSED_SHELL('',(#1156,#1157,#1158,#1159,#1160,#1161,#1162,#1163,
#1164,#1165,#1166,#1167,#1168,#1169,#1170,#1171,#1172,#1173,#1174,#1175,
#1176,#1177,#1178,#1179,#1180,#1181,#1182,#1183,#1184,#1185,#1186,#1187,
#1188,#1189,#1190,#1191,#1192,#1193,#1194,#1195,#1196,#1197,#1198,#1199,
#1200,#1201,#1202,#1203,#1204,#1205,#1206,#1207,#1208,#1209,#1210,#1211,
#1212,#1213));
#1215=STYLED_ITEM('',(#1216),#1223);
#1216=PRESENTATION_STYLE_ASSIGNMENT((#1217));
#1217=SURFACE_STYLE_USAGE(.BOTH.,#1218);
#1218=SURFACE_SIDE_STYLE('',(#1219));
#1219=SURFACE_STYLE_FILL_AREA(#1220);
#1220=FILL_AREA_STYLE('',(#1221));
#1221=FILL_AREA_STYLE_COLOUR('',#1222);
#1222=COLOUR_RGB('',0.972549019607843,0.529411764705882,0.00392156862745098);
#1223=MANIFOLD_SOLID_BREP('Cover',#1214);
#1224=SHAPE_DEFINITION_REPRESENTATION(#1987,#1225);
#1225=SHAPE_REPRESENTATION('Cover',(#1226),#1982);
#1226=AXIS2_PLACEMENT_3D('',#1632,#1313,#1314);
#1227=AXIS2_PLACEMENT_3D('',#1633,#1315,#1316);
#1228=AXIS2_PLACEMENT_3D('',#1658,#1329,#1330);
#1229=AXIS2_PLACEMENT_3D('',#1671,#1337,#1338);
#1230=AXIS2_PLACEMENT_3D('',#1680,#1343,#1344);
#1231=AXIS2_PLACEMENT_3D('',#1685,#1346,#1347);
#1232=AXIS2_PLACEMENT_3D('',#1689,#1349,#1350);
#1233=AXIS2_PLACEMENT_3D('',#1693,#1352,#1353);
#1234=AXIS2_PLACEMENT_3D('',#1696,#1355,#1356);
#1235=AXIS2_PLACEMENT_3D('',#1705,#1361,#1362);
#1236=AXIS2_PLACEMENT_3D('',#1710,#1364,#1365);
#1237=AXIS2_PLACEMENT_3D('',#1714,#1367,#1368);
#1238=AXIS2_PLACEMENT_3D('',#1718,#1370,#1371);
#1239=AXIS2_PLACEMENT_3D('',#1721,#1373,#1374);
#1240=AXIS2_PLACEMENT_3D('',#1730,#1379,#1380);
#1241=AXIS2_PLACEMENT_3D('',#1734,#1382,#1383);
#1242=AXIS2_PLACEMENT_3D('',#1738,#1385,#1386);
#1243=AXIS2_PLACEMENT_3D('',#1756,#1396,#1397);
#1244=AXIS2_PLACEMENT_3D('',#1767,#1404,#1405);
#1245=AXIS2_PLACEMENT_3D('',#1770,#1407,#1408);
#1246=AXIS2_PLACEMENT_3D('',#1774,#1410,#1411);
#1247=AXIS2_PLACEMENT_3D('',#1790,#1420,#1421);
#1248=AXIS2_PLACEMENT_3D('',#1791,#1422,#1423);
#1249=AXIS2_PLACEMENT_3D('',#1803,#1430,#1431);
#1250=AXIS2_PLACEMENT_3D('',#1807,#1433,#1434);
#1251=AXIS2_PLACEMENT_3D('',#1815,#1439,#1440);
#1252=AXIS2_PLACEMENT_3D('',#1817,#1441,#1442);
#1253=AXIS2_PLACEMENT_3D('',#1819,#1443,#1444);
#1254=AXIS2_PLACEMENT_3D('',#1840,#1456,#1457);
#1255=AXIS2_PLACEMENT_3D('',#1843,#1460,#1461);
#1256=AXIS2_PLACEMENT_3D('',#1848,#1465,#1466);
#1257=AXIS2_PLACEMENT_3D('',#1851,#1469,#1470);
#1258=AXIS2_PLACEMENT_3D('',#1855,#1473,#1474);
#1259=AXIS2_PLACEMENT_3D('',#1859,#1477,#1478);
#1260=AXIS2_PLACEMENT_3D('',#1860,#1479,#1480);
#1261=AXIS2_PLACEMENT_3D('',#1861,#1481,#1482);
#1262=AXIS2_PLACEMENT_3D('',#1862,#1483,#1484);
#1263=AXIS2_PLACEMENT_3D('',#1866,#1486,#1487);
#1264=AXIS2_PLACEMENT_3D('',#1872,#1491,#1492);
#1265=AXIS2_PLACEMENT_3D('',#1873,#1493,#1494);
#1266=AXIS2_PLACEMENT_3D('',#1876,#1497,#1498);
#1267=AXIS2_PLACEMENT_3D('',#1886,#1505,#1506);
#1268=AXIS2_PLACEMENT_3D('',#1887,#1507,#1508);
#1269=AXIS2_PLACEMENT_3D('',#1888,#1509,#1510);
#1270=AXIS2_PLACEMENT_3D('',#1890,#1512,#1513);
#1271=AXIS2_PLACEMENT_3D('',#1891,#1514,#1515);
#1272=AXIS2_PLACEMENT_3D('',#1896,#1519,#1520);
#1273=AXIS2_PLACEMENT_3D('',#1900,#1523,#1524);
#1274=AXIS2_PLACEMENT_3D('',#1902,#1526,#1527);
#1275=AXIS2_PLACEMENT_3D('',#1903,#1528,#1529);
#1276=AXIS2_PLACEMENT_3D('',#1906,#1532,#1533);
#1277=AXIS2_PLACEMENT_3D('',#1908,#1535,#1536);
#1278=AXIS2_PLACEMENT_3D('',#1910,#1538,#1539);
#1279=AXIS2_PLACEMENT_3D('',#1912,#1541,#1542);
#1280=AXIS2_PLACEMENT_3D('',#1914,#1544,#1545);
#1281=AXIS2_PLACEMENT_3D('',#1916,#1547,#1548);
#1282=AXIS2_PLACEMENT_3D('',#1918,#1550,#1551);
#1283=AXIS2_PLACEMENT_3D('',#1919,#1552,#1553);
#1284=AXIS2_PLACEMENT_3D('',#1920,#1554,#1555);
#1285=AXIS2_PLACEMENT_3D('',#1926,#1559,#1560);
#1286=AXIS2_PLACEMENT_3D('',#1930,#1563,#1564);
#1287=AXIS2_PLACEMENT_3D('',#1936,#1568,#1569);
#1288=AXIS2_PLACEMENT_3D('',#1937,#1570,#1571);
#1289=AXIS2_PLACEMENT_3D('',#1939,#1572,#1573);
#1290=AXIS2_PLACEMENT_3D('',#1941,#1575,#1576);
#1291=AXIS2_PLACEMENT_3D('',#1942,#1577,#1578);
#1292=AXIS2_PLACEMENT_3D('',#1943,#1579,#1580);
#1293=AXIS2_PLACEMENT_3D('',#1949,#1584,#1585);
#1294=AXIS2_PLACEMENT_3D('',#1955,#1589,#1590);
#1295=AXIS2_PLACEMENT_3D('',#1959,#1593,#1594);
#1296=AXIS2_PLACEMENT_3D('',#1960,#1595,#1596);
#1297=AXIS2_PLACEMENT_3D('',#1962,#1597,#1598);
#1298=AXIS2_PLACEMENT_3D('',#1964,#1600,#1601);
#1299=AXIS2_PLACEMENT_3D('',#1965,#1602,#1603);
#1300=AXIS2_PLACEMENT_3D('',#1966,#1604,#1605);
#1301=AXIS2_PLACEMENT_3D('',#1967,#1606,#1607);
#1302=AXIS2_PLACEMENT_3D('',#1968,#1608,#1609);
#1303=AXIS2_PLACEMENT_3D('',#1969,#1610,#1611);
#1304=AXIS2_PLACEMENT_3D('',#1970,#1612,#1613);
#1305=AXIS2_PLACEMENT_3D('',#1971,#1614,#1615);
#1306=AXIS2_PLACEMENT_3D('',#1972,#1616,#1617);
#1307=AXIS2_PLACEMENT_3D('',#1974,#1619,#1620);
#1308=AXIS2_PLACEMENT_3D('',#1976,#1622,#1623);
#1309=AXIS2_PLACEMENT_3D('',#1977,#1624,#1625);
#1310=AXIS2_PLACEMENT_3D('',#1978,#1626,#1627);
#1311=AXIS2_PLACEMENT_3D('',#1979,#1628,#1629);
#1312=AXIS2_PLACEMENT_3D('',#1980,#1630,#1631);
#1313=DIRECTION('',(0.,0.,1.));
#1314=DIRECTION('',(1.,0.,0.));
#1315=DIRECTION('',(1.,-1.79577740421631E-17,8.37384755927769E-18));
#1316=DIRECTION('',(1.79577740421631E-17,1.,0.));
#1317=DIRECTION('',(3.08148791101958E-33,0.422618261740699,0.90630778703665));
#1318=DIRECTION('',(3.08148791101958E-33,0.422618261740699,0.90630778703665));
#1319=DIRECTION('',(1.98142113518406E-17,0.90630778703665,-0.422618261740699));
#1320=DIRECTION('',(1.79577740421631E-17,1.,0.));
#1321=DIRECTION('',(1.79577740421631E-17,1.,0.));
#1322=DIRECTION('',(-1.79577740421631E-17,-1.,0.));
#1323=DIRECTION('',(-1.22928841917871E-19,0.416987327296415,0.908912299880573));
#1324=DIRECTION('',(3.08148791101958E-33,0.422618261740699,0.90630778703665));
#1325=DIRECTION('',(3.08148791101958E-33,0.422618261740699,0.90630778703665));
#1326=DIRECTION('',(-1.98142113518406E-17,-0.90630778703665,0.422618261740699));
#1327=DIRECTION('',(3.08148791101958E-33,0.422618261740699,0.90630778703665));
#1328=DIRECTION('',(1.98142113518406E-17,0.90630778703665,-0.422618261740699));
#1329=DIRECTION('',(1.,0.,0.));
#1330=DIRECTION('',(0.,0.,-1.));
#1331=DIRECTION('',(0.,0.422618261740699,0.90630778703665));
#1332=DIRECTION('',(0.,1.,0.));
#1333=DIRECTION('',(0.,0.,-1.));
#1334=DIRECTION('',(0.,-1.,0.));
#1335=DIRECTION('',(0.,0.,-1.));
#1336=DIRECTION('',(0.,-1.,0.));
#1337=DIRECTION('',(0.,-1.,0.));
#1338=DIRECTION('',(0.,0.,-1.));
#1339=DIRECTION('',(-1.,0.,0.));
#1340=DIRECTION('',(0.,0.,-1.));
#1341=DIRECTION('',(-1.,0.,0.));
#1342=DIRECTION('',(0.,0.,-1.));
#1343=DIRECTION('',(0.,1.,0.));
#1344=DIRECTION('',(0.,0.,1.));
#1345=DIRECTION('',(0.,0.,-1.));
#1346=DIRECTION('',(0.,1.,0.));
#1347=DIRECTION('',(0.,0.,1.));
#1348=DIRECTION('',(-1.,0.,0.));
#1349=DIRECTION('',(0.,1.,0.));
#1350=DIRECTION('',(0.,0.,1.));
#1351=DIRECTION('',(0.,0.,-1.));
#1352=DIRECTION('',(0.,1.,0.));
#1353=DIRECTION('',(0.,0.,1.));
#1354=DIRECTION('',(-1.,0.,0.));
#1355=DIRECTION('',(0.,-1.,0.));
#1356=DIRECTION('',(0.,0.,-1.));
#1357=DIRECTION('',(-1.,0.,0.));
#1358=DIRECTION('',(0.,0.,-1.));
#1359=DIRECTION('',(-1.,0.,0.));
#1360=DIRECTION('',(0.,0.,-1.));
#1361=DIRECTION('',(0.,-1.,0.));
#1362=DIRECTION('',(0.,0.,-1.));
#1363=DIRECTION('',(0.,0.,1.));
#1364=DIRECTION('',(0.,-1.,0.));
#1365=DIRECTION('',(0.,0.,-1.));
#1366=DIRECTION('',(1.,0.,0.));
#1367=DIRECTION('',(0.,-1.,0.));
#1368=DIRECTION('',(0.,0.,-1.));
#1369=DIRECTION('',(0.,0.,1.));
#1370=DIRECTION('',(0.,-1.,0.));
#1371=DIRECTION('',(0.,0.,-1.));
#1372=DIRECTION('',(1.,0.,0.));
#1373=DIRECTION('',(1.77920356510442E-16,-1.,0.));
#1374=DIRECTION('',(1.,1.77920356510442E-16,0.));
#1375=DIRECTION('',(-1.,-1.77920356510442E-16,0.));
#1376=DIRECTION('',(0.,0.,1.));
#1377=DIRECTION('',(1.,1.77920356510441E-16,4.28435854105814E-16));
#1378=DIRECTION('',(0.,0.,-1.));
#1379=DIRECTION('',(1.98142113518406E-17,0.90630778703665,-0.422618261740699));
#1380=DIRECTION('',(-1.,1.79577740421631E-17,-8.37384755927769E-18));
#1381=DIRECTION('',(-1.09990968288013E-33,0.422618261740699,0.90630778703665));
#1382=DIRECTION('',(1.98142113518406E-17,0.90630778703665,-0.422618261740699));
#1383=DIRECTION('',(0.,0.422618261740699,0.90630778703665));
#1384=DIRECTION('',(1.,2.56119072404621E-17,1.01809330594263E-16));
#1385=DIRECTION('',(1.98142113518406E-17,0.90630778703665,-0.422618261740699));
#1386=DIRECTION('',(0.,0.422618261740699,0.90630778703665));
#1387=DIRECTION('',(2.19981936576025E-33,0.422618261740699,0.90630778703665));
#1388=DIRECTION('',(1.,-2.18625632872768E-17,0.));
#1389=DIRECTION('',(0.,-0.422618261740699,-0.90630778703665));
#1390=DIRECTION('',(1.,1.77920356510441E-16,4.28435854105814E-16));
#1391=DIRECTION('',(-2.31873430858892E-17,-0.422618261740699,-0.90630778703665));
#1392=DIRECTION('',(-1.,2.18625632872768E-17,0.));
#1393=DIRECTION('',(-2.31873430858892E-17,-0.422618261740699,-0.90630778703665));
#1394=DIRECTION('',(0.,-0.422618261740699,-0.90630778703665));
#1395=DIRECTION('',(1.,-2.18625632872768E-17,0.));
#1396=DIRECTION('',(-1.98142113518406E-17,-0.90630778703665,0.422618261740699));
#1397=DIRECTION('',(1.,-1.79577740421631E-17,8.37384755927769E-18));
#1398=DIRECTION('',(-1.,1.79577740421631E-17,-8.37384755927769E-18));
#1399=DIRECTION('',(1.,-2.18625632872768E-17,0.));
#1400=DIRECTION('',(0.,0.422618261740699,0.90630778703665));
#1401=DIRECTION('',(-1.,1.79577740421631E-17,-8.37384755927769E-18));
#1402=DIRECTION('',(1.,2.56119072404621E-17,1.01809330594263E-16));
#1403=DIRECTION('',(0.,0.422618261740699,0.90630778703665));
#1404=DIRECTION('',(0.,0.,1.));
#1405=DIRECTION('',(1.,0.,0.));
#1406=DIRECTION('',(1.,0.,0.));
#1407=DIRECTION('',(0.,0.,1.));
#1408=DIRECTION('',(1.,0.,0.));
#1409=DIRECTION('',(0.,1.,0.));
#1410=DIRECTION('',(0.,0.,1.));
#1411=DIRECTION('',(1.,0.,0.));
#1412=DIRECTION('',(1.,-2.18625632872768E-17,0.));
#1413=DIRECTION('',(1.79577740421631E-17,1.,0.));
#1414=DIRECTION('',(1.79577740421631E-17,1.,0.));
#1415=DIRECTION('',(1.,2.43942721272306E-16,0.));
#1416=DIRECTION('',(1.,2.43942721272306E-16,0.));
#1417=DIRECTION('',(0.,-1.,0.));
#1418=DIRECTION('',(0.,1.,0.));
#1419=DIRECTION('',(5.48659279189312E-17,1.,0.));
#1420=DIRECTION('',(0.,0.,1.));
#1421=DIRECTION('',(1.,0.,0.));
#1422=DIRECTION('',(0.,0.,1.));
#1423=DIRECTION('',(1.,0.,0.));
#1424=DIRECTION('',(5.48659279189312E-17,1.,0.));
#1425=DIRECTION('',(-1.,-1.77920356510442E-16,0.));
#1426=DIRECTION('',(0.,1.,0.));
#1427=DIRECTION('',(0.,-1.,0.));
#1428=DIRECTION('',(-1.,-2.43942721272306E-16,0.));
#1429=DIRECTION('',(1.,-2.18625632872768E-17,0.));
#1430=DIRECTION('',(0.,0.,1.));
#1431=DIRECTION('',(1.,0.,0.));
#1432=DIRECTION('',(3.04337451925756E-16,1.,0.));
#1433=DIRECTION('',(0.,0.,1.));
#1434=DIRECTION('',(1.,0.,0.));
#1435=DIRECTION('',(-1.,0.,0.));
#1436=DIRECTION('',(5.48659279189312E-17,1.,0.));
#1437=DIRECTION('',(5.48659279189312E-17,1.,0.));
#1438=DIRECTION('',(1.,0.,0.));
#1439=DIRECTION('',(0.,0.,-1.));
#1440=DIRECTION('',(-1.,0.,0.));
#1441=DIRECTION('',(0.,0.,-1.));
#1442=DIRECTION('',(-1.,0.,0.));
#1443=DIRECTION('',(0.,-0.908912299880573,0.416987327296415));
#1444=DIRECTION('',(0.,-0.416987327296415,-0.908912299880573));
#1445=DIRECTION('',(1.,0.,0.));
#1446=DIRECTION('',(-1.22928841917874E-19,0.416987327296415,0.908912299880573));
#1447=DIRECTION('',(-1.,-1.33174982549556E-15,-2.90283113543227E-15));
#1448=DIRECTION('',(1.,0.,0.));
#1449=DIRECTION('',(0.,-0.416987327296415,-0.908912299880573));
#1450=DIRECTION('',(-1.,0.,0.));
#1451=DIRECTION('',(-1.,0.,0.));
#1452=DIRECTION('',(1.,2.56119072404621E-17,1.01809330594263E-16));
#1453=DIRECTION('',(1.,2.56119072404621E-17,1.01809330594263E-16));
#1454=DIRECTION('',(0.,-0.416987327296415,-0.908912299880573));
#1455=DIRECTION('',(1.,0.,0.));
#1456=DIRECTION('',(0.,0.,-1.));
#1457=DIRECTION('',(-1.,0.,0.));
#1458=DIRECTION('',(0.,1.,0.));
#1459=DIRECTION('',(-1.79577740421631E-17,-1.,0.));
#1460=DIRECTION('',(1.,0.,0.));
#1461=DIRECTION('',(0.,1.,0.));
#1462=DIRECTION('',(0.,-0.90630778703665,0.422618261740699));
#1463=DIRECTION('',(2.19981936576025E-33,0.422618261740699,0.90630778703665));
#1464=DIRECTION('',(0.,1.,0.));
#1465=DIRECTION('',(1.77920356510442E-16,-1.,0.));
#1466=DIRECTION('',(1.,1.77920356510442E-16,0.));
#1467=DIRECTION('',(0.,0.,1.));
#1468=DIRECTION('',(0.,0.,-1.));
#1469=DIRECTION('',(-1.,5.48659279189312E-17,0.));
#1470=DIRECTION('',(-5.48659279189312E-17,-1.,0.));
#1471=DIRECTION('',(0.,0.,-1.));
#1472=DIRECTION('',(5.48659279189312E-17,1.,0.));
#1473=DIRECTION('',(-1.,5.48659279189312E-17,0.));
#1474=DIRECTION('',(-5.48659279189312E-17,-1.,0.));
#1475=DIRECTION('',(5.48659279189312E-17,1.,0.));
#1476=DIRECTION('',(0.,0.,-1.));
#1477=DIRECTION('',(0.,0.,1.));
#1478=DIRECTION('',(1.,0.,0.));
#1479=DIRECTION('',(0.,0.,1.));
#1480=DIRECTION('',(1.,0.,0.));
#1481=DIRECTION('',(0.,0.,1.));
#1482=DIRECTION('',(1.,0.,0.));
#1483=DIRECTION('',(1.98142113518406E-17,0.90630778703665,-0.422618261740699));
#1484=DIRECTION('',(-1.,1.79577740421631E-17,-8.37384755927769E-18));
#1485=DIRECTION('',(1.,2.56119072404621E-17,1.01809330594263E-16));
#1486=DIRECTION('',(1.98142113518406E-17,0.90630778703665,-0.422618261740699));
#1487=DIRECTION('',(0.,0.422618261740699,0.90630778703665));
#1488=DIRECTION('',(-1.09990968288013E-33,0.422618261740699,0.90630778703665));
#1489=DIRECTION('',(0.,0.422618261740699,0.90630778703665));
#1490=DIRECTION('',(1.,2.56119072404621E-17,1.01809330594263E-16));
#1491=DIRECTION('',(1.98142113518406E-17,0.90630778703665,-0.422618261740699));
#1492=DIRECTION('',(0.,0.422618261740699,0.90630778703665));
#1493=DIRECTION('',(1.03094648828398E-16,-0.422618261740699,-0.90630778703665));
#1494=DIRECTION('',(0.,0.90630778703665,-0.422618261740699));
#1495=DIRECTION('',(0.,-0.90630778703665,0.422618261740699));
#1496=DIRECTION('',(0.,-0.90630778703665,0.422618261740699));
#1497=DIRECTION('',(1.,-1.79577740421631E-17,8.37384755927769E-18));
#1498=DIRECTION('',(1.79577740421631E-17,1.,0.));
#1499=DIRECTION('',(1.98142113518406E-17,0.90630778703665,-0.422618261740699));
#1500=DIRECTION('',(0.,0.422618261740699,0.90630778703665));
#1501=DIRECTION('',(0.,0.422618261740699,0.90630778703665));
#1502=DIRECTION('',(1.98142113518406E-17,0.90630778703665,-0.422618261740699));
#1503=DIRECTION('',(-1.98142113518406E-17,-0.90630778703665,0.422618261740699));
#1504=DIRECTION('',(0.,0.422618261740699,0.90630778703665));
#1505=DIRECTION('',(1.03094648828398E-16,-0.422618261740699,-0.90630778703665));
#1506=DIRECTION('',(0.,0.90630778703665,-0.422618261740699));
#1507=DIRECTION('',(0.,0.,-1.));
#1508=DIRECTION('',(-1.,0.,0.));
#1509=DIRECTION('',(1.,0.,0.));
#1510=DIRECTION('',(0.,1.,0.));
#1511=DIRECTION('',(0.,-0.90630778703665,0.422618261740699));
#1512=DIRECTION('',(-1.98142113518406E-17,-0.90630778703665,0.422618261740699));
#1513=DIRECTION('',(1.,-1.79577740421631E-17,8.37384755927769E-18));
#1514=DIRECTION('',(0.,0.,1.));
#1515=DIRECTION('',(1.,0.,0.));
#1516=DIRECTION('',(5.48659279189312E-17,1.,0.));
#1517=DIRECTION('',(5.48659279189312E-17,1.,0.));
#1518=DIRECTION('',(1.,0.,0.));
#1519=DIRECTION('',(-1.,5.48659279189312E-17,0.));
#1520=DIRECTION('',(-5.48659279189312E-17,-1.,0.));
#1521=DIRECTION('',(0.,0.,-1.));
#1522=DIRECTION('',(0.,1.,0.));
#1523=DIRECTION('',(-1.,5.48659279189312E-17,0.));
#1524=DIRECTION('',(-5.48659279189312E-17,-1.,0.));
#1525=DIRECTION('',(0.,0.,-1.));
#1526=DIRECTION('',(0.,1.,0.));
#1527=DIRECTION('',(0.,0.,1.));
#1528=DIRECTION('',(1.,0.,0.));
#1529=DIRECTION('',(0.,0.,-1.));
#1530=DIRECTION('',(0.,1.,0.));
#1531=DIRECTION('',(0.,1.,0.));
#1532=DIRECTION('',(0.,1.,0.));
#1533=DIRECTION('',(0.,0.,1.));
#1534=DIRECTION('',(0.,1.,0.));
#1535=DIRECTION('',(0.,0.,-1.));
#1536=DIRECTION('',(-1.,0.,0.));
#1537=DIRECTION('',(0.,1.,0.));
#1538=DIRECTION('',(0.,1.,0.));
#1539=DIRECTION('',(0.,0.,1.));
#1540=DIRECTION('',(0.,1.,0.));
#1541=DIRECTION('',(1.,0.,0.));
#1542=DIRECTION('',(0.,0.,-1.));
#1543=DIRECTION('',(0.,1.,0.));
#1544=DIRECTION('',(0.,1.,0.));
#1545=DIRECTION('',(0.,0.,1.));
#1546=DIRECTION('',(0.,1.,0.));
#1547=DIRECTION('',(0.,0.,-1.));
#1548=DIRECTION('',(-1.,0.,0.));
#1549=DIRECTION('',(0.,1.,0.));
#1550=DIRECTION('',(0.,1.,0.));
#1551=DIRECTION('',(0.,0.,1.));
#1552=DIRECTION('',(-1.,0.,0.));
#1553=DIRECTION('',(0.,0.,1.));
#1554=DIRECTION('',(0.,1.,0.));
#1555=DIRECTION('',(0.,0.,1.));
#1556=DIRECTION('',(0.,0.,-1.));
#1557=DIRECTION('',(1.,0.,0.));
#1558=DIRECTION('',(0.,0.,1.));
#1559=DIRECTION('',(0.,1.,0.));
#1560=DIRECTION('',(0.,0.,1.));
#1561=DIRECTION('',(1.,0.,0.));
#1562=DIRECTION('',(0.,0.,-1.));
#1563=DIRECTION('',(-1.,0.,0.));
#1564=DIRECTION('',(0.,0.,1.));
#1565=DIRECTION('',(0.,0.,-1.));
#1566=DIRECTION('',(0.,1.,0.));
#1567=DIRECTION('',(0.,0.,-1.));
#1568=DIRECTION('',(0.,0.,-1.));
#1569=DIRECTION('',(1.,0.,0.));
#1570=DIRECTION('',(0.,0.,-1.));
#1571=DIRECTION('',(-1.,0.,0.));
#1572=DIRECTION('',(0.,0.,-1.));
#1573=DIRECTION('',(-1.,0.,0.));
#1574=DIRECTION('',(0.,-1.,0.));
#1575=DIRECTION('',(0.,0.,-1.));
#1576=DIRECTION('',(-1.,0.,0.));
#1577=DIRECTION('',(-1.,0.,0.));
#1578=DIRECTION('',(0.,0.,1.));
#1579=DIRECTION('',(0.,-1.,0.));
#1580=DIRECTION('',(0.,0.,-1.));
#1581=DIRECTION('',(-1.,0.,0.));
#1582=DIRECTION('',(0.,0.,-1.));
#1583=DIRECTION('',(0.,0.,1.));
#1584=DIRECTION('',(-1.,3.04337451925756E-16,0.));
#1585=DIRECTION('',(-3.04337451925756E-16,-1.,0.));
#1586=DIRECTION('',(0.,0.,-1.));
#1587=DIRECTION('',(3.04337451925756E-16,1.,0.));
#1588=DIRECTION('',(0.,0.,-1.));
#1589=DIRECTION('',(0.,-1.,0.));
#1590=DIRECTION('',(0.,0.,-1.));
#1591=DIRECTION('',(0.,0.,-1.));
#1592=DIRECTION('',(-1.,0.,0.));
#1593=DIRECTION('',(0.,0.,-1.));
#1594=DIRECTION('',(1.,0.,0.));
#1595=DIRECTION('',(0.,0.,-1.));
#1596=DIRECTION('',(-1.,0.,0.));
#1597=DIRECTION('',(0.,0.,-1.));
#1598=DIRECTION('',(-1.,0.,0.));
#1599=DIRECTION('',(0.,-1.,0.));
#1600=DIRECTION('',(0.,0.,-1.));
#1601=DIRECTION('',(-1.,0.,0.));
#1602=DIRECTION('',(0.,0.,-1.));
#1603=DIRECTION('',(-1.,0.,0.));
#1604=DIRECTION('',(0.,0.,-1.));
#1605=DIRECTION('',(-1.,0.,0.));
#1606=DIRECTION('',(0.,0.,1.));
#1607=DIRECTION('',(1.,0.,0.));
#1608=DIRECTION('',(0.,0.,-1.));
#1609=DIRECTION('',(-1.,0.,0.));
#1610=DIRECTION('',(0.,0.90630778703665,-0.422618261740699));
#1611=DIRECTION('',(0.,0.422618261740699,0.90630778703665));
#1612=DIRECTION('',(0.,-0.90630778703665,0.422618261740699));
#1613=DIRECTION('',(0.,-0.422618261740699,-0.90630778703665));
#1614=DIRECTION('',(0.,0.,1.));
#1615=DIRECTION('',(1.,0.,0.));
#1616=DIRECTION('',(1.,0.,0.));
#1617=DIRECTION('',(0.,0.,-1.));
#1618=DIRECTION('',(0.,0.,-1.));
#1619=DIRECTION('',(1.,0.,0.));
#1620=DIRECTION('',(0.,0.,-1.));
#1621=DIRECTION('',(0.,0.,-1.));
#1622=DIRECTION('',(-1.,0.,0.));
#1623=DIRECTION('',(0.,0.,1.));
#1624=DIRECTION('',(-1.,0.,0.));
#1625=DIRECTION('',(0.,0.,1.));
#1626=DIRECTION('',(0.,0.,-1.));
#1627=DIRECTION('',(-1.,0.,0.));
#1628=DIRECTION('',(0.,0.,1.));
#1629=DIRECTION('',(1.,0.,0.));
#1630=DIRECTION('',(0.,0.,-1.));
#1631=DIRECTION('',(-1.,0.,0.));
#1632=CARTESIAN_POINT('',(0.,0.,0.));
#1633=CARTESIAN_POINT('',(0.0272,0.0162863865114387,-0.00760110889089884));
#1634=CARTESIAN_POINT('',(0.0272,0.0126067768960699,-0.0058852787482316));
#1635=CARTESIAN_POINT('',(0.02720009,0.00558060551743179,-0.0209529518944072));
#1636=CARTESIAN_POINT('',(0.02720009,0.00577413913513804,-0.0205379177118848));
#1637=CARTESIAN_POINT('',(0.0272,0.0126067768960699,-0.0058852787482316));
#1638=CARTESIAN_POINT('',(0.027200045,0.00437521616067304,-0.0235379177118849));
#1639=CARTESIAN_POINT('',(0.0272,0.00437521616067304,-0.0235379177118849));
#1640=CARTESIAN_POINT('',(0.02720009,0.00558060551743179,-0.0241));
#1641=CARTESIAN_POINT('',(0.0272,0.0328281356556427,-0.0241));
#1642=CARTESIAN_POINT('',(0.0272,0.00394060551743179,-0.0241));
#1643=CARTESIAN_POINT('',(0.0272,0.0328281356556427,-0.0241));
#1644=CARTESIAN_POINT('',(0.0272,0.00316108851479248,-0.0240999823145568));
#1645=CARTESIAN_POINT('',(0.0272,-0.000732120567076029,-0.0240999292582273));
#1646=CARTESIAN_POINT('',(0.0272,-0.00462526388466358,-0.0240999292582273));
#1647=CARTESIAN_POINT('',(0.0272,-0.00393901791423561,-0.0226041106507182));
#1648=CARTESIAN_POINT('',(0.0272,-0.00326011116140091,-0.0211242894241974));
#1649=CARTESIAN_POINT('',(0.0272,0.00541069306699887,-0.00252968975001045));
#1650=CARTESIAN_POINT('',(0.0272,-0.00325287662124654,-0.0211086457137354));
#1651=CARTESIAN_POINT('',(0.0272,0.00541069306699887,-0.00252968975001045));
#1652=CARTESIAN_POINT('',(0.0272,0.0128065126474611,0.0133306965231309));
#1653=CARTESIAN_POINT('',(0.0272,0.0236822060919009,0.00825927738224253));
#1654=CARTESIAN_POINT('',(0.0272,0.0212079858332909,0.00941302523679464));
#1655=CARTESIAN_POINT('',(0.0272,0.0138121662528286,-0.00644736103634673));
#1656=CARTESIAN_POINT('',(0.02720009,0.00697952849189678,-0.0211));
#1657=CARTESIAN_POINT('',(0.0272,0.00577413913513804,-0.0205379177118848));
#1658=CARTESIAN_POINT('',(-0.0165822895441454,0.010732979832038,-0.0091));
#1659=CARTESIAN_POINT('',(-0.0165822895441454,0.0131168278850757,-0.00793851897808876));
#1660=CARTESIAN_POINT('',(-0.0165822895441454,0.00697952849189678,-0.0211));
#1661=CARTESIAN_POINT('',(-0.0165822895441454,0.0125752203897568,-0.0091));
#1662=CARTESIAN_POINT('',(-0.0165822895441454,0.00843060551743179,-0.0211));
#1663=CARTESIAN_POINT('',(-0.0165822895441454,0.0112806055174318,-0.0211));
#1664=CARTESIAN_POINT('',(-0.0165822895441454,0.0112806055174318,-0.0211));
#1665=CARTESIAN_POINT('',(-0.0165822895441454,0.0112806055174318,-0.0241));
#1666=CARTESIAN_POINT('',(-0.0165822895441454,0.010732979832038,-0.0241));
#1667=CARTESIAN_POINT('',(-0.0165822895441454,0.0158853541466442,-0.0241));
#1668=CARTESIAN_POINT('',(-0.0165822895441454,0.0158853541466442,-0.0091));
#1669=CARTESIAN_POINT('',(-0.0165822895441454,0.0158853541466442,-0.0091));
#1670=CARTESIAN_POINT('',(-0.0165822895441454,0.010732979832038,-0.0091));
#1671=CARTESIAN_POINT('',(0.,0.0718281356556428,-0.0061));
#1672=CARTESIAN_POINT('',(0.,0.0718281356556428,-0.0241));
#1673=CARTESIAN_POINT('',(0.0145,0.0718281356556428,-0.0241));
#1674=CARTESIAN_POINT('',(-0.0145,0.0718281356556428,-0.0241));
#1675=CARTESIAN_POINT('',(-0.0145,0.0718281356556428,-0.0061));
#1676=CARTESIAN_POINT('',(-0.0145,0.0718281356556428,-0.0061));
#1677=CARTESIAN_POINT('',(0.,0.0718281356556428,-0.0061));
#1678=CARTESIAN_POINT('',(0.0145,0.0718281356556428,-0.0061));
#1679=CARTESIAN_POINT('',(0.0145,0.0718281356556428,-0.0061));
#1680=CARTESIAN_POINT('',(-0.004,0.0718281356556428,-0.01185));
#1681=CARTESIAN_POINT('',(-0.005,0.0718281356556428,-0.01185));
#1682=CARTESIAN_POINT('',(-0.004,0.0718281356556428,-0.01085));
#1683=CARTESIAN_POINT('',(-0.005,0.0718281356556428,-0.0131));
#1684=CARTESIAN_POINT('',(-0.005,0.0718281356556428,-0.01435));
#1685=CARTESIAN_POINT('',(-0.004,0.0718281356556428,-0.01435));
#1686=CARTESIAN_POINT('',(-0.004,0.0718281356556428,-0.01535));
#1687=CARTESIAN_POINT('',(-1.7347234759768E-18,0.0718281356556428,-0.01535));
#1688=CARTESIAN_POINT('',(0.004,0.0718281356556428,-0.01535));
#1689=CARTESIAN_POINT('',(0.004,0.0718281356556428,-0.01435));
#1690=CARTESIAN_POINT('',(0.005,0.0718281356556428,-0.01435));
#1691=CARTESIAN_POINT('',(0.005,0.0718281356556428,-0.0131));
#1692=CARTESIAN_POINT('',(0.005,0.0718281356556428,-0.01185));
#1693=CARTESIAN_POINT('',(0.004,0.0718281356556428,-0.01185));
#1694=CARTESIAN_POINT('',(0.004,0.0718281356556428,-0.01085));
#1695=CARTESIAN_POINT('',(-2.60208521396521E-18,0.0718281356556428,-0.01085));
#1696=CARTESIAN_POINT('',(0.,0.0688281356556428,-0.0061));
#1697=CARTESIAN_POINT('',(0.,0.0688281356556428,-0.0241));
#1698=CARTESIAN_POINT('',(0.0165,0.0688281356556428,-0.0241));
#1699=CARTESIAN_POINT('',(-0.0165,0.0688281356556428,-0.0241));
#1700=CARTESIAN_POINT('',(0.0165,0.0688281356556428,-0.0061));
#1701=CARTESIAN_POINT('',(0.0165,0.0688281356556428,-0.0091));
#1702=CARTESIAN_POINT('',(0.,0.0688281356556428,-0.0091));
#1703=CARTESIAN_POINT('',(-0.0165,0.0688281356556428,-0.0091));
#1704=CARTESIAN_POINT('',(-0.0165,0.0688281356556428,-0.0061));
#1705=CARTESIAN_POINT('',(-0.004,0.0688281356556428,-0.01435));
#1706=CARTESIAN_POINT('',(-0.005,0.0688281356556428,-0.01435));
#1707=CARTESIAN_POINT('',(-0.004,0.0688281356556428,-0.01535));
#1708=CARTESIAN_POINT('',(-0.005,0.0688281356556428,-0.0061));
#1709=CARTESIAN_POINT('',(-0.005,0.0688281356556428,-0.01185));
#1710=CARTESIAN_POINT('',(-0.004,0.0688281356556428,-0.01185));
#1711=CARTESIAN_POINT('',(-0.004,0.0688281356556428,-0.01085));
#1712=CARTESIAN_POINT('',(0.,0.0688281356556428,-0.01085));
#1713=CARTESIAN_POINT('',(0.004,0.0688281356556428,-0.01085));
#1714=CARTESIAN_POINT('',(0.004,0.0688281356556428,-0.01185));
#1715=CARTESIAN_POINT('',(0.005,0.0688281356556428,-0.01185));
#1716=CARTESIAN_POINT('',(0.005,0.0688281356556428,-0.0061));
#1717=CARTESIAN_POINT('',(0.005,0.0688281356556428,-0.01435));
#1718=CARTESIAN_POINT('',(0.004,0.0688281356556428,-0.01435));
#1719=CARTESIAN_POINT('',(0.004,0.0688281356556428,-0.01535));
#1720=CARTESIAN_POINT('',(0.,0.0688281356556428,-0.01535));
#1721=CARTESIAN_POINT('',(0.,0.00859313565564275,-0.0061));
#1722=CARTESIAN_POINT('',(0.,0.00859313565564275,-0.0241));
#1723=CARTESIAN_POINT('',(-0.0165822895441454,0.00859313565564275,-0.0241));
#1724=CARTESIAN_POINT('',(-0.0195,0.00859313565564275,-0.0241));
#1725=CARTESIAN_POINT('',(-0.0165822895441454,0.00859313565564275,-0.0061));
#1726=CARTESIAN_POINT('',(-0.0165822895441454,0.00859313565564275,-0.0240993385923693));
#1727=CARTESIAN_POINT('',(7.71156200316148E-18,0.00859313565564275,-0.0240993385923693));
#1728=CARTESIAN_POINT('',(-0.0195,0.00859313565564275,-0.0240993385923693));
#1729=CARTESIAN_POINT('',(-0.0195,0.00859313565564275,-0.0061));
#1730=CARTESIAN_POINT('',(-0.000300000000000009,0.0162863865114387,-0.00760110889089885));
#1731=CARTESIAN_POINT('',(-0.0308,0.0162863865114387,-0.00760110889089885));
#1732=CARTESIAN_POINT('',(-0.0308,0.00859282723619939,-0.0241));
#1733=CARTESIAN_POINT('',(-0.0308,0.0228369695684195,0.00644666180816923));
#1734=CARTESIAN_POINT('',(-0.0258,0.0228369695684195,0.00644666180816923));
#1735=CARTESIAN_POINT('',(-0.0258,0.024950060877123,0.0109782007433525));
#1736=CARTESIAN_POINT('',(-0.000300000000000022,0.024950060877123,0.0109782007433525));
#1737=CARTESIAN_POINT('',(0.0252,0.024950060877123,0.0109782007433525));
#1738=CARTESIAN_POINT('',(0.0252,0.0228369695684195,0.00644666180816923));
#1739=CARTESIAN_POINT('',(0.0302,0.0228369695684195,0.00644666180816924));
#1740=CARTESIAN_POINT('',(0.0302,0.0162863865114387,-0.00760110889089884));
#1741=CARTESIAN_POINT('',(0.0302,0.00859282723619939,-0.0241));
#1742=CARTESIAN_POINT('',(-0.000300000000000009,0.00859282723619939,-0.0241));
#1743=CARTESIAN_POINT('',(0.0165,0.00859282723619939,-0.0241));
#1744=CARTESIAN_POINT('',(0.0165,0.0162863865114387,-0.00760110889089885));
#1745=CARTESIAN_POINT('',(0.0165,0.00859313565564275,-0.0240993385923693));
#1746=CARTESIAN_POINT('',(7.71156200316148E-18,0.00859313565564275,-0.0240993385923693));
#1747=CARTESIAN_POINT('',(0.0195,0.00859313565564275,-0.0240993385923693));
#1748=CARTESIAN_POINT('',(0.0195,0.0211343636852614,0.00279541170883636));
#1749=CARTESIAN_POINT('',(0.0195,0.0169863650829893,-0.0061));
#1750=CARTESIAN_POINT('',(-3.46341711727154E-19,0.0169863650829893,-0.0061));
#1751=CARTESIAN_POINT('',(-0.0195,0.0169863650829893,-0.0061));
#1752=CARTESIAN_POINT('',(-0.0195,0.0211343636852614,0.00279541170883636));
#1753=CARTESIAN_POINT('',(-0.0165822895441454,0.0162863865114387,-0.00760110889089885));
#1754=CARTESIAN_POINT('',(-0.0165822895441454,0.00859282723619939,-0.0241));
#1755=CARTESIAN_POINT('',(-0.000300000000000009,0.00859282723619939,-0.0241));
#1756=CARTESIAN_POINT('',(-0.000300000000000022,0.0131168278850757,-0.00793851897808876));
#1757=CARTESIAN_POINT('',(-0.0221911447720727,0.00697952849189678,-0.0211));
#1758=CARTESIAN_POINT('',(-0.0278000847720727,0.00697952849189678,-0.0211));
#1759=CARTESIAN_POINT('',(-0.000300000000000022,0.0125752203897568,-0.0091));
#1760=CARTESIAN_POINT('',(0.0165,0.0125752203897568,-0.0091));
#1761=CARTESIAN_POINT('',(0.0165,0.0131168278850757,-0.00793851897808876));
#1762=CARTESIAN_POINT('',(0.0165,0.00697952849189679,-0.0211));
#1763=CARTESIAN_POINT('',(0.02185,0.00697952849189678,-0.0211));
#1764=CARTESIAN_POINT('',(-0.000300000000000022,0.0212079858332909,0.00941302523679464));
#1765=CARTESIAN_POINT('',(-0.0278,0.0212079858332909,0.00941302523679463));
#1766=CARTESIAN_POINT('',(-0.0278,0.0138121662528286,-0.00644736103634674));
#1767=CARTESIAN_POINT('',(0.,0.0328281356556427,-0.0241));
#1768=CARTESIAN_POINT('',(-0.0137322895441453,0.0112806055174318,-0.0241));
#1769=CARTESIAN_POINT('',(-0.0128822895441453,0.0112806055174318,-0.0241));
#1770=CARTESIAN_POINT('',(-0.0128822895441453,0.00928060551743179,-0.0241));
#1771=CARTESIAN_POINT('',(-0.0108822895441453,0.00928060551743179,-0.0241));
#1772=CARTESIAN_POINT('',(-0.0108822895441453,0.00843060551743179,-0.0241));
#1773=CARTESIAN_POINT('',(-0.0108822895441453,0.00758060551743179,-0.0241));
#1774=CARTESIAN_POINT('',(-0.0128822895441453,0.00758060551743179,-0.0241));
#1775=CARTESIAN_POINT('',(-0.0128822895441453,0.00558060551743179,-0.0241));
#1776=CARTESIAN_POINT('',(-5.95700852068619E-19,0.00558060551743179,-0.0241));
#1777=CARTESIAN_POINT('',(-0.0278000847720727,0.00558060551743179,-0.0241));
#1778=CARTESIAN_POINT('',(-0.0278,0.0328281356556427,-0.0241));
#1779=CARTESIAN_POINT('',(-0.0278,0.00358060551743179,-0.0241));
#1780=CARTESIAN_POINT('',(-0.0278,0.0328281356556427,-0.0241));
#1781=CARTESIAN_POINT('',(-0.0278,0.00316108851479247,-0.0240999823145568));
#1782=CARTESIAN_POINT('',(-0.000300000000000021,0.00316108851479248,-0.0240999292582273));
#1783=CARTESIAN_POINT('',(-0.0305,0.00316111041289288,-0.0240999748403656));
#1784=CARTESIAN_POINT('',(-0.000300000000000021,0.00316108851479248,-0.0240999292582273));
#1785=CARTESIAN_POINT('',(-0.0308,0.00316109649568426,-0.0240999583318185));
#1786=CARTESIAN_POINT('',(-0.0308,-0.000732120567076038,-0.0241));
#1787=CARTESIAN_POINT('',(-0.0165822895441454,0.00843060551743179,-0.0241));
#1788=CARTESIAN_POINT('',(-0.0195,0.0402106356556427,-0.0241));
#1789=CARTESIAN_POINT('',(-0.0195,0.0668281356556428,-0.0241));
#1790=CARTESIAN_POINT('',(-0.0145,0.0668281356556428,-0.0241));
#1791=CARTESIAN_POINT('',(0.0145,0.0668281356556428,-0.0241));
#1792=CARTESIAN_POINT('',(0.0195,0.0668281356556428,-0.0241));
#1793=CARTESIAN_POINT('',(0.0195,0.0402106356556427,-0.0241));
#1794=CARTESIAN_POINT('',(0.0195,0.00859313565564275,-0.0241));
#1795=CARTESIAN_POINT('',(0.,0.00859313565564275,-0.0241));
#1796=CARTESIAN_POINT('',(0.0165,0.00859313565564275,-0.0241));
#1797=CARTESIAN_POINT('',(0.0165,0.00843060551743179,-0.0241));
#1798=CARTESIAN_POINT('',(0.0302,-0.000732120567076038,-0.0241));
#1799=CARTESIAN_POINT('',(0.0302,0.00316109649568427,-0.0240999583318185));
#1800=CARTESIAN_POINT('',(-0.000300000000000021,0.00316108851479248,-0.0240999292582273));
#1801=CARTESIAN_POINT('',(-5.95700852068619E-19,0.00558060551743179,-0.0241));
#1802=CARTESIAN_POINT('',(0.0128,0.00558060551743179,-0.0241));
#1803=CARTESIAN_POINT('',(0.0128,0.00758060551743179,-0.0241));
#1804=CARTESIAN_POINT('',(0.0108,0.00758060551743179,-0.0241));
#1805=CARTESIAN_POINT('',(0.0108,0.00843060551743179,-0.0241));
#1806=CARTESIAN_POINT('',(0.0108,0.00928060551743179,-0.0241));
#1807=CARTESIAN_POINT('',(0.0128,0.00928060551743179,-0.0241));
#1808=CARTESIAN_POINT('',(0.0128,0.0112806055174318,-0.0241));
#1809=CARTESIAN_POINT('',(0.01365,0.0112806055174318,-0.0241));
#1810=CARTESIAN_POINT('',(0.0165,0.0112806055174318,-0.0241));
#1811=CARTESIAN_POINT('',(0.0165,0.0402106356556427,-0.0241));
#1812=CARTESIAN_POINT('',(-0.0165,0.0402106356556427,-0.0241));
#1813=CARTESIAN_POINT('',(-0.0165,0.0158853541466442,-0.0241));
#1814=CARTESIAN_POINT('',(3.46944695195361E-18,0.0158853541466442,-0.0241));
#1815=CARTESIAN_POINT('',(-0.0137322895441453,0.00843060551743179,-0.0241));
#1816=CARTESIAN_POINT('',(-0.0154822895441453,0.00843060551743179,-0.0241));
#1817=CARTESIAN_POINT('',(0.01365,0.00843060551743179,-0.0241));
#1818=CARTESIAN_POINT('',(0.0119,0.00843060551743179,-0.0241));
#1819=CARTESIAN_POINT('',(-0.0308,-0.00393901791423561,-0.0226041106507182));
#1820=CARTESIAN_POINT('',(-0.0308,-0.0046252638846636,-0.0240999292582273));
#1821=CARTESIAN_POINT('',(-0.0305,-0.0046252638846636,-0.0240999292582273));
#1822=CARTESIAN_POINT('',(-0.0278,-0.00462526388466357,-0.0240999292582273));
#1823=CARTESIAN_POINT('',(-0.0278,-0.00393901791423561,-0.0226041106507182));
#1824=CARTESIAN_POINT('',(-0.0278,-0.0032601111614009,-0.0211242894241974));
#1825=CARTESIAN_POINT('',(-0.0308,-0.00326011116140095,-0.0211242894241975));
#1826=CARTESIAN_POINT('',(-0.0308,-0.0046252638846636,-0.0240999292582273));
#1827=CARTESIAN_POINT('',(0.0302,-0.0046252638846636,-0.0240999292582273));
#1828=CARTESIAN_POINT('',(0.0302,-0.00393901791423561,-0.0226041106507182));
#1829=CARTESIAN_POINT('',(0.0302,-0.00325287662124654,-0.0211086457137354));
#1830=CARTESIAN_POINT('',(0.0302,-0.00325277194380761,-0.0211082920432091));
#1831=CARTESIAN_POINT('',(0.0302,-0.00325277194380761,-0.0211082920432091));
#1832=CARTESIAN_POINT('',(2.36491598873275E-18,-0.00325292895996601,-0.0211088225489986));
#1833=CARTESIAN_POINT('',(-0.000300000000000022,-0.00325298129868546,-0.0211089993842618));
#1834=CARTESIAN_POINT('',(-0.0278,-0.00325287662124654,-0.0211086457137354));
#1835=CARTESIAN_POINT('',(-0.000300000000000022,-0.00325298129868546,-0.0211089993842618));
#1836=CARTESIAN_POINT('',(-0.0308,-0.00325287662124654,-0.0211086457137354));
#1837=CARTESIAN_POINT('',(-0.0308,-0.00393901791423561,-0.0226041106507182));
#1838=CARTESIAN_POINT('',(-0.0308,-0.0046252638846636,-0.0240999292582273));
#1839=CARTESIAN_POINT('',(-0.0308,-0.0046252638846636,-0.0240999292582273));
#1840=CARTESIAN_POINT('',(-0.0308,-0.000732120567076028,-0.0240999292582273));
#1841=CARTESIAN_POINT('',(-0.0308,-0.000732120567076028,-0.0240999292582273));
#1842=CARTESIAN_POINT('',(-0.0278,-0.000732120567076028,-0.0240999292582273));
#1843=CARTESIAN_POINT('',(0.0302,-0.000732120567076038,-0.0226041106507182));
#1844=CARTESIAN_POINT('',(0.0302,0.0119612761239797,0.0115180809490576));
#1845=CARTESIAN_POINT('',(0.0302,0.0119612761239797,0.0115180809490576));
#1846=CARTESIAN_POINT('',(0.0302,0.00541069306699887,-0.00252968975001045));
#1847=CARTESIAN_POINT('',(0.0302,-0.000732120567076028,-0.0240999292582273));
#1848=CARTESIAN_POINT('',(0.,0.00859313565564275,-0.0061));
#1849=CARTESIAN_POINT('',(0.0165,0.00859313565564275,-0.0061));
#1850=CARTESIAN_POINT('',(0.0195,0.00859313565564275,-0.0061));
#1851=CARTESIAN_POINT('',(0.0195,0.0402106356556427,-0.0061));
#1852=CARTESIAN_POINT('',(0.0195,0.0668281356556428,-0.0061));
#1853=CARTESIAN_POINT('',(0.0195,0.0668281356556428,-0.0061));
#1854=CARTESIAN_POINT('',(0.0195,0.0402106356556427,-0.0061));
#1855=CARTESIAN_POINT('',(-0.0195,0.0402106356556427,-0.0061));
#1856=CARTESIAN_POINT('',(-0.0195,0.0402106356556427,-0.0061));
#1857=CARTESIAN_POINT('',(-0.0195,0.0668281356556428,-0.0061));
#1858=CARTESIAN_POINT('',(-0.0195,0.0668281356556428,-0.0241));
#1859=CARTESIAN_POINT('',(0.,0.0328281356556427,-0.0061));
#1860=CARTESIAN_POINT('',(-0.0145,0.0668281356556428,-0.0061));
#1861=CARTESIAN_POINT('',(0.0145,0.0668281356556428,-0.0061));
#1862=CARTESIAN_POINT('',(-0.000300000000000009,0.00541069306699887,-0.00252968975001046));
#1863=CARTESIAN_POINT('',(-0.000300000000000022,0.0140743674326832,0.0160496198842409));
#1864=CARTESIAN_POINT('',(-0.0258,0.0140743674326832,0.0160496198842409));
#1865=CARTESIAN_POINT('',(0.0252,0.0140743674326832,0.0160496198842409));
#1866=CARTESIAN_POINT('',(-0.0258,0.0119612761239797,0.0115180809490576));
#1867=CARTESIAN_POINT('',(-0.0308,0.0119612761239797,0.0115180809490576));
#1868=CARTESIAN_POINT('',(-0.0308,0.00541069306699887,-0.00252968975001046));
#1869=CARTESIAN_POINT('',(-0.0278,0.00541069306699887,-0.00252968975001046));
#1870=CARTESIAN_POINT('',(-0.0278,0.0128065126474611,0.0133306965231309));
#1871=CARTESIAN_POINT('',(-0.000300000000000022,0.0128065126474611,0.0133306965231309));
#1872=CARTESIAN_POINT('',(0.0252,0.0119612761239797,0.0115180809490576));
#1873=CARTESIAN_POINT('',(-0.000300000000000022,0.024950060877123,0.0109782007433525));
#1874=CARTESIAN_POINT('',(-0.0258,0.024950060877123,0.0109782007433525));
#1875=CARTESIAN_POINT('',(0.0252,0.024950060877123,0.0109782007433525));
#1876=CARTESIAN_POINT('',(-0.0278,0.0162863865114387,-0.00760110889089885));
#1877=CARTESIAN_POINT('',(-0.0278,0.00437521616067304,-0.0235379177118849));
#1878=CARTESIAN_POINT('',(-0.0278000423860364,0.00437521616067304,-0.0235379177118849));
#1879=CARTESIAN_POINT('',(-0.0278,0.0126067768960699,-0.00588527874823161));
#1880=CARTESIAN_POINT('',(-0.0278000847720727,0.00558060551743179,-0.0209529455156464));
#1881=CARTESIAN_POINT('',(-0.0278,0.0126067768960699,-0.00588527874823161));
#1882=CARTESIAN_POINT('',(-0.0278000847720727,0.00577413913513804,-0.0205379177118848));
#1883=CARTESIAN_POINT('',(-0.0278,0.00577413913513804,-0.0205379177118848));
#1884=CARTESIAN_POINT('',(-0.0278,0.0236822060919009,0.00825927738224253));
#1885=CARTESIAN_POINT('',(-0.0278,0.00541069306699887,-0.00252968975001046));
#1886=CARTESIAN_POINT('',(-0.000300000000000022,0.0236822060919009,0.00825927738224253));
#1887=CARTESIAN_POINT('',(-0.0308,-0.000732120567076028,-0.0240999292582273));
#1888=CARTESIAN_POINT('',(-0.0308,-0.000732120567076038,-0.0226041106507182));
#1889=CARTESIAN_POINT('',(-0.0308,0.0146045563505531,0.0102854991367568));
#1890=CARTESIAN_POINT('',(-0.000300000000000022,0.00471535469924592,-0.00402084769175248));
#1891=CARTESIAN_POINT('',(0.,0.0328281356556427,-0.0091));
#1892=CARTESIAN_POINT('',(-0.0165,0.0402106356556427,-0.0091));
#1893=CARTESIAN_POINT('',(-0.0165,0.0158853541466442,-0.0091));
#1894=CARTESIAN_POINT('',(0.0165,0.0402106356556427,-0.0091));
#1895=CARTESIAN_POINT('',(3.46944695195361E-18,0.0158853541466442,-0.0091));
#1896=CARTESIAN_POINT('',(0.0165,0.0402106356556427,-0.0061));
#1897=CARTESIAN_POINT('',(0.0165,0.0112806055174318,-0.0211));
#1898=CARTESIAN_POINT('',(0.0165,0.0112806055174318,-0.0211));
#1899=CARTESIAN_POINT('',(0.0165,0.00843060551743179,-0.0211));
#1900=CARTESIAN_POINT('',(-0.0165,0.0402106356556427,-0.0061));
#1901=CARTESIAN_POINT('',(-0.0165,0.0158853541466442,-0.0061));
#1902=CARTESIAN_POINT('',(3.46944695195361E-18,0.0158853541466442,-0.0091));
#1903=CARTESIAN_POINT('',(-0.005,0.0668281356556428,-0.0131));
#1904=CARTESIAN_POINT('',(-0.005,0.0668281356556428,-0.01435));
#1905=CARTESIAN_POINT('',(-0.005,0.0668281356556428,-0.01185));
#1906=CARTESIAN_POINT('',(-0.004,0.0668281356556428,-0.01185));
#1907=CARTESIAN_POINT('',(-0.004,0.0668281356556428,-0.01085));
#1908=CARTESIAN_POINT('',(-2.60208521396521E-18,0.0668281356556428,-0.01085));
#1909=CARTESIAN_POINT('',(0.004,0.0668281356556428,-0.01085));
#1910=CARTESIAN_POINT('',(0.004,0.0668281356556428,-0.01185));
#1911=CARTESIAN_POINT('',(0.005,0.0668281356556428,-0.01185));
#1912=CARTESIAN_POINT('',(0.005,0.0668281356556428,-0.0131));
#1913=CARTESIAN_POINT('',(0.005,0.0668281356556428,-0.01435));
#1914=CARTESIAN_POINT('',(0.004,0.0668281356556428,-0.01435));
#1915=CARTESIAN_POINT('',(0.004,0.0668281356556428,-0.01535));
#1916=CARTESIAN_POINT('',(-1.7347234759768E-18,0.0668281356556428,-0.01535));
#1917=CARTESIAN_POINT('',(-0.004,0.0668281356556428,-0.01535));
#1918=CARTESIAN_POINT('',(-0.004,0.0668281356556428,-0.01435));
#1919=CARTESIAN_POINT('',(-0.0165822895441454,0.00843060551743179,-0.0211));
#1920=CARTESIAN_POINT('',(-0.0137322895441453,0.00558060551743179,-0.0211));
#1921=CARTESIAN_POINT('',(-0.0128822895441453,0.00558060551743179,-0.0211));
#1922=CARTESIAN_POINT('',(-0.0128822895441453,0.00558060551743179,-0.0211));
#1923=CARTESIAN_POINT('',(-0.0137322895441453,0.00558060551743179,-0.0211));
#1924=CARTESIAN_POINT('',(-0.0278000847720727,0.00558060551743179,-0.0211));
#1925=CARTESIAN_POINT('',(-0.0278000847720727,0.00558060551743179,-0.0225264727578232));
#1926=CARTESIAN_POINT('',(-0.0137322895441453,0.0112806055174318,-0.0211));
#1927=CARTESIAN_POINT('',(-0.0137322895441453,0.0112806055174318,-0.0211));
#1928=CARTESIAN_POINT('',(-0.0128822895441453,0.0112806055174318,-0.0211));
#1929=CARTESIAN_POINT('',(-0.0128822895441453,0.0112806055174318,-0.0241));
#1930=CARTESIAN_POINT('',(-0.0108822895441453,0.00843060551743179,-0.0211));
#1931=CARTESIAN_POINT('',(-0.0108822895441453,0.00928060551743179,-0.0211));
#1932=CARTESIAN_POINT('',(-0.0108822895441453,0.00928060551743179,-0.0211));
#1933=CARTESIAN_POINT('',(-0.0108822895441453,0.00843060551743179,-0.0211));
#1934=CARTESIAN_POINT('',(-0.0108822895441453,0.00758060551743179,-0.0211));
#1935=CARTESIAN_POINT('',(-0.0108822895441453,0.00758060551743179,-0.0211));
#1936=CARTESIAN_POINT('',(3.46944695195361E-18,0.0387043705865373,-0.0211));
#1937=CARTESIAN_POINT('',(-0.0137322895441453,0.00843060551743179,-0.0211));
#1938=CARTESIAN_POINT('',(-0.0154822895441453,0.00843060551743179,-0.0211));
#1939=CARTESIAN_POINT('',(-0.0128822895441453,0.00928060551743179,-0.0211));
#1940=CARTESIAN_POINT('',(-0.0278001695441453,0.00628006849189678,-0.0211));
#1941=CARTESIAN_POINT('',(-0.0128822895441453,0.00758060551743179,-0.0211));
#1942=CARTESIAN_POINT('',(0.0165,0.00843060551743179,-0.0211));
#1943=CARTESIAN_POINT('',(0.01365,0.00558060551743179,-0.0211));
#1944=CARTESIAN_POINT('',(0.01365,0.00558060551743179,-0.0211));
#1945=CARTESIAN_POINT('',(0.02720009,0.00558060551743179,-0.0211));
#1946=CARTESIAN_POINT('',(0.0128,0.00558060551743179,-0.0211));
#1947=CARTESIAN_POINT('',(0.0128,0.00558060551743179,-0.0211));
#1948=CARTESIAN_POINT('',(0.02720009,0.00558060551743179,-0.0225264759472036));
#1949=CARTESIAN_POINT('',(0.0108,0.00843060551743179,-0.0211));
#1950=CARTESIAN_POINT('',(0.0108,0.00758060551743179,-0.0211));
#1951=CARTESIAN_POINT('',(0.0108,0.00758060551743179,-0.0211));
#1952=CARTESIAN_POINT('',(0.0108,0.00843060551743179,-0.0211));
#1953=CARTESIAN_POINT('',(0.0108,0.00928060551743179,-0.0211));
#1954=CARTESIAN_POINT('',(0.0108,0.00928060551743179,-0.0241));
#1955=CARTESIAN_POINT('',(0.01365,0.0112806055174318,-0.0211));
#1956=CARTESIAN_POINT('',(0.0128,0.0112806055174318,-0.0211));
#1957=CARTESIAN_POINT('',(0.0128,0.0112806055174318,-0.0211));
#1958=CARTESIAN_POINT('',(0.01365,0.0112806055174318,-0.0211));
#1959=CARTESIAN_POINT('',(3.46944695195361E-18,0.0387043705865373,-0.0211));
#1960=CARTESIAN_POINT('',(0.01365,0.00843060551743179,-0.0211));
#1961=CARTESIAN_POINT('',(0.0119,0.00843060551743179,-0.0211));
#1962=CARTESIAN_POINT('',(0.0128,0.00758060551743179,-0.0211));
#1963=CARTESIAN_POINT('',(0.02720018,0.00628006700466429,-0.0211));
#1964=CARTESIAN_POINT('',(0.0128,0.00928060551743179,-0.0211));
#1965=CARTESIAN_POINT('',(0.01365,0.00843060551743179,-0.0191));
#1966=CARTESIAN_POINT('',(-0.0137322895441453,0.00843060551743179,-0.0191));
#1967=CARTESIAN_POINT('',(-0.0145,0.0668281356556428,-0.0061));
#1968=CARTESIAN_POINT('',(0.0145,0.0668281356556428,-0.0061));
#1969=CARTESIAN_POINT('',(0.0252,0.0146045563505531,0.0102854991367568));
#1970=CARTESIAN_POINT('',(-0.0258,0.0228369695684195,0.00644666180816923));
#1971=CARTESIAN_POINT('',(0.0128,0.00928060551743179,-0.0211));
#1972=CARTESIAN_POINT('',(-0.0278001695441453,0.00628006849189678,-0.02042));
#1973=CARTESIAN_POINT('',(-0.0278001695441453,0.00558060849189678,-0.02042));
#1974=CARTESIAN_POINT('',(0.02720018,0.00628006700466429,-0.02042));
#1975=CARTESIAN_POINT('',(0.02720018,0.00558060551743179,-0.02042));
#1976=CARTESIAN_POINT('',(0.02720009,0.00394060551743179,-0.0225264759472036));
#1977=CARTESIAN_POINT('',(-0.0278000847720727,0.00358060551743179,-0.0225264727578232));
#1978=CARTESIAN_POINT('',(0.0128,0.00758060551743179,-0.0211));
#1979=CARTESIAN_POINT('',(-0.0128822895441453,0.00928060551743179,-0.0211));
#1980=CARTESIAN_POINT('',(-0.0128822895441453,0.00758060551743179,-0.0211));
#1981=MECHANICAL_DESIGN_GEOMETRIC_PRESENTATION_REPRESENTATION('',(#1215),
#1982);
#1982=(
GEOMETRIC_REPRESENTATION_CONTEXT(3)
GLOBAL_UNCERTAINTY_ASSIGNED_CONTEXT((#1983))
GLOBAL_UNIT_ASSIGNED_CONTEXT((#1986,#1985,#1984))
REPRESENTATION_CONTEXT('Cover','TOP_LEVEL_ASSEMBLY_PART')
);
#1983=UNCERTAINTY_MEASURE_WITH_UNIT(LENGTH_MEASURE(2.11684244228577E-5),
#1986,'DISTANCE_ACCURACY_VALUE','Maximum Tolerance applied to model');
#1984=(
NAMED_UNIT(*)
SI_UNIT($,.STERADIAN.)
SOLID_ANGLE_UNIT()
);
#1985=(
NAMED_UNIT(*)
PLANE_ANGLE_UNIT()
SI_UNIT($,.RADIAN.)
);
#1986=(
LENGTH_UNIT()
NAMED_UNIT(*)
SI_UNIT($,.METRE.)
);
#1987=PRODUCT_DEFINITION_SHAPE('','',#1988);
#1988=PRODUCT_DEFINITION('','',#1990,#1989);
#1989=PRODUCT_DEFINITION_CONTEXT('',#1996,'design');
#1990=PRODUCT_DEFINITION_FORMATION_WITH_SPECIFIED_SOURCE('','',#1992,
 .NOT_KNOWN.);
#1991=PRODUCT_RELATED_PRODUCT_CATEGORY('','',(#1992));
#1992=PRODUCT('Cover','Cover','Cover',(#1994));
#1993=PRODUCT_CATEGORY('','');
#1994=PRODUCT_CONTEXT('',#1996,'mechanical');
#1995=APPLICATION_PROTOCOL_DEFINITION('international standard',
'ap242_managed_model_based_3d_engineering',2020,#1996);
#1996=APPLICATION_CONTEXT('managed model based 3d engineering');
ENDSEC;
END-ISO-10303-21;
