ISO-10303-21;
HEADER;
/* Generated by software containing ST-Developer
 * from STEP Tools, Inc. (www.steptools.com) 
 */
/* OPTION: using custom renumber hook */

FILE_DESCRIPTION(
/* description */ ('STEP AP242 Edition 2',
'CAx-IF Rec.Pracs.---Representation and Presentation of Product Manufa
cturing Information (PMI)---4.0---2014-10-13',
'CAx-IF Rec.Pracs.---3D Tessellated Geometry---0.4---2014-09-14','2;1',
'CAx-IF Rec.Pracs.---User Defined Attributes---1.5---2016-08-15'),
/* implementation_level */ '2;1');

FILE_NAME(
/* name */ 'Part Studio 1 - Bottomplate',
/* time_stamp */ '2026-07-26T11:40:12Z',
/* author */ (''),
/* organization */ (''),
/* preprocessor_version */ 'ST-DEVELOPER v20',
/* originating_system */ 'ONSHAPE BY PTC INC, 1.218',
/* authorisation */ '  ');

FILE_SCHEMA (('AP242_MANAGED_MODEL_BASED_3D_ENGINEERING_MIM_LF { 1 0 10303 442 3 1 4 }'));
ENDSEC;

DATA;
#10=SHAPE_REPRESENTATION_RELATIONSHIP('','',#911,#11);
#11=ADVANCED_BREP_SHAPE_REPRESENTATION('',(#909),#1451);
#12=CYLINDRICAL_SURFACE('',#927,0.00175);
#13=CYLINDRICAL_SURFACE('',#928,0.00175);
#14=CYLINDRICAL_SURFACE('',#929,0.005);
#15=CYLINDRICAL_SURFACE('',#930,0.005);
#16=CYLINDRICAL_SURFACE('',#969,0.005);
#17=CYLINDRICAL_SURFACE('',#970,0.005);
#18=CYLINDRICAL_SURFACE('',#971,0.005);
#19=CYLINDRICAL_SURFACE('',#972,0.005);
#20=CIRCLE('',#916,0.00175);
#21=CIRCLE('',#917,0.00175);
#22=CIRCLE('',#918,0.005);
#23=CIRCLE('',#919,0.005);
#24=CIRCLE('',#923,0.00175);
#25=CIRCLE('',#924,0.00175);
#26=CIRCLE('',#925,0.005);
#27=CIRCLE('',#926,0.005);
#28=CIRCLE('',#932,0.005);
#29=CIRCLE('',#933,0.005);
#30=CIRCLE('',#934,0.005);
#31=CIRCLE('',#935,0.005);
#32=CIRCLE('',#937,0.005);
#33=CIRCLE('',#938,0.005);
#34=CIRCLE('',#939,0.005);
#35=CIRCLE('',#940,0.005);
#36=ORIENTED_EDGE('',*,*,#280,.F.);
#37=ORIENTED_EDGE('',*,*,#281,.T.);
#38=ORIENTED_EDGE('',*,*,#282,.T.);
#39=ORIENTED_EDGE('',*,*,#283,.T.);
#40=ORIENTED_EDGE('',*,*,#284,.F.);
#41=ORIENTED_EDGE('',*,*,#285,.F.);
#42=ORIENTED_EDGE('',*,*,#286,.T.);
#43=ORIENTED_EDGE('',*,*,#287,.T.);
#44=ORIENTED_EDGE('',*,*,#288,.T.);
#45=ORIENTED_EDGE('',*,*,#289,.F.);
#46=ORIENTED_EDGE('',*,*,#290,.T.);
#47=ORIENTED_EDGE('',*,*,#291,.T.);
#48=ORIENTED_EDGE('',*,*,#287,.F.);
#49=ORIENTED_EDGE('',*,*,#292,.T.);
#50=ORIENTED_EDGE('',*,*,#284,.T.);
#51=ORIENTED_EDGE('',*,*,#293,.T.);
#52=ORIENTED_EDGE('',*,*,#294,.T.);
#53=ORIENTED_EDGE('',*,*,#295,.T.);
#54=ORIENTED_EDGE('',*,*,#296,.T.);
#55=ORIENTED_EDGE('',*,*,#285,.T.);
#56=ORIENTED_EDGE('',*,*,#297,.F.);
#57=ORIENTED_EDGE('',*,*,#281,.F.);
#58=ORIENTED_EDGE('',*,*,#298,.T.);
#59=ORIENTED_EDGE('',*,*,#299,.T.);
#60=ORIENTED_EDGE('',*,*,#294,.F.);
#61=ORIENTED_EDGE('',*,*,#300,.T.);
#62=ORIENTED_EDGE('',*,*,#301,.F.);
#63=ORIENTED_EDGE('',*,*,#302,.F.);
#64=ORIENTED_EDGE('',*,*,#289,.T.);
#65=ORIENTED_EDGE('',*,*,#303,.T.);
#66=ORIENTED_EDGE('',*,*,#298,.F.);
#67=ORIENTED_EDGE('',*,*,#304,.T.);
#68=ORIENTED_EDGE('',*,*,#282,.F.);
#69=ORIENTED_EDGE('',*,*,#297,.T.);
#70=ORIENTED_EDGE('',*,*,#291,.F.);
#71=ORIENTED_EDGE('',*,*,#302,.T.);
#72=ORIENTED_EDGE('',*,*,#290,.F.);
#73=ORIENTED_EDGE('',*,*,#301,.T.);
#74=ORIENTED_EDGE('',*,*,#295,.F.);
#75=ORIENTED_EDGE('',*,*,#299,.F.);
#76=ORIENTED_EDGE('',*,*,#303,.F.);
#77=ORIENTED_EDGE('',*,*,#288,.F.);
#78=ORIENTED_EDGE('',*,*,#293,.F.);
#79=ORIENTED_EDGE('',*,*,#283,.F.);
#80=ORIENTED_EDGE('',*,*,#304,.F.);
#81=ORIENTED_EDGE('',*,*,#300,.F.);
#82=ORIENTED_EDGE('',*,*,#305,.F.);
#83=ORIENTED_EDGE('',*,*,#306,.T.);
#84=ORIENTED_EDGE('',*,*,#307,.T.);
#85=ORIENTED_EDGE('',*,*,#308,.F.);
#86=ORIENTED_EDGE('',*,*,#309,.F.);
#87=ORIENTED_EDGE('',*,*,#310,.T.);
#88=ORIENTED_EDGE('',*,*,#311,.T.);
#89=ORIENTED_EDGE('',*,*,#312,.F.);
#90=ORIENTED_EDGE('',*,*,#313,.F.);
#91=ORIENTED_EDGE('',*,*,#314,.T.);
#92=ORIENTED_EDGE('',*,*,#315,.T.);
#93=ORIENTED_EDGE('',*,*,#316,.F.);
#94=ORIENTED_EDGE('',*,*,#317,.F.);
#95=ORIENTED_EDGE('',*,*,#318,.T.);
#96=ORIENTED_EDGE('',*,*,#319,.T.);
#97=ORIENTED_EDGE('',*,*,#320,.F.);
#98=ORIENTED_EDGE('',*,*,#321,.F.);
#99=ORIENTED_EDGE('',*,*,#322,.T.);
#100=ORIENTED_EDGE('',*,*,#323,.T.);
#101=ORIENTED_EDGE('',*,*,#324,.F.);
#102=ORIENTED_EDGE('',*,*,#325,.F.);
#103=ORIENTED_EDGE('',*,*,#326,.T.);
#104=ORIENTED_EDGE('',*,*,#327,.T.);
#105=ORIENTED_EDGE('',*,*,#328,.F.);
#106=ORIENTED_EDGE('',*,*,#329,.T.);
#107=ORIENTED_EDGE('',*,*,#280,.T.);
#108=ORIENTED_EDGE('',*,*,#292,.F.);
#109=ORIENTED_EDGE('',*,*,#286,.F.);
#110=ORIENTED_EDGE('',*,*,#330,.T.);
#111=ORIENTED_EDGE('',*,*,#331,.T.);
#112=ORIENTED_EDGE('',*,*,#332,.T.);
#113=ORIENTED_EDGE('',*,*,#333,.T.);
#114=ORIENTED_EDGE('',*,*,#334,.F.);
#115=ORIENTED_EDGE('',*,*,#335,.T.);
#116=ORIENTED_EDGE('',*,*,#336,.F.);
#117=ORIENTED_EDGE('',*,*,#337,.T.);
#118=ORIENTED_EDGE('',*,*,#338,.F.);
#119=ORIENTED_EDGE('',*,*,#339,.T.);
#120=ORIENTED_EDGE('',*,*,#340,.T.);
#121=ORIENTED_EDGE('',*,*,#341,.F.);
#122=ORIENTED_EDGE('',*,*,#342,.F.);
#123=ORIENTED_EDGE('',*,*,#343,.T.);
#124=ORIENTED_EDGE('',*,*,#344,.T.);
#125=ORIENTED_EDGE('',*,*,#345,.F.);
#126=ORIENTED_EDGE('',*,*,#346,.F.);
#127=ORIENTED_EDGE('',*,*,#347,.T.);
#128=ORIENTED_EDGE('',*,*,#348,.T.);
#129=ORIENTED_EDGE('',*,*,#349,.F.);
#130=ORIENTED_EDGE('',*,*,#350,.F.);
#131=ORIENTED_EDGE('',*,*,#351,.T.);
#132=ORIENTED_EDGE('',*,*,#352,.T.);
#133=ORIENTED_EDGE('',*,*,#353,.F.);
#134=ORIENTED_EDGE('',*,*,#354,.F.);
#135=ORIENTED_EDGE('',*,*,#355,.T.);
#136=ORIENTED_EDGE('',*,*,#356,.T.);
#137=ORIENTED_EDGE('',*,*,#357,.F.);
#138=ORIENTED_EDGE('',*,*,#358,.T.);
#139=ORIENTED_EDGE('',*,*,#359,.T.);
#140=ORIENTED_EDGE('',*,*,#360,.F.);
#141=ORIENTED_EDGE('',*,*,#361,.T.);
#142=ORIENTED_EDGE('',*,*,#362,.F.);
#143=ORIENTED_EDGE('',*,*,#363,.T.);
#144=ORIENTED_EDGE('',*,*,#364,.T.);
#145=ORIENTED_EDGE('',*,*,#365,.T.);
#146=ORIENTED_EDGE('',*,*,#366,.F.);
#147=ORIENTED_EDGE('',*,*,#367,.T.);
#148=ORIENTED_EDGE('',*,*,#368,.T.);
#149=ORIENTED_EDGE('',*,*,#369,.F.);
#150=ORIENTED_EDGE('',*,*,#362,.T.);
#151=ORIENTED_EDGE('',*,*,#370,.T.);
#152=ORIENTED_EDGE('',*,*,#330,.F.);
#153=ORIENTED_EDGE('',*,*,#296,.F.);
#154=ORIENTED_EDGE('',*,*,#329,.F.);
#155=ORIENTED_EDGE('',*,*,#371,.T.);
#156=ORIENTED_EDGE('',*,*,#364,.F.);
#157=ORIENTED_EDGE('',*,*,#372,.T.);
#158=ORIENTED_EDGE('',*,*,#336,.T.);
#159=ORIENTED_EDGE('',*,*,#373,.T.);
#160=ORIENTED_EDGE('',*,*,#334,.T.);
#161=ORIENTED_EDGE('',*,*,#374,.T.);
#162=ORIENTED_EDGE('',*,*,#358,.F.);
#163=ORIENTED_EDGE('',*,*,#375,.T.);
#164=ORIENTED_EDGE('',*,*,#360,.T.);
#165=ORIENTED_EDGE('',*,*,#376,.T.);
#166=ORIENTED_EDGE('',*,*,#332,.F.);
#167=ORIENTED_EDGE('',*,*,#377,.T.);
#168=ORIENTED_EDGE('',*,*,#325,.T.);
#169=ORIENTED_EDGE('',*,*,#378,.T.);
#170=ORIENTED_EDGE('',*,*,#367,.F.);
#171=ORIENTED_EDGE('',*,*,#379,.F.);
#172=ORIENTED_EDGE('',*,*,#379,.T.);
#173=ORIENTED_EDGE('',*,*,#366,.T.);
#174=ORIENTED_EDGE('',*,*,#380,.F.);
#175=ORIENTED_EDGE('',*,*,#326,.F.);
#176=ORIENTED_EDGE('',*,*,#380,.T.);
#177=ORIENTED_EDGE('',*,*,#369,.T.);
#178=ORIENTED_EDGE('',*,*,#381,.F.);
#179=ORIENTED_EDGE('',*,*,#327,.F.);
#180=ORIENTED_EDGE('',*,*,#328,.T.);
#181=ORIENTED_EDGE('',*,*,#381,.T.);
#182=ORIENTED_EDGE('',*,*,#368,.F.);
#183=ORIENTED_EDGE('',*,*,#378,.F.);
#184=ORIENTED_EDGE('',*,*,#382,.T.);
#185=ORIENTED_EDGE('',*,*,#354,.T.);
#186=ORIENTED_EDGE('',*,*,#383,.F.);
#187=ORIENTED_EDGE('',*,*,#322,.F.);
#188=ORIENTED_EDGE('',*,*,#383,.T.);
#189=ORIENTED_EDGE('',*,*,#357,.T.);
#190=ORIENTED_EDGE('',*,*,#384,.F.);
#191=ORIENTED_EDGE('',*,*,#323,.F.);
#192=ORIENTED_EDGE('',*,*,#324,.T.);
#193=ORIENTED_EDGE('',*,*,#384,.T.);
#194=ORIENTED_EDGE('',*,*,#356,.F.);
#195=ORIENTED_EDGE('',*,*,#385,.F.);
#196=ORIENTED_EDGE('',*,*,#321,.T.);
#197=ORIENTED_EDGE('',*,*,#385,.T.);
#198=ORIENTED_EDGE('',*,*,#355,.F.);
#199=ORIENTED_EDGE('',*,*,#382,.F.);
#200=ORIENTED_EDGE('',*,*,#386,.T.);
#201=ORIENTED_EDGE('',*,*,#350,.T.);
#202=ORIENTED_EDGE('',*,*,#387,.F.);
#203=ORIENTED_EDGE('',*,*,#318,.F.);
#204=ORIENTED_EDGE('',*,*,#387,.T.);
#205=ORIENTED_EDGE('',*,*,#353,.T.);
#206=ORIENTED_EDGE('',*,*,#388,.F.);
#207=ORIENTED_EDGE('',*,*,#319,.F.);
#208=ORIENTED_EDGE('',*,*,#320,.T.);
#209=ORIENTED_EDGE('',*,*,#388,.T.);
#210=ORIENTED_EDGE('',*,*,#352,.F.);
#211=ORIENTED_EDGE('',*,*,#389,.F.);
#212=ORIENTED_EDGE('',*,*,#317,.T.);
#213=ORIENTED_EDGE('',*,*,#389,.T.);
#214=ORIENTED_EDGE('',*,*,#351,.F.);
#215=ORIENTED_EDGE('',*,*,#386,.F.);
#216=ORIENTED_EDGE('',*,*,#390,.T.);
#217=ORIENTED_EDGE('',*,*,#346,.T.);
#218=ORIENTED_EDGE('',*,*,#391,.F.);
#219=ORIENTED_EDGE('',*,*,#314,.F.);
#220=ORIENTED_EDGE('',*,*,#391,.T.);
#221=ORIENTED_EDGE('',*,*,#349,.T.);
#222=ORIENTED_EDGE('',*,*,#392,.F.);
#223=ORIENTED_EDGE('',*,*,#315,.F.);
#224=ORIENTED_EDGE('',*,*,#316,.T.);
#225=ORIENTED_EDGE('',*,*,#392,.T.);
#226=ORIENTED_EDGE('',*,*,#348,.F.);
#227=ORIENTED_EDGE('',*,*,#393,.F.);
#228=ORIENTED_EDGE('',*,*,#313,.T.);
#229=ORIENTED_EDGE('',*,*,#393,.T.);
#230=ORIENTED_EDGE('',*,*,#347,.F.);
#231=ORIENTED_EDGE('',*,*,#390,.F.);
#232=ORIENTED_EDGE('',*,*,#394,.T.);
#233=ORIENTED_EDGE('',*,*,#342,.T.);
#234=ORIENTED_EDGE('',*,*,#395,.F.);
#235=ORIENTED_EDGE('',*,*,#310,.F.);
#236=ORIENTED_EDGE('',*,*,#395,.T.);
#237=ORIENTED_EDGE('',*,*,#345,.T.);
#238=ORIENTED_EDGE('',*,*,#396,.F.);
#239=ORIENTED_EDGE('',*,*,#311,.F.);
#240=ORIENTED_EDGE('',*,*,#312,.T.);
#241=ORIENTED_EDGE('',*,*,#396,.T.);
#242=ORIENTED_EDGE('',*,*,#344,.F.);
#243=ORIENTED_EDGE('',*,*,#397,.F.);
#244=ORIENTED_EDGE('',*,*,#309,.T.);
#245=ORIENTED_EDGE('',*,*,#397,.T.);
#246=ORIENTED_EDGE('',*,*,#343,.F.);
#247=ORIENTED_EDGE('',*,*,#394,.F.);
#248=ORIENTED_EDGE('',*,*,#398,.T.);
#249=ORIENTED_EDGE('',*,*,#338,.T.);
#250=ORIENTED_EDGE('',*,*,#399,.F.);
#251=ORIENTED_EDGE('',*,*,#306,.F.);
#252=ORIENTED_EDGE('',*,*,#399,.T.);
#253=ORIENTED_EDGE('',*,*,#341,.T.);
#254=ORIENTED_EDGE('',*,*,#400,.F.);
#255=ORIENTED_EDGE('',*,*,#307,.F.);
#256=ORIENTED_EDGE('',*,*,#308,.T.);
#257=ORIENTED_EDGE('',*,*,#400,.T.);
#258=ORIENTED_EDGE('',*,*,#340,.F.);
#259=ORIENTED_EDGE('',*,*,#401,.F.);
#260=ORIENTED_EDGE('',*,*,#305,.T.);
#261=ORIENTED_EDGE('',*,*,#401,.T.);
#262=ORIENTED_EDGE('',*,*,#339,.F.);
#263=ORIENTED_EDGE('',*,*,#398,.F.);
#264=ORIENTED_EDGE('',*,*,#359,.F.);
#265=ORIENTED_EDGE('',*,*,#374,.F.);
#266=ORIENTED_EDGE('',*,*,#333,.F.);
#267=ORIENTED_EDGE('',*,*,#376,.F.);
#268=ORIENTED_EDGE('',*,*,#361,.F.);
#269=ORIENTED_EDGE('',*,*,#377,.F.);
#270=ORIENTED_EDGE('',*,*,#331,.F.);
#271=ORIENTED_EDGE('',*,*,#370,.F.);
#272=ORIENTED_EDGE('',*,*,#363,.F.);
#273=ORIENTED_EDGE('',*,*,#371,.F.);
#274=ORIENTED_EDGE('',*,*,#337,.F.);
#275=ORIENTED_EDGE('',*,*,#372,.F.);
#276=ORIENTED_EDGE('',*,*,#365,.F.);
#277=ORIENTED_EDGE('',*,*,#373,.F.);
#278=ORIENTED_EDGE('',*,*,#335,.F.);
#279=ORIENTED_EDGE('',*,*,#375,.F.);
#280=EDGE_CURVE('',#402,#403,#484,.T.);
#281=EDGE_CURVE('',#402,#404,#485,.T.);
#282=EDGE_CURVE('',#404,#405,#486,.T.);
#283=EDGE_CURVE('',#405,#406,#487,.F.);
#284=EDGE_CURVE('',#403,#406,#488,.T.);
#285=EDGE_CURVE('',#407,#408,#489,.T.);
#286=EDGE_CURVE('',#407,#409,#490,.T.);
#287=EDGE_CURVE('',#409,#410,#491,.T.);
#288=EDGE_CURVE('',#410,#411,#492,.T.);
#289=EDGE_CURVE('',#408,#411,#493,.T.);
#290=EDGE_CURVE('',#412,#412,#20,.T.);
#291=EDGE_CURVE('',#413,#413,#21,.T.);
#292=EDGE_CURVE('',#409,#403,#494,.T.);
#293=EDGE_CURVE('',#406,#414,#22,.T.);
#294=EDGE_CURVE('',#414,#415,#495,.T.);
#295=EDGE_CURVE('',#415,#410,#23,.T.);
#296=EDGE_CURVE('',#402,#407,#496,.T.);
#297=EDGE_CURVE('',#404,#408,#497,.T.);
#298=EDGE_CURVE('',#416,#417,#498,.T.);
#299=EDGE_CURVE('',#417,#415,#499,.F.);
#300=EDGE_CURVE('',#414,#416,#500,.T.);
#301=EDGE_CURVE('',#418,#418,#24,.F.);
#302=EDGE_CURVE('',#419,#419,#25,.F.);
#303=EDGE_CURVE('',#411,#417,#26,.F.);
#304=EDGE_CURVE('',#416,#405,#27,.F.);
#305=EDGE_CURVE('',#420,#421,#501,.T.);
#306=EDGE_CURVE('',#420,#422,#502,.T.);
#307=EDGE_CURVE('',#422,#423,#503,.T.);
#308=EDGE_CURVE('',#421,#423,#504,.T.);
#309=EDGE_CURVE('',#424,#425,#505,.T.);
#310=EDGE_CURVE('',#424,#426,#506,.T.);
#311=EDGE_CURVE('',#426,#427,#507,.T.);
#312=EDGE_CURVE('',#425,#427,#508,.T.);
#313=EDGE_CURVE('',#428,#429,#509,.T.);
#314=EDGE_CURVE('',#428,#430,#510,.T.);
#315=EDGE_CURVE('',#430,#431,#511,.T.);
#316=EDGE_CURVE('',#429,#431,#512,.T.);
#317=EDGE_CURVE('',#432,#433,#513,.T.);
#318=EDGE_CURVE('',#432,#434,#514,.T.);
#319=EDGE_CURVE('',#434,#435,#515,.T.);
#320=EDGE_CURVE('',#433,#435,#516,.T.);
#321=EDGE_CURVE('',#436,#437,#517,.T.);
#322=EDGE_CURVE('',#436,#438,#518,.T.);
#323=EDGE_CURVE('',#438,#439,#519,.T.);
#324=EDGE_CURVE('',#437,#439,#520,.T.);
#325=EDGE_CURVE('',#440,#441,#521,.T.);
#326=EDGE_CURVE('',#440,#442,#522,.T.);
#327=EDGE_CURVE('',#442,#443,#523,.T.);
#328=EDGE_CURVE('',#441,#443,#524,.T.);
#329=EDGE_CURVE('',#444,#402,#525,.T.);
#330=EDGE_CURVE('',#407,#445,#526,.T.);
#331=EDGE_CURVE('',#445,#446,#28,.F.);
#332=EDGE_CURVE('',#446,#447,#527,.T.);
#333=EDGE_CURVE('',#447,#448,#29,.F.);
#334=EDGE_CURVE('',#449,#448,#528,.T.);
#335=EDGE_CURVE('',#449,#450,#30,.F.);
#336=EDGE_CURVE('',#451,#450,#529,.T.);
#337=EDGE_CURVE('',#451,#444,#31,.F.);
#338=EDGE_CURVE('',#452,#453,#530,.T.);
#339=EDGE_CURVE('',#452,#454,#531,.T.);
#340=EDGE_CURVE('',#454,#455,#532,.T.);
#341=EDGE_CURVE('',#453,#455,#533,.T.);
#342=EDGE_CURVE('',#456,#457,#534,.T.);
#343=EDGE_CURVE('',#456,#458,#535,.T.);
#344=EDGE_CURVE('',#458,#459,#536,.T.);
#345=EDGE_CURVE('',#457,#459,#537,.T.);
#346=EDGE_CURVE('',#460,#461,#538,.T.);
#347=EDGE_CURVE('',#460,#462,#539,.T.);
#348=EDGE_CURVE('',#462,#463,#540,.T.);
#349=EDGE_CURVE('',#461,#463,#541,.T.);
#350=EDGE_CURVE('',#464,#465,#542,.T.);
#351=EDGE_CURVE('',#464,#466,#543,.T.);
#352=EDGE_CURVE('',#466,#467,#544,.T.);
#353=EDGE_CURVE('',#465,#467,#545,.T.);
#354=EDGE_CURVE('',#468,#469,#546,.T.);
#355=EDGE_CURVE('',#468,#470,#547,.T.);
#356=EDGE_CURVE('',#470,#471,#548,.T.);
#357=EDGE_CURVE('',#469,#471,#549,.T.);
#358=EDGE_CURVE('',#472,#473,#550,.T.);
#359=EDGE_CURVE('',#473,#474,#32,.T.);
#360=EDGE_CURVE('',#475,#474,#551,.T.);
#361=EDGE_CURVE('',#475,#476,#33,.T.);
#362=EDGE_CURVE('',#477,#476,#552,.T.);
#363=EDGE_CURVE('',#477,#478,#34,.T.);
#364=EDGE_CURVE('',#478,#479,#553,.T.);
#365=EDGE_CURVE('',#479,#472,#35,.T.);
#366=EDGE_CURVE('',#480,#481,#554,.T.);
#367=EDGE_CURVE('',#480,#482,#555,.T.);
#368=EDGE_CURVE('',#482,#483,#556,.T.);
#369=EDGE_CURVE('',#481,#483,#557,.T.);
#370=EDGE_CURVE('',#476,#445,#558,.T.);
#371=EDGE_CURVE('',#444,#477,#559,.F.);
#372=EDGE_CURVE('',#478,#451,#560,.T.);
#373=EDGE_CURVE('',#450,#479,#561,.F.);
#374=EDGE_CURVE('',#448,#473,#562,.F.);
#375=EDGE_CURVE('',#472,#449,#563,.T.);
#376=EDGE_CURVE('',#474,#447,#564,.T.);
#377=EDGE_CURVE('',#446,#475,#565,.F.);
#378=EDGE_CURVE('',#441,#482,#566,.T.);
#379=EDGE_CURVE('',#440,#480,#567,.T.);
#380=EDGE_CURVE('',#442,#481,#568,.T.);
#381=EDGE_CURVE('',#443,#483,#569,.T.);
#382=EDGE_CURVE('',#436,#468,#570,.T.);
#383=EDGE_CURVE('',#438,#469,#571,.T.);
#384=EDGE_CURVE('',#439,#471,#572,.T.);
#385=EDGE_CURVE('',#437,#470,#573,.T.);
#386=EDGE_CURVE('',#432,#464,#574,.T.);
#387=EDGE_CURVE('',#434,#465,#575,.T.);
#388=EDGE_CURVE('',#435,#467,#576,.T.);
#389=EDGE_CURVE('',#433,#466,#577,.T.);
#390=EDGE_CURVE('',#428,#460,#578,.T.);
#391=EDGE_CURVE('',#430,#461,#579,.T.);
#392=EDGE_CURVE('',#431,#463,#580,.T.);
#393=EDGE_CURVE('',#429,#462,#581,.T.);
#394=EDGE_CURVE('',#424,#456,#582,.T.);
#395=EDGE_CURVE('',#426,#457,#583,.T.);
#396=EDGE_CURVE('',#427,#459,#584,.T.);
#397=EDGE_CURVE('',#425,#458,#585,.T.);
#398=EDGE_CURVE('',#420,#452,#586,.T.);
#399=EDGE_CURVE('',#422,#453,#587,.T.);
#400=EDGE_CURVE('',#423,#455,#588,.T.);
#401=EDGE_CURVE('',#421,#454,#589,.T.);
#402=VERTEX_POINT('',#1204);
#403=VERTEX_POINT('',#1205);
#404=VERTEX_POINT('',#1207);
#405=VERTEX_POINT('',#1209);
#406=VERTEX_POINT('',#1211);
#407=VERTEX_POINT('',#1215);
#408=VERTEX_POINT('',#1216);
#409=VERTEX_POINT('',#1218);
#410=VERTEX_POINT('',#1220);
#411=VERTEX_POINT('',#1222);
#412=VERTEX_POINT('',#1226);
#413=VERTEX_POINT('',#1228);
#414=VERTEX_POINT('',#1231);
#415=VERTEX_POINT('',#1233);
#416=VERTEX_POINT('',#1240);
#417=VERTEX_POINT('',#1241);
#418=VERTEX_POINT('',#1246);
#419=VERTEX_POINT('',#1248);
#420=VERTEX_POINT('',#1257);
#421=VERTEX_POINT('',#1258);
#422=VERTEX_POINT('',#1260);
#423=VERTEX_POINT('',#1262);
#424=VERTEX_POINT('',#1265);
#425=VERTEX_POINT('',#1266);
#426=VERTEX_POINT('',#1268);
#427=VERTEX_POINT('',#1270);
#428=VERTEX_POINT('',#1273);
#429=VERTEX_POINT('',#1274);
#430=VERTEX_POINT('',#1276);
#431=VERTEX_POINT('',#1278);
#432=VERTEX_POINT('',#1281);
#433=VERTEX_POINT('',#1282);
#434=VERTEX_POINT('',#1284);
#435=VERTEX_POINT('',#1286);
#436=VERTEX_POINT('',#1289);
#437=VERTEX_POINT('',#1290);
#438=VERTEX_POINT('',#1292);
#439=VERTEX_POINT('',#1294);
#440=VERTEX_POINT('',#1297);
#441=VERTEX_POINT('',#1298);
#442=VERTEX_POINT('',#1300);
#443=VERTEX_POINT('',#1302);
#444=VERTEX_POINT('',#1305);
#445=VERTEX_POINT('',#1307);
#446=VERTEX_POINT('',#1309);
#447=VERTEX_POINT('',#1311);
#448=VERTEX_POINT('',#1313);
#449=VERTEX_POINT('',#1315);
#450=VERTEX_POINT('',#1317);
#451=VERTEX_POINT('',#1319);
#452=VERTEX_POINT('',#1323);
#453=VERTEX_POINT('',#1324);
#454=VERTEX_POINT('',#1326);
#455=VERTEX_POINT('',#1328);
#456=VERTEX_POINT('',#1331);
#457=VERTEX_POINT('',#1332);
#458=VERTEX_POINT('',#1334);
#459=VERTEX_POINT('',#1336);
#460=VERTEX_POINT('',#1339);
#461=VERTEX_POINT('',#1340);
#462=VERTEX_POINT('',#1342);
#463=VERTEX_POINT('',#1344);
#464=VERTEX_POINT('',#1347);
#465=VERTEX_POINT('',#1348);
#466=VERTEX_POINT('',#1350);
#467=VERTEX_POINT('',#1352);
#468=VERTEX_POINT('',#1355);
#469=VERTEX_POINT('',#1356);
#470=VERTEX_POINT('',#1358);
#471=VERTEX_POINT('',#1360);
#472=VERTEX_POINT('',#1363);
#473=VERTEX_POINT('',#1364);
#474=VERTEX_POINT('',#1366);
#475=VERTEX_POINT('',#1368);
#476=VERTEX_POINT('',#1370);
#477=VERTEX_POINT('',#1372);
#478=VERTEX_POINT('',#1374);
#479=VERTEX_POINT('',#1376);
#480=VERTEX_POINT('',#1379);
#481=VERTEX_POINT('',#1380);
#482=VERTEX_POINT('',#1382);
#483=VERTEX_POINT('',#1384);
#484=LINE('',#1203,#590);
#485=LINE('',#1206,#591);
#486=LINE('',#1208,#592);
#487=LINE('',#1210,#593);
#488=LINE('',#1212,#594);
#489=LINE('',#1214,#595);
#490=LINE('',#1217,#596);
#491=LINE('',#1219,#597);
#492=LINE('',#1221,#598);
#493=LINE('',#1223,#599);
#494=LINE('',#1229,#600);
#495=LINE('',#1232,#601);
#496=LINE('',#1236,#602);
#497=LINE('',#1237,#603);
#498=LINE('',#1239,#604);
#499=LINE('',#1242,#605);
#500=LINE('',#1243,#606);
#501=LINE('',#1256,#607);
#502=LINE('',#1259,#608);
#503=LINE('',#1261,#609);
#504=LINE('',#1263,#610);
#505=LINE('',#1264,#611);
#506=LINE('',#1267,#612);
#507=LINE('',#1269,#613);
#508=LINE('',#1271,#614);
#509=LINE('',#1272,#615);
#510=LINE('',#1275,#616);
#511=LINE('',#1277,#617);
#512=LINE('',#1279,#618);
#513=LINE('',#1280,#619);
#514=LINE('',#1283,#620);
#515=LINE('',#1285,#621);
#516=LINE('',#1287,#622);
#517=LINE('',#1288,#623);
#518=LINE('',#1291,#624);
#519=LINE('',#1293,#625);
#520=LINE('',#1295,#626);
#521=LINE('',#1296,#627);
#522=LINE('',#1299,#628);
#523=LINE('',#1301,#629);
#524=LINE('',#1303,#630);
#525=LINE('',#1304,#631);
#526=LINE('',#1306,#632);
#527=LINE('',#1310,#633);
#528=LINE('',#1314,#634);
#529=LINE('',#1318,#635);
#530=LINE('',#1322,#636);
#531=LINE('',#1325,#637);
#532=LINE('',#1327,#638);
#533=LINE('',#1329,#639);
#534=LINE('',#1330,#640);
#535=LINE('',#1333,#641);
#536=LINE('',#1335,#642);
#537=LINE('',#1337,#643);
#538=LINE('',#1338,#644);
#539=LINE('',#1341,#645);
#540=LINE('',#1343,#646);
#541=LINE('',#1345,#647);
#542=LINE('',#1346,#648);
#543=LINE('',#1349,#649);
#544=LINE('',#1351,#650);
#545=LINE('',#1353,#651);
#546=LINE('',#1354,#652);
#547=LINE('',#1357,#653);
#548=LINE('',#1359,#654);
#549=LINE('',#1361,#655);
#550=LINE('',#1362,#656);
#551=LINE('',#1367,#657);
#552=LINE('',#1371,#658);
#553=LINE('',#1375,#659);
#554=LINE('',#1378,#660);
#555=LINE('',#1381,#661);
#556=LINE('',#1383,#662);
#557=LINE('',#1385,#663);
#558=LINE('',#1387,#664);
#559=LINE('',#1388,#665);
#560=LINE('',#1390,#666);
#561=LINE('',#1391,#667);
#562=LINE('',#1393,#668);
#563=LINE('',#1394,#669);
#564=LINE('',#1396,#670);
#565=LINE('',#1397,#671);
#566=LINE('',#1399,#672);
#567=LINE('',#1400,#673);
#568=LINE('',#1402,#674);
#569=LINE('',#1404,#675);
#570=LINE('',#1407,#676);
#571=LINE('',#1408,#677);
#572=LINE('',#1410,#678);
#573=LINE('',#1412,#679);
#574=LINE('',#1415,#680);
#575=LINE('',#1416,#681);
#576=LINE('',#1418,#682);
#577=LINE('',#1420,#683);
#578=LINE('',#1423,#684);
#579=LINE('',#1424,#685);
#580=LINE('',#1426,#686);
#581=LINE('',#1428,#687);
#582=LINE('',#1431,#688);
#583=LINE('',#1432,#689);
#584=LINE('',#1434,#690);
#585=LINE('',#1436,#691);
#586=LINE('',#1439,#692);
#587=LINE('',#1440,#693);
#588=LINE('',#1442,#694);
#589=LINE('',#1444,#695);
#590=VECTOR('',#977,1.);
#591=VECTOR('',#978,1.);
#592=VECTOR('',#979,1.);
#593=VECTOR('',#980,1.);
#594=VECTOR('',#981,1.);
#595=VECTOR('',#984,1.);
#596=VECTOR('',#985,1.);
#597=VECTOR('',#986,1.);
#598=VECTOR('',#987,1.);
#599=VECTOR('',#988,1.);
#600=VECTOR('',#995,1.);
#601=VECTOR('',#998,1.);
#602=VECTOR('',#1003,1.);
#603=VECTOR('',#1004,1.);
#604=VECTOR('',#1007,1.);
#605=VECTOR('',#1008,1.);
#606=VECTOR('',#1009,1.);
#607=VECTOR('',#1030,1.);
#608=VECTOR('',#1031,1.);
#609=VECTOR('',#1032,1.);
#610=VECTOR('',#1033,1.);
#611=VECTOR('',#1034,1.);
#612=VECTOR('',#1035,1.);
#613=VECTOR('',#1036,1.);
#614=VECTOR('',#1037,1.);
#615=VECTOR('',#1038,1.);
#616=VECTOR('',#1039,1.);
#617=VECTOR('',#1040,1.);
#618=VECTOR('',#1041,1.);
#619=VECTOR('',#1042,1.);
#620=VECTOR('',#1043,1.);
#621=VECTOR('',#1044,1.);
#622=VECTOR('',#1045,1.);
#623=VECTOR('',#1046,1.);
#624=VECTOR('',#1047,1.);
#625=VECTOR('',#1048,1.);
#626=VECTOR('',#1049,1.);
#627=VECTOR('',#1050,1.);
#628=VECTOR('',#1051,1.);
#629=VECTOR('',#1052,1.);
#630=VECTOR('',#1053,1.);
#631=VECTOR('',#1054,1.);
#632=VECTOR('',#1055,1.);
#633=VECTOR('',#1058,1.);
#634=VECTOR('',#1061,1.);
#635=VECTOR('',#1064,1.);
#636=VECTOR('',#1069,1.);
#637=VECTOR('',#1070,1.);
#638=VECTOR('',#1071,1.);
#639=VECTOR('',#1072,1.);
#640=VECTOR('',#1073,1.);
#641=VECTOR('',#1074,1.);
#642=VECTOR('',#1075,1.);
#643=VECTOR('',#1076,1.);
#644=VECTOR('',#1077,1.);
#645=VECTOR('',#1078,1.);
#646=VECTOR('',#1079,1.);
#647=VECTOR('',#1080,1.);
#648=VECTOR('',#1081,1.);
#649=VECTOR('',#1082,1.);
#650=VECTOR('',#1083,1.);
#651=VECTOR('',#1084,1.);
#652=VECTOR('',#1085,1.);
#653=VECTOR('',#1086,1.);
#654=VECTOR('',#1087,1.);
#655=VECTOR('',#1088,1.);
#656=VECTOR('',#1089,1.);
#657=VECTOR('',#1092,1.);
#658=VECTOR('',#1095,1.);
#659=VECTOR('',#1098,1.);
#660=VECTOR('',#1101,1.);
#661=VECTOR('',#1102,1.);
#662=VECTOR('',#1103,1.);
#663=VECTOR('',#1104,1.);
#664=VECTOR('',#1107,1.);
#665=VECTOR('',#1108,1.);
#666=VECTOR('',#1111,1.);
#667=VECTOR('',#1112,1.);
#668=VECTOR('',#1115,1.);
#669=VECTOR('',#1116,1.);
#670=VECTOR('',#1119,1.);
#671=VECTOR('',#1120,1.);
#672=VECTOR('',#1123,1.);
#673=VECTOR('',#1124,1.);
#674=VECTOR('',#1127,1.);
#675=VECTOR('',#1130,1.);
#676=VECTOR('',#1135,1.);
#677=VECTOR('',#1136,1.);
#678=VECTOR('',#1139,1.);
#679=VECTOR('',#1142,1.);
#680=VECTOR('',#1147,1.);
#681=VECTOR('',#1148,1.);
#682=VECTOR('',#1151,1.);
#683=VECTOR('',#1154,1.);
#684=VECTOR('',#1159,1.);
#685=VECTOR('',#1160,1.);
#686=VECTOR('',#1163,1.);
#687=VECTOR('',#1166,1.);
#688=VECTOR('',#1171,1.);
#689=VECTOR('',#1172,1.);
#690=VECTOR('',#1175,1.);
#691=VECTOR('',#1178,1.);
#692=VECTOR('',#1183,1.);
#693=VECTOR('',#1184,1.);
#694=VECTOR('',#1187,1.);
#695=VECTOR('',#1190,1.);
#696=EDGE_LOOP('',(#36,#37,#38,#39,#40));
#697=EDGE_LOOP('',(#41,#42,#43,#44,#45));
#698=EDGE_LOOP('',(#46));
#699=EDGE_LOOP('',(#47));
#700=EDGE_LOOP('',(#48,#49,#50,#51,#52,#53));
#701=EDGE_LOOP('',(#54,#55,#56,#57));
#702=EDGE_LOOP('',(#58,#59,#60,#61));
#703=EDGE_LOOP('',(#62));
#704=EDGE_LOOP('',(#63));
#705=EDGE_LOOP('',(#64,#65,#66,#67,#68,#69));
#706=EDGE_LOOP('',(#70));
#707=EDGE_LOOP('',(#71));
#708=EDGE_LOOP('',(#72));
#709=EDGE_LOOP('',(#73));
#710=EDGE_LOOP('',(#74,#75,#76,#77));
#711=EDGE_LOOP('',(#78,#79,#80,#81));
#712=EDGE_LOOP('',(#82,#83,#84,#85));
#713=EDGE_LOOP('',(#86,#87,#88,#89));
#714=EDGE_LOOP('',(#90,#91,#92,#93));
#715=EDGE_LOOP('',(#94,#95,#96,#97));
#716=EDGE_LOOP('',(#98,#99,#100,#101));
#717=EDGE_LOOP('',(#102,#103,#104,#105));
#718=EDGE_LOOP('',(#106,#107,#108,#109,#110,#111,#112,#113,#114,#115,#116,
#117));
#719=EDGE_LOOP('',(#118,#119,#120,#121));
#720=EDGE_LOOP('',(#122,#123,#124,#125));
#721=EDGE_LOOP('',(#126,#127,#128,#129));
#722=EDGE_LOOP('',(#130,#131,#132,#133));
#723=EDGE_LOOP('',(#134,#135,#136,#137));
#724=EDGE_LOOP('',(#138,#139,#140,#141,#142,#143,#144,#145));
#725=EDGE_LOOP('',(#146,#147,#148,#149));
#726=EDGE_LOOP('',(#150,#151,#152,#153,#154,#155));
#727=EDGE_LOOP('',(#156,#157,#158,#159));
#728=EDGE_LOOP('',(#160,#161,#162,#163));
#729=EDGE_LOOP('',(#164,#165,#166,#167));
#730=EDGE_LOOP('',(#168,#169,#170,#171));
#731=EDGE_LOOP('',(#172,#173,#174,#175));
#732=EDGE_LOOP('',(#176,#177,#178,#179));
#733=EDGE_LOOP('',(#180,#181,#182,#183));
#734=EDGE_LOOP('',(#184,#185,#186,#187));
#735=EDGE_LOOP('',(#188,#189,#190,#191));
#736=EDGE_LOOP('',(#192,#193,#194,#195));
#737=EDGE_LOOP('',(#196,#197,#198,#199));
#738=EDGE_LOOP('',(#200,#201,#202,#203));
#739=EDGE_LOOP('',(#204,#205,#206,#207));
#740=EDGE_LOOP('',(#208,#209,#210,#211));
#741=EDGE_LOOP('',(#212,#213,#214,#215));
#742=EDGE_LOOP('',(#216,#217,#218,#219));
#743=EDGE_LOOP('',(#220,#221,#222,#223));
#744=EDGE_LOOP('',(#224,#225,#226,#227));
#745=EDGE_LOOP('',(#228,#229,#230,#231));
#746=EDGE_LOOP('',(#232,#233,#234,#235));
#747=EDGE_LOOP('',(#236,#237,#238,#239));
#748=EDGE_LOOP('',(#240,#241,#242,#243));
#749=EDGE_LOOP('',(#244,#245,#246,#247));
#750=EDGE_LOOP('',(#248,#249,#250,#251));
#751=EDGE_LOOP('',(#252,#253,#254,#255));
#752=EDGE_LOOP('',(#256,#257,#258,#259));
#753=EDGE_LOOP('',(#260,#261,#262,#263));
#754=EDGE_LOOP('',(#264,#265,#266,#267));
#755=EDGE_LOOP('',(#268,#269,#270,#271));
#756=EDGE_LOOP('',(#272,#273,#274,#275));
#757=EDGE_LOOP('',(#276,#277,#278,#279));
#758=FACE_BOUND('',#696,.T.);
#759=FACE_BOUND('',#697,.T.);
#760=FACE_BOUND('',#698,.T.);
#761=FACE_BOUND('',#699,.T.);
#762=FACE_BOUND('',#700,.T.);
#763=FACE_BOUND('',#701,.T.);
#764=FACE_BOUND('',#702,.T.);
#765=FACE_BOUND('',#703,.T.);
#766=FACE_BOUND('',#704,.T.);
#767=FACE_BOUND('',#705,.T.);
#768=FACE_BOUND('',#706,.T.);
#769=FACE_BOUND('',#707,.T.);
#770=FACE_BOUND('',#708,.T.);
#771=FACE_BOUND('',#709,.T.);
#772=FACE_BOUND('',#710,.T.);
#773=FACE_BOUND('',#711,.T.);
#774=FACE_BOUND('',#712,.T.);
#775=FACE_BOUND('',#713,.T.);
#776=FACE_BOUND('',#714,.T.);
#777=FACE_BOUND('',#715,.T.);
#778=FACE_BOUND('',#716,.T.);
#779=FACE_BOUND('',#717,.T.);
#780=FACE_BOUND('',#718,.T.);
#781=FACE_BOUND('',#719,.T.);
#782=FACE_BOUND('',#720,.T.);
#783=FACE_BOUND('',#721,.T.);
#784=FACE_BOUND('',#722,.T.);
#785=FACE_BOUND('',#723,.T.);
#786=FACE_BOUND('',#724,.T.);
#787=FACE_BOUND('',#725,.T.);
#788=FACE_BOUND('',#726,.T.);
#789=FACE_BOUND('',#727,.T.);
#790=FACE_BOUND('',#728,.T.);
#791=FACE_BOUND('',#729,.T.);
#792=FACE_BOUND('',#730,.T.);
#793=FACE_BOUND('',#731,.T.);
#794=FACE_BOUND('',#732,.T.);
#795=FACE_BOUND('',#733,.T.);
#796=FACE_BOUND('',#734,.T.);
#797=FACE_BOUND('',#735,.T.);
#798=FACE_BOUND('',#736,.T.);
#799=FACE_BOUND('',#737,.T.);
#800=FACE_BOUND('',#738,.T.);
#801=FACE_BOUND('',#739,.T.);
#802=FACE_BOUND('',#740,.T.);
#803=FACE_BOUND('',#741,.T.);
#804=FACE_BOUND('',#742,.T.);
#805=FACE_BOUND('',#743,.T.);
#806=FACE_BOUND('',#744,.T.);
#807=FACE_BOUND('',#745,.T.);
#808=FACE_BOUND('',#746,.T.);
#809=FACE_BOUND('',#747,.T.);
#810=FACE_BOUND('',#748,.T.);
#811=FACE_BOUND('',#749,.T.);
#812=FACE_BOUND('',#750,.T.);
#813=FACE_BOUND('',#751,.T.);
#814=FACE_BOUND('',#752,.T.);
#815=FACE_BOUND('',#753,.T.);
#816=FACE_BOUND('',#754,.T.);
#817=FACE_BOUND('',#755,.T.);
#818=FACE_BOUND('',#756,.T.);
#819=FACE_BOUND('',#757,.T.);
#820=PLANE('',#913);
#821=PLANE('',#914);
#822=PLANE('',#915);
#823=PLANE('',#920);
#824=PLANE('',#921);
#825=PLANE('',#922);
#826=PLANE('',#931);
#827=PLANE('',#936);
#828=PLANE('',#941);
#829=PLANE('',#942);
#830=PLANE('',#943);
#831=PLANE('',#944);
#832=PLANE('',#945);
#833=PLANE('',#946);
#834=PLANE('',#947);
#835=PLANE('',#948);
#836=PLANE('',#949);
#837=PLANE('',#950);
#838=PLANE('',#951);
#839=PLANE('',#952);
#840=PLANE('',#953);
#841=PLANE('',#954);
#842=PLANE('',#955);
#843=PLANE('',#956);
#844=PLANE('',#957);
#845=PLANE('',#958);
#846=PLANE('',#959);
#847=PLANE('',#960);
#848=PLANE('',#961);
#849=PLANE('',#962);
#850=PLANE('',#963);
#851=PLANE('',#964);
#852=PLANE('',#965);
#853=PLANE('',#966);
#854=PLANE('',#967);
#855=PLANE('',#968);
#856=ADVANCED_FACE('',(#758),#820,.F.);
#857=ADVANCED_FACE('',(#759),#821,.T.);
#858=ADVANCED_FACE('',(#760,#761,#762),#822,.T.);
#859=ADVANCED_FACE('',(#763),#823,.T.);
#860=ADVANCED_FACE('',(#764),#824,.F.);
#861=ADVANCED_FACE('',(#765,#766,#767),#825,.F.);
#862=ADVANCED_FACE('',(#768,#769),#12,.F.);
#863=ADVANCED_FACE('',(#770,#771),#13,.F.);
#864=ADVANCED_FACE('',(#772),#14,.T.);
#865=ADVANCED_FACE('',(#773),#15,.T.);
#866=ADVANCED_FACE('',(#774,#775,#776,#777,#778,#779,#780),#826,.F.);
#867=ADVANCED_FACE('',(#781,#782,#783,#784,#785,#786,#787),#827,.T.);
#868=ADVANCED_FACE('',(#788),#828,.T.);
#869=ADVANCED_FACE('',(#789),#829,.F.);
#870=ADVANCED_FACE('',(#790),#830,.F.);
#871=ADVANCED_FACE('',(#791),#831,.T.);
#872=ADVANCED_FACE('',(#792),#832,.T.);
#873=ADVANCED_FACE('',(#793),#833,.F.);
#874=ADVANCED_FACE('',(#794),#834,.F.);
#875=ADVANCED_FACE('',(#795),#835,.T.);
#876=ADVANCED_FACE('',(#796),#836,.F.);
#877=ADVANCED_FACE('',(#797),#837,.F.);
#878=ADVANCED_FACE('',(#798),#838,.T.);
#879=ADVANCED_FACE('',(#799),#839,.T.);
#880=ADVANCED_FACE('',(#800),#840,.F.);
#881=ADVANCED_FACE('',(#801),#841,.F.);
#882=ADVANCED_FACE('',(#802),#842,.T.);
#883=ADVANCED_FACE('',(#803),#843,.T.);
#884=ADVANCED_FACE('',(#804),#844,.F.);
#885=ADVANCED_FACE('',(#805),#845,.F.);
#886=ADVANCED_FACE('',(#806),#846,.T.);
#887=ADVANCED_FACE('',(#807),#847,.T.);
#888=ADVANCED_FACE('',(#808),#848,.F.);
#889=ADVANCED_FACE('',(#809),#849,.F.);
#890=ADVANCED_FACE('',(#810),#850,.T.);
#891=ADVANCED_FACE('',(#811),#851,.T.);
#892=ADVANCED_FACE('',(#812),#852,.F.);
#893=ADVANCED_FACE('',(#813),#853,.F.);
#894=ADVANCED_FACE('',(#814),#854,.T.);
#895=ADVANCED_FACE('',(#815),#855,.T.);
#896=ADVANCED_FACE('',(#816),#16,.T.);
#897=ADVANCED_FACE('',(#817),#17,.T.);
#898=ADVANCED_FACE('',(#818),#18,.T.);
#899=ADVANCED_FACE('',(#819),#19,.T.);
#900=CLOSED_SHELL('',(#856,#857,#858,#859,#860,#861,#862,#863,#864,#865,
#866,#867,#868,#869,#870,#871,#872,#873,#874,#875,#876,#877,#878,#879,#880,
#881,#882,#883,#884,#885,#886,#887,#888,#889,#890,#891,#892,#893,#894,#895,
#896,#897,#898,#899));
#901=STYLED_ITEM('',(#902),#909);
#902=PRESENTATION_STYLE_ASSIGNMENT((#903));
#903=SURFACE_STYLE_USAGE(.BOTH.,#904);
#904=SURFACE_SIDE_STYLE('',(#905));
#905=SURFACE_STYLE_FILL_AREA(#906);
#906=FILL_AREA_STYLE('',(#907));
#907=FILL_AREA_STYLE_COLOUR('',#908);
#908=COLOUR_RGB('',0.498039215686275,0.498039215686275,0.498039215686275);
#909=MANIFOLD_SOLID_BREP('Bottomplate',#900);
#910=SHAPE_DEFINITION_REPRESENTATION(#1456,#911);
#911=SHAPE_REPRESENTATION('Bottomplate',(#912),#1451);
#912=AXIS2_PLACEMENT_3D('',#1201,#973,#974);
#913=AXIS2_PLACEMENT_3D('',#1202,#975,#976);
#914=AXIS2_PLACEMENT_3D('',#1213,#982,#983);
#915=AXIS2_PLACEMENT_3D('',#1224,#989,#990);
#916=AXIS2_PLACEMENT_3D('',#1225,#991,#992);
#917=AXIS2_PLACEMENT_3D('',#1227,#993,#994);
#918=AXIS2_PLACEMENT_3D('',#1230,#996,#997);
#919=AXIS2_PLACEMENT_3D('',#1234,#999,#1000);
#920=AXIS2_PLACEMENT_3D('',#1235,#1001,#1002);
#921=AXIS2_PLACEMENT_3D('',#1238,#1005,#1006);
#922=AXIS2_PLACEMENT_3D('',#1244,#1010,#1011);
#923=AXIS2_PLACEMENT_3D('',#1245,#1012,#1013);
#924=AXIS2_PLACEMENT_3D('',#1247,#1014,#1015);
#925=AXIS2_PLACEMENT_3D('',#1249,#1016,#1017);
#926=AXIS2_PLACEMENT_3D('',#1250,#1018,#1019);
#927=AXIS2_PLACEMENT_3D('',#1251,#1020,#1021);
#928=AXIS2_PLACEMENT_3D('',#1252,#1022,#1023);
#929=AXIS2_PLACEMENT_3D('',#1253,#1024,#1025);
#930=AXIS2_PLACEMENT_3D('',#1254,#1026,#1027);
#931=AXIS2_PLACEMENT_3D('',#1255,#1028,#1029);
#932=AXIS2_PLACEMENT_3D('',#1308,#1056,#1057);
#933=AXIS2_PLACEMENT_3D('',#1312,#1059,#1060);
#934=AXIS2_PLACEMENT_3D('',#1316,#1062,#1063);
#935=AXIS2_PLACEMENT_3D('',#1320,#1065,#1066);
#936=AXIS2_PLACEMENT_3D('',#1321,#1067,#1068);
#937=AXIS2_PLACEMENT_3D('',#1365,#1090,#1091);
#938=AXIS2_PLACEMENT_3D('',#1369,#1093,#1094);
#939=AXIS2_PLACEMENT_3D('',#1373,#1096,#1097);
#940=AXIS2_PLACEMENT_3D('',#1377,#1099,#1100);
#941=AXIS2_PLACEMENT_3D('',#1386,#1105,#1106);
#942=AXIS2_PLACEMENT_3D('',#1389,#1109,#1110);
#943=AXIS2_PLACEMENT_3D('',#1392,#1113,#1114);
#944=AXIS2_PLACEMENT_3D('',#1395,#1117,#1118);
#945=AXIS2_PLACEMENT_3D('',#1398,#1121,#1122);
#946=AXIS2_PLACEMENT_3D('',#1401,#1125,#1126);
#947=AXIS2_PLACEMENT_3D('',#1403,#1128,#1129);
#948=AXIS2_PLACEMENT_3D('',#1405,#1131,#1132);
#949=AXIS2_PLACEMENT_3D('',#1406,#1133,#1134);
#950=AXIS2_PLACEMENT_3D('',#1409,#1137,#1138);
#951=AXIS2_PLACEMENT_3D('',#1411,#1140,#1141);
#952=AXIS2_PLACEMENT_3D('',#1413,#1143,#1144);
#953=AXIS2_PLACEMENT_3D('',#1414,#1145,#1146);
#954=AXIS2_PLACEMENT_3D('',#1417,#1149,#1150);
#955=AXIS2_PLACEMENT_3D('',#1419,#1152,#1153);
#956=AXIS2_PLACEMENT_3D('',#1421,#1155,#1156);
#957=AXIS2_PLACEMENT_3D('',#1422,#1157,#1158);
#958=AXIS2_PLACEMENT_3D('',#1425,#1161,#1162);
#959=AXIS2_PLACEMENT_3D('',#1427,#1164,#1165);
#960=AXIS2_PLACEMENT_3D('',#1429,#1167,#1168);
#961=AXIS2_PLACEMENT_3D('',#1430,#1169,#1170);
#962=AXIS2_PLACEMENT_3D('',#1433,#1173,#1174);
#963=AXIS2_PLACEMENT_3D('',#1435,#1176,#1177);
#964=AXIS2_PLACEMENT_3D('',#1437,#1179,#1180);
#965=AXIS2_PLACEMENT_3D('',#1438,#1181,#1182);
#966=AXIS2_PLACEMENT_3D('',#1441,#1185,#1186);
#967=AXIS2_PLACEMENT_3D('',#1443,#1188,#1189);
#968=AXIS2_PLACEMENT_3D('',#1445,#1191,#1192);
#969=AXIS2_PLACEMENT_3D('',#1446,#1193,#1194);
#970=AXIS2_PLACEMENT_3D('',#1447,#1195,#1196);
#971=AXIS2_PLACEMENT_3D('',#1448,#1197,#1198);
#972=AXIS2_PLACEMENT_3D('',#1449,#1199,#1200);
#973=DIRECTION('',(0.,0.,1.));
#974=DIRECTION('',(1.,0.,0.));
#975=DIRECTION('',(-1.,8.89601782552209E-17,0.));
#976=DIRECTION('',(-8.89601782552209E-17,-1.,0.));
#977=DIRECTION('',(3.75961958983641E-17,0.422618261740699,0.90630778703665));
#978=DIRECTION('',(0.,0.,-1.));
#979=DIRECTION('',(8.89601782552209E-17,1.,0.));
#980=DIRECTION('',(0.,0.,-1.));
#981=DIRECTION('',(8.89601782552209E-17,1.,0.));
#982=DIRECTION('',(-1.,8.89601782552209E-17,0.));
#983=DIRECTION('',(-8.89601782552209E-17,-1.,0.));
#984=DIRECTION('',(0.,0.,-1.));
#985=DIRECTION('',(3.75961958983641E-17,0.422618261740699,0.90630778703665));
#986=DIRECTION('',(8.89601782552209E-17,1.,0.));
#987=DIRECTION('',(0.,0.,-1.));
#988=DIRECTION('',(8.89601782552209E-17,1.,0.));
#989=DIRECTION('',(0.,0.,1.));
#990=DIRECTION('',(1.,0.,0.));
#991=DIRECTION('',(0.,0.,-1.));
#992=DIRECTION('',(-1.,0.,0.));
#993=DIRECTION('',(0.,0.,-1.));
#994=DIRECTION('',(-1.,0.,0.));
#995=DIRECTION('',(1.,-2.18625632872768E-17,0.));
#996=DIRECTION('',(0.,0.,1.));
#997=DIRECTION('',(1.,0.,0.));
#998=DIRECTION('',(-1.,0.,0.));
#999=DIRECTION('',(0.,0.,1.));
#1000=DIRECTION('',(1.,0.,0.));
#1001=DIRECTION('',(1.20861881522974E-16,-1.,0.));
#1002=DIRECTION('',(1.,1.20861881522974E-16,0.));
#1003=DIRECTION('',(-1.,1.98142113518406E-17,-4.3927049011822E-18));
#1004=DIRECTION('',(-1.,-1.20861881522974E-16,0.));
#1005=DIRECTION('',(0.,-1.,0.));
#1006=DIRECTION('',(0.,0.,-1.));
#1007=DIRECTION('',(-1.,0.,0.));
#1008=DIRECTION('',(0.,0.,-1.));
#1009=DIRECTION('',(0.,0.,-1.));
#1010=DIRECTION('',(0.,0.,1.));
#1011=DIRECTION('',(1.,0.,0.));
#1012=DIRECTION('',(0.,0.,1.));
#1013=DIRECTION('',(1.,0.,0.));
#1014=DIRECTION('',(0.,0.,1.));
#1015=DIRECTION('',(1.,0.,0.));
#1016=DIRECTION('',(0.,0.,1.));
#1017=DIRECTION('',(1.,0.,0.));
#1018=DIRECTION('',(0.,0.,1.));
#1019=DIRECTION('',(1.,0.,0.));
#1020=DIRECTION('',(0.,0.,1.));
#1021=DIRECTION('',(1.,0.,0.));
#1022=DIRECTION('',(0.,0.,1.));
#1023=DIRECTION('',(1.,0.,0.));
#1024=DIRECTION('',(0.,0.,1.));
#1025=DIRECTION('',(1.,0.,0.));
#1026=DIRECTION('',(0.,0.,-1.));
#1027=DIRECTION('',(-1.,0.,0.));
#1028=DIRECTION('',(-1.98142113518406E-17,-0.90630778703665,0.422618261740699));
#1029=DIRECTION('',(1.,-1.98142113518406E-17,4.3927049011822E-18));
#1030=DIRECTION('',(-1.,-5.76286569599307E-17,-1.70469471939887E-16));
#1031=DIRECTION('',(4.3927049011822E-18,0.422618261740699,0.90630778703665));
#1032=DIRECTION('',(-1.,-8.34429463971878E-17,-2.25828394286121E-16));
#1033=DIRECTION('',(4.3927049011822E-18,0.422618261740699,0.90630778703665));
#1034=DIRECTION('',(-1.,-8.34429463971878E-17,-2.25828394286121E-16));
#1035=DIRECTION('',(4.3927049011822E-18,0.422618261740699,0.90630778703665));
#1036=DIRECTION('',(-1.,-3.18143675226736E-17,-1.15110549593652E-16));
#1037=DIRECTION('',(4.3927049011822E-18,0.422618261740699,0.90630778703665));
#1038=DIRECTION('',(-1.,-5.76286569599307E-17,-1.70469471939886E-16));
#1039=DIRECTION('',(4.3927049011822E-18,0.422618261740699,0.90630778703665));
#1040=DIRECTION('',(-1.,-8.34429463971878E-17,-2.25828394286121E-16));
#1041=DIRECTION('',(4.3927049011822E-18,0.422618261740699,0.90630778703665));
#1042=DIRECTION('',(-1.,-8.34429463971878E-17,-2.25828394286121E-16));
#1043=DIRECTION('',(4.3927049011822E-18,0.422618261740699,0.90630778703665));
#1044=DIRECTION('',(-1.,-3.18143675226736E-17,-1.15110549593652E-16));
#1045=DIRECTION('',(4.3927049011822E-18,0.422618261740699,0.90630778703665));
#1046=DIRECTION('',(-1.,-8.34429463971878E-17,-2.25828394286121E-16));
#1047=DIRECTION('',(4.3927049011822E-18,0.422618261740699,0.90630778703665));
#1048=DIRECTION('',(-1.,-3.18143675226736E-17,-1.15110549593652E-16));
#1049=DIRECTION('',(4.3927049011822E-18,0.422618261740699,0.90630778703665));
#1050=DIRECTION('',(-1.,-5.76286569599307E-17,-1.70469471939887E-16));
#1051=DIRECTION('',(4.3927049011822E-18,0.422618261740699,0.90630778703665));
#1052=DIRECTION('',(-1.,-8.34429463971878E-17,-2.25828394286121E-16));
#1053=DIRECTION('',(4.3927049011822E-18,0.422618261740699,0.90630778703665));
#1054=DIRECTION('',(-1.,1.98142113518406E-17,-4.3927049011822E-18));
#1055=DIRECTION('',(-1.,1.98142113518406E-17,-4.3927049011822E-18));
#1056=DIRECTION('',(-1.98142113518406E-17,-0.90630778703665,0.422618261740699));
#1057=DIRECTION('',(0.,-0.422618261740699,-0.90630778703665));
#1058=DIRECTION('',(4.3927049011822E-18,0.422618261740699,0.90630778703665));
#1059=DIRECTION('',(-1.98142113518406E-17,-0.90630778703665,0.422618261740699));
#1060=DIRECTION('',(0.,-0.422618261740699,-0.90630778703665));
#1061=DIRECTION('',(-1.,1.98142113518406E-17,-4.3927049011822E-18));
#1062=DIRECTION('',(-1.98142113518406E-17,-0.90630778703665,0.422618261740699));
#1063=DIRECTION('',(0.,-0.422618261740699,-0.90630778703665));
#1064=DIRECTION('',(-2.526033656139E-16,0.422618261740699,0.90630778703665));
#1065=DIRECTION('',(-1.98142113518406E-17,-0.90630778703665,0.422618261740699));
#1066=DIRECTION('',(0.,-0.422618261740699,-0.90630778703665));
#1067=DIRECTION('',(-1.98142113518406E-17,-0.90630778703665,0.422618261740699));
#1068=DIRECTION('',(1.,-1.98142113518406E-17,4.3927049011822E-18));
#1069=DIRECTION('',(4.3927049011822E-18,0.422618261740699,0.90630778703665));
#1070=DIRECTION('',(-1.,-5.76286569599307E-17,-1.70469471939887E-16));
#1071=DIRECTION('',(4.3927049011822E-18,0.422618261740699,0.90630778703665));
#1072=DIRECTION('',(-1.,-8.34429463971878E-17,-2.25828394286121E-16));
#1073=DIRECTION('',(4.3927049011822E-18,0.422618261740699,0.90630778703665));
#1074=DIRECTION('',(-1.,-8.34429463971878E-17,-2.25828394286121E-16));
#1075=DIRECTION('',(4.3927049011822E-18,0.422618261740699,0.90630778703665));
#1076=DIRECTION('',(-1.,-3.18143675226736E-17,-1.15110549593652E-16));
#1077=DIRECTION('',(4.3927049011822E-18,0.422618261740699,0.90630778703665));
#1078=DIRECTION('',(-1.,-5.76286569599307E-17,-1.70469471939886E-16));
#1079=DIRECTION('',(4.3927049011822E-18,0.422618261740699,0.90630778703665));
#1080=DIRECTION('',(-1.,-8.34429463971878E-17,-2.25828394286121E-16));
#1081=DIRECTION('',(4.3927049011822E-18,0.422618261740699,0.90630778703665));
#1082=DIRECTION('',(-1.,-8.34429463971878E-17,-2.25828394286121E-16));
#1083=DIRECTION('',(4.3927049011822E-18,0.422618261740699,0.90630778703665));
#1084=DIRECTION('',(-1.,-3.18143675226736E-17,-1.15110549593652E-16));
#1085=DIRECTION('',(4.3927049011822E-18,0.422618261740699,0.90630778703665));
#1086=DIRECTION('',(-1.,-8.34429463971878E-17,-2.25828394286121E-16));
#1087=DIRECTION('',(4.3927049011822E-18,0.422618261740699,0.90630778703665));
#1088=DIRECTION('',(-1.,-3.18143675226736E-17,-1.15110549593652E-16));
#1089=DIRECTION('',(-1.,1.98142113518406E-17,-4.3927049011822E-18));
#1090=DIRECTION('',(-1.98142113518406E-17,-0.90630778703665,0.422618261740699));
#1091=DIRECTION('',(0.,-0.422618261740699,-0.90630778703665));
#1092=DIRECTION('',(4.3927049011822E-18,0.422618261740699,0.90630778703665));
#1093=DIRECTION('',(-1.98142113518406E-17,-0.90630778703665,0.422618261740699));
#1094=DIRECTION('',(0.,-0.422618261740699,-0.90630778703665));
#1095=DIRECTION('',(-1.,1.98142113518406E-17,-4.3927049011822E-18));
#1096=DIRECTION('',(-1.98142113518406E-17,-0.90630778703665,0.422618261740699));
#1097=DIRECTION('',(0.,-0.422618261740699,-0.90630778703665));
#1098=DIRECTION('',(-2.526033656139E-16,0.422618261740699,0.90630778703665));
#1099=DIRECTION('',(-1.98142113518406E-17,-0.90630778703665,0.422618261740699));
#1100=DIRECTION('',(0.,-0.422618261740699,-0.90630778703665));
#1101=DIRECTION('',(4.3927049011822E-18,0.422618261740699,0.90630778703665));
#1102=DIRECTION('',(-1.,-5.76286569599307E-17,-1.70469471939887E-16));
#1103=DIRECTION('',(4.3927049011822E-18,0.422618261740699,0.90630778703665));
#1104=DIRECTION('',(-1.,-8.34429463971878E-17,-2.25828394286121E-16));
#1105=DIRECTION('',(-4.3927049011822E-18,-0.422618261740699,-0.90630778703665));
#1106=DIRECTION('',(-1.,1.98142113518406E-17,-4.3927049011822E-18));
#1107=DIRECTION('',(1.98142113518406E-17,0.90630778703665,-0.422618261740699));
#1108=DIRECTION('',(1.98142113518406E-17,0.90630778703665,-0.422618261740699));
#1109=DIRECTION('',(-1.,-8.87970212434337E-17,-2.37310244846822E-16));
#1110=DIRECTION('',(-2.526033656139E-16,0.422618261740699,0.90630778703665));
#1111=DIRECTION('',(1.98142113518406E-17,0.90630778703665,-0.422618261740699));
#1112=DIRECTION('',(1.98142113518406E-17,0.90630778703665,-0.422618261740699));
#1113=DIRECTION('',(-4.3927049011822E-18,-0.422618261740699,-0.90630778703665));
#1114=DIRECTION('',(-1.,1.98142113518406E-17,-4.3927049011822E-18));
#1115=DIRECTION('',(1.98142113518406E-17,0.90630778703665,-0.422618261740699));
#1116=DIRECTION('',(1.98142113518406E-17,0.90630778703665,-0.422618261740699));
#1117=DIRECTION('',(-1.,1.98142113518406E-17,-4.3927049011822E-18));
#1118=DIRECTION('',(4.3927049011822E-18,0.422618261740699,0.90630778703665));
#1119=DIRECTION('',(1.98142113518406E-17,0.90630778703665,-0.422618261740699));
#1120=DIRECTION('',(1.98142113518406E-17,0.90630778703665,-0.422618261740699));
#1121=DIRECTION('',(-1.78852732702001E-16,0.422618261740699,0.90630778703665));
#1122=DIRECTION('',(1.,5.76286569599307E-17,1.70469471939887E-16));
#1123=DIRECTION('',(-1.98142113518406E-17,-0.90630778703665,0.422618261740699));
#1124=DIRECTION('',(-1.98142113518406E-17,-0.90630778703665,0.422618261740699));
#1125=DIRECTION('',(1.,-1.98142113518406E-17,4.3927049011822E-18));
#1126=DIRECTION('',(-4.3927049011822E-18,-0.422618261740699,-0.90630778703665));
#1127=DIRECTION('',(-1.98142113518406E-17,-0.90630778703665,0.422618261740699));
#1128=DIRECTION('',(-2.39934545236396E-16,0.422618261740699,0.90630778703665));
#1129=DIRECTION('',(1.,8.34429463971878E-17,2.25828394286121E-16));
#1130=DIRECTION('',(-1.98142113518406E-17,-0.90630778703665,0.422618261740699));
#1131=DIRECTION('',(1.,-1.98142113518406E-17,4.3927049011822E-18));
#1132=DIRECTION('',(-4.3927049011822E-18,-0.422618261740699,-0.90630778703665));
#1133=DIRECTION('',(1.,-1.98142113518406E-17,4.3927049011822E-18));
#1134=DIRECTION('',(-4.3927049011822E-18,-0.422618261740699,-0.90630778703665));
#1135=DIRECTION('',(-1.98142113518406E-17,-0.90630778703665,0.422618261740699));
#1136=DIRECTION('',(-1.98142113518406E-17,-0.90630778703665,0.422618261740699));
#1137=DIRECTION('',(-1.17770920167607E-16,0.422618261740699,0.90630778703665));
#1138=DIRECTION('',(1.,3.18143675226736E-17,1.15110549593652E-16));
#1139=DIRECTION('',(-1.98142113518406E-17,-0.90630778703665,0.422618261740699));
#1140=DIRECTION('',(1.,-1.98142113518406E-17,4.3927049011822E-18));
#1141=DIRECTION('',(-4.3927049011822E-18,-0.422618261740699,-0.90630778703665));
#1142=DIRECTION('',(-1.98142113518406E-17,-0.90630778703665,0.422618261740699));
#1143=DIRECTION('',(-2.39934545236396E-16,0.422618261740699,0.90630778703665));
#1144=DIRECTION('',(1.,8.34429463971878E-17,2.25828394286121E-16));
#1145=DIRECTION('',(1.,-1.98142113518406E-17,4.3927049011822E-18));
#1146=DIRECTION('',(-4.3927049011822E-18,-0.422618261740699,-0.90630778703665));
#1147=DIRECTION('',(-1.98142113518406E-17,-0.90630778703665,0.422618261740699));
#1148=DIRECTION('',(-1.98142113518406E-17,-0.90630778703665,0.422618261740699));
#1149=DIRECTION('',(-1.17770920167607E-16,0.422618261740699,0.90630778703665));
#1150=DIRECTION('',(1.,3.18143675226736E-17,1.15110549593652E-16));
#1151=DIRECTION('',(-1.98142113518406E-17,-0.90630778703665,0.422618261740699));
#1152=DIRECTION('',(1.,-1.98142113518406E-17,4.3927049011822E-18));
#1153=DIRECTION('',(-4.3927049011822E-18,-0.422618261740699,-0.90630778703665));
#1154=DIRECTION('',(-1.98142113518406E-17,-0.90630778703665,0.422618261740699));
#1155=DIRECTION('',(-2.39934545236396E-16,0.422618261740699,0.90630778703665));
#1156=DIRECTION('',(1.,8.34429463971878E-17,2.25828394286121E-16));
#1157=DIRECTION('',(1.,-1.98142113518406E-17,4.3927049011822E-18));
#1158=DIRECTION('',(-4.3927049011822E-18,-0.422618261740699,-0.90630778703665));
#1159=DIRECTION('',(-1.98142113518406E-17,-0.90630778703665,0.422618261740699));
#1160=DIRECTION('',(-1.98142113518406E-17,-0.90630778703665,0.422618261740699));
#1161=DIRECTION('',(-2.39934545236396E-16,0.422618261740699,0.90630778703665));
#1162=DIRECTION('',(1.,8.34429463971878E-17,2.25828394286121E-16));
#1163=DIRECTION('',(-1.98142113518406E-17,-0.90630778703665,0.422618261740699));
#1164=DIRECTION('',(1.,-1.98142113518406E-17,4.3927049011822E-18));
#1165=DIRECTION('',(-4.3927049011822E-18,-0.422618261740699,-0.90630778703665));
#1166=DIRECTION('',(-1.98142113518406E-17,-0.90630778703665,0.422618261740699));
#1167=DIRECTION('',(-1.78852732702001E-16,0.422618261740699,0.90630778703665));
#1168=DIRECTION('',(1.,5.76286569599307E-17,1.70469471939886E-16));
#1169=DIRECTION('',(1.,-1.98142113518406E-17,4.3927049011822E-18));
#1170=DIRECTION('',(-4.3927049011822E-18,-0.422618261740699,-0.90630778703665));
#1171=DIRECTION('',(-1.98142113518406E-17,-0.90630778703665,0.422618261740699));
#1172=DIRECTION('',(-1.98142113518406E-17,-0.90630778703665,0.422618261740699));
#1173=DIRECTION('',(-1.17770920167607E-16,0.422618261740699,0.90630778703665));
#1174=DIRECTION('',(1.,3.18143675226736E-17,1.15110549593652E-16));
#1175=DIRECTION('',(-1.98142113518406E-17,-0.90630778703665,0.422618261740699));
#1176=DIRECTION('',(1.,-1.98142113518406E-17,4.3927049011822E-18));
#1177=DIRECTION('',(-4.3927049011822E-18,-0.422618261740699,-0.90630778703665));
#1178=DIRECTION('',(-1.98142113518406E-17,-0.90630778703665,0.422618261740699));
#1179=DIRECTION('',(-2.39934545236396E-16,0.422618261740699,0.90630778703665));
#1180=DIRECTION('',(1.,8.34429463971878E-17,2.25828394286121E-16));
#1181=DIRECTION('',(1.,-1.98142113518406E-17,4.3927049011822E-18));
#1182=DIRECTION('',(-4.3927049011822E-18,-0.422618261740699,-0.90630778703665));
#1183=DIRECTION('',(-1.98142113518406E-17,-0.90630778703665,0.422618261740699));
#1184=DIRECTION('',(-1.98142113518406E-17,-0.90630778703665,0.422618261740699));
#1185=DIRECTION('',(-2.39934545236396E-16,0.422618261740699,0.90630778703665));
#1186=DIRECTION('',(1.,8.34429463971878E-17,2.25828394286121E-16));
#1187=DIRECTION('',(-1.98142113518406E-17,-0.90630778703665,0.422618261740699));
#1188=DIRECTION('',(1.,-1.98142113518406E-17,4.3927049011822E-18));
#1189=DIRECTION('',(-4.3927049011822E-18,-0.422618261740699,-0.90630778703665));
#1190=DIRECTION('',(-1.98142113518406E-17,-0.90630778703665,0.422618261740699));
#1191=DIRECTION('',(-1.78852732702001E-16,0.422618261740699,0.90630778703665));
#1192=DIRECTION('',(1.,5.76286569599307E-17,1.70469471939887E-16));
#1193=DIRECTION('',(-1.98142113518406E-17,-0.90630778703665,0.422618261740699));
#1194=DIRECTION('',(0.,-0.422618261740699,-0.90630778703665));
#1195=DIRECTION('',(1.98142113518406E-17,0.90630778703665,-0.422618261740699));
#1196=DIRECTION('',(0.,0.422618261740699,0.90630778703665));
#1197=DIRECTION('',(-1.98142113518406E-17,-0.90630778703665,0.422618261740699));
#1198=DIRECTION('',(0.,-0.422618261740699,-0.90630778703665));
#1199=DIRECTION('',(1.98142113518406E-17,0.90630778703665,-0.422618261740699));
#1200=DIRECTION('',(0.,0.422618261740699,0.90630778703665));
#1201=CARTESIAN_POINT('',(0.,0.,0.));
#1202=CARTESIAN_POINT('',(0.0302,0.0329999956556427,-0.0241));
#1203=CARTESIAN_POINT('',(0.0302,0.00207640527770587,-0.00968009298911983));
#1204=CARTESIAN_POINT('',(0.0302,-0.006,-0.027));
#1205=CARTESIAN_POINT('',(0.0302,-0.00464770779135051,-0.0241));
#1206=CARTESIAN_POINT('',(0.0302,-0.00600000434435726,-0.0241));
#1207=CARTESIAN_POINT('',(0.0302,-0.00600000434435726,-0.0271));
#1208=CARTESIAN_POINT('',(0.0302,0.0329999956556427,-0.0271));
#1209=CARTESIAN_POINT('',(0.0302,0.0669999956556427,-0.0271));
#1210=CARTESIAN_POINT('',(0.0302,0.0669999956556427,-0.0241));
#1211=CARTESIAN_POINT('',(0.0302,0.0669999956556427,-0.0241));
#1212=CARTESIAN_POINT('',(0.0302,0.0329999956556427,-0.0241));
#1213=CARTESIAN_POINT('',(-0.0308,0.0329999956556427,-0.0241));
#1214=CARTESIAN_POINT('',(-0.0308,-0.00600000434435727,-0.0241));
#1215=CARTESIAN_POINT('',(-0.0308,-0.006,-0.027));
#1216=CARTESIAN_POINT('',(-0.0308,-0.00600000434435727,-0.0271));
#1217=CARTESIAN_POINT('',(-0.0308,0.00207640527770587,-0.00968009298911983));
#1218=CARTESIAN_POINT('',(-0.0308,-0.00464770779135051,-0.0241));
#1219=CARTESIAN_POINT('',(-0.0308,0.0329999956556427,-0.0241));
#1220=CARTESIAN_POINT('',(-0.0308,0.0669999956556427,-0.0241));
#1221=CARTESIAN_POINT('',(-0.0308,0.0669999956556427,-0.0271));
#1222=CARTESIAN_POINT('',(-0.0308,0.0669999956556427,-0.0271));
#1223=CARTESIAN_POINT('',(-0.0308,0.0329999956556427,-0.0271));
#1224=CARTESIAN_POINT('',(-0.0003,0.0329999956556427,-0.0241));
#1225=CARTESIAN_POINT('',(0.01365,0.00843060551743179,-0.0241));
#1226=CARTESIAN_POINT('',(0.0119,0.00843060551743179,-0.0241));
#1227=CARTESIAN_POINT('',(-0.0137322895441453,0.00843060551743179,-0.0241));
#1228=CARTESIAN_POINT('',(-0.0154822895441453,0.00843060551743179,-0.0241));
#1229=CARTESIAN_POINT('',(-0.0003,-0.00464770779135051,-0.0241));
#1230=CARTESIAN_POINT('',(0.0252,0.0669999956556427,-0.0241));
#1231=CARTESIAN_POINT('',(0.0252,0.0719999956556428,-0.0241));
#1232=CARTESIAN_POINT('',(-0.0003,0.0719999956556428,-0.0241));
#1233=CARTESIAN_POINT('',(-0.0258,0.0719999956556428,-0.0241));
#1234=CARTESIAN_POINT('',(-0.0258,0.0669999956556427,-0.0241));
#1235=CARTESIAN_POINT('',(-0.000300000000000007,-0.00600000434435727,-0.0241));
#1236=CARTESIAN_POINT('',(-0.000300000000000015,-0.006,-0.027));
#1237=CARTESIAN_POINT('',(-0.000300000000000007,-0.00600000434435727,-0.0271));
#1238=CARTESIAN_POINT('',(-0.0003,0.0719999956556428,-0.0241));
#1239=CARTESIAN_POINT('',(-0.0003,0.0719999956556428,-0.0271));
#1240=CARTESIAN_POINT('',(0.0252,0.0719999956556428,-0.0271));
#1241=CARTESIAN_POINT('',(-0.0258,0.0719999956556428,-0.0271));
#1242=CARTESIAN_POINT('',(-0.0258,0.0719999956556428,-0.0241));
#1243=CARTESIAN_POINT('',(0.0252,0.0719999956556428,-0.0241));
#1244=CARTESIAN_POINT('',(-0.0003,0.0329999956556427,-0.0271));
#1245=CARTESIAN_POINT('',(0.01365,0.00843060551743179,-0.0271));
#1246=CARTESIAN_POINT('',(0.0154,0.00843060551743179,-0.0271));
#1247=CARTESIAN_POINT('',(-0.0137322895441453,0.00843060551743179,-0.0271));
#1248=CARTESIAN_POINT('',(-0.0119822895441453,0.00843060551743179,-0.0271));
#1249=CARTESIAN_POINT('',(-0.0258,0.0669999956556427,-0.0271));
#1250=CARTESIAN_POINT('',(0.0252,0.0669999956556427,-0.0271));
#1251=CARTESIAN_POINT('',(-0.0137322895441453,0.00843060551743179,-0.0325));
#1252=CARTESIAN_POINT('',(0.01365,0.00843060551743179,-0.0325));
#1253=CARTESIAN_POINT('',(-0.0258,0.0669999956556427,-0.0241));
#1254=CARTESIAN_POINT('',(0.0252,0.0669999956556427,-0.0241));
#1255=CARTESIAN_POINT('',(-0.0003,0.00541069306699887,-0.00252968975001045));
#1256=CARTESIAN_POINT('',(-0.000300000000000015,0.00659402419987283,7.97205369216462E-6));
#1257=CARTESIAN_POINT('',(0.0273,0.00659402419987283,7.97205369216895E-6));
#1258=CARTESIAN_POINT('',(0.0131,0.00659402419987283,7.97205369216679E-6));
#1259=CARTESIAN_POINT('',(0.0273,0.00541069306699887,-0.00252968975001045));
#1260=CARTESIAN_POINT('',(0.0273,0.0125952035165908,0.0128775426296126));
#1261=CARTESIAN_POINT('',(-0.000300000000000015,0.0125952035165908,0.0128775426296126));
#1262=CARTESIAN_POINT('',(0.0131,0.0125952035165908,0.0128775426296126));
#1263=CARTESIAN_POINT('',(0.0131,0.00541069306699887,-0.00252968975001045));
#1264=CARTESIAN_POINT('',(-0.0003,-0.00194286468728929,-0.0182994452444482));
#1265=CARTESIAN_POINT('',(0.0071,-0.00194286468728929,-0.0182994452444482));
#1266=CARTESIAN_POINT('',(-0.0071,-0.00194286468728929,-0.0182994452444482));
#1267=CARTESIAN_POINT('',(0.0071,0.00541069306699887,-0.00252968975001045));
#1268=CARTESIAN_POINT('',(0.0071,0.00405831462942863,-0.00542987466852774));
#1269=CARTESIAN_POINT('',(-0.0003,0.00405831462942863,-0.00542987466852774));
#1270=CARTESIAN_POINT('',(-0.0071,0.00405831462942863,-0.00542987466852774));
#1271=CARTESIAN_POINT('',(-0.0071,0.00541069306699887,-0.00252968975001045));
#1272=CARTESIAN_POINT('',(-0.000300000000000015,0.00659402419987283,7.97205369216809E-6));
#1273=CARTESIAN_POINT('',(0.0071,0.00659402419987283,7.97205369216895E-6));
#1274=CARTESIAN_POINT('',(-0.0071,0.00659402419987283,7.97205369216679E-6));
#1275=CARTESIAN_POINT('',(0.0071,0.00541069306699887,-0.00252968975001045));
#1276=CARTESIAN_POINT('',(0.0071,0.0125952035165908,0.0128775426296126));
#1277=CARTESIAN_POINT('',(-0.000300000000000015,0.0125952035165908,0.0128775426296126));
#1278=CARTESIAN_POINT('',(-0.0071,0.0125952035165908,0.0128775426296126));
#1279=CARTESIAN_POINT('',(-0.0071,0.00541069306699887,-0.00252968975001045));
#1280=CARTESIAN_POINT('',(-0.0003,-0.00194286468728929,-0.0182994452444482));
#1281=CARTESIAN_POINT('',(-0.0131,-0.00194286468728929,-0.0182994452444482));
#1282=CARTESIAN_POINT('',(-0.0273,-0.00194286468728929,-0.0182994452444482));
#1283=CARTESIAN_POINT('',(-0.0131,0.00541069306699887,-0.00252968975001045));
#1284=CARTESIAN_POINT('',(-0.0131,0.00405831462942863,-0.00542987466852774));
#1285=CARTESIAN_POINT('',(-0.0003,0.00405831462942863,-0.00542987466852774));
#1286=CARTESIAN_POINT('',(-0.0273,0.00405831462942863,-0.00542987466852774));
#1287=CARTESIAN_POINT('',(-0.0273,0.00541069306699887,-0.00252968975001045));
#1288=CARTESIAN_POINT('',(-0.0003,-0.00194286468728929,-0.0182994452444482));
#1289=CARTESIAN_POINT('',(0.0273,-0.00194286468728929,-0.0182994452444482));
#1290=CARTESIAN_POINT('',(0.0131,-0.00194286468728929,-0.0182994452444482));
#1291=CARTESIAN_POINT('',(0.0273,0.00541069306699887,-0.00252968975001045));
#1292=CARTESIAN_POINT('',(0.0273,0.00405831462942863,-0.00542987466852774));
#1293=CARTESIAN_POINT('',(-0.0003,0.00405831462942863,-0.00542987466852774));
#1294=CARTESIAN_POINT('',(0.0131,0.00405831462942863,-0.00542987466852774));
#1295=CARTESIAN_POINT('',(0.0131,0.00541069306699887,-0.00252968975001045));
#1296=CARTESIAN_POINT('',(-0.000300000000000015,0.00659402419987283,7.97205369217112E-6));
#1297=CARTESIAN_POINT('',(-0.0131,0.00659402419987283,7.97205369216895E-6));
#1298=CARTESIAN_POINT('',(-0.0273,0.00659402419987283,7.97205369216679E-6));
#1299=CARTESIAN_POINT('',(-0.0131,0.00541069306699887,-0.00252968975001045));
#1300=CARTESIAN_POINT('',(-0.0131,0.0125952035165908,0.0128775426296126));
#1301=CARTESIAN_POINT('',(-0.000300000000000015,0.0125952035165908,0.0128775426296126));
#1302=CARTESIAN_POINT('',(-0.0273,0.0125952035165908,0.0128775426296126));
#1303=CARTESIAN_POINT('',(-0.0273,0.00541069306699887,-0.00252968975001045));
#1304=CARTESIAN_POINT('',(-0.000300000000000015,-0.006,-0.027));
#1305=CARTESIAN_POINT('',(0.0317,-0.006,-0.027));
#1306=CARTESIAN_POINT('',(-0.000300000000000015,-0.006,-0.027));
#1307=CARTESIAN_POINT('',(-0.0323,-0.006,-0.027));
#1308=CARTESIAN_POINT('',(-0.0323,-0.0038869086912965,-0.0224684610648167));
#1309=CARTESIAN_POINT('',(-0.0373,-0.0038869086912965,-0.0224684610648167));
#1310=CARTESIAN_POINT('',(-0.0373,0.00541069306699887,-0.00252968975001046));
#1311=CARTESIAN_POINT('',(-0.0373,0.0147082948252942,0.0174090815647959));
#1312=CARTESIAN_POINT('',(-0.0323,0.0147082948252942,0.0174090815647959));
#1313=CARTESIAN_POINT('',(-0.0323,0.0168213861339978,0.0219406204999791));
#1314=CARTESIAN_POINT('',(-0.000300000000000015,0.0168213861339978,0.0219406204999791));
#1315=CARTESIAN_POINT('',(0.0317,0.0168213861339978,0.0219406204999791));
#1316=CARTESIAN_POINT('',(0.0317,0.0147082948252942,0.0174090815647959));
#1317=CARTESIAN_POINT('',(0.0367,0.0147082948252942,0.0174090815647959));
#1318=CARTESIAN_POINT('',(0.0367,0.00541069306699888,-0.00252968975001045));
#1319=CARTESIAN_POINT('',(0.0367,-0.0038869086912965,-0.0224684610648167));
#1320=CARTESIAN_POINT('',(0.0317,-0.0038869086912965,-0.0224684610648167));
#1321=CARTESIAN_POINT('',(-0.0003,0.000879154131815624,-0.000416598441306956));
#1322=CARTESIAN_POINT('',(0.0273,0.00506307492304854,0.00855584865035588));
#1323=CARTESIAN_POINT('',(0.0273,0.00206248526468958,0.00212106336239566));
#1324=CARTESIAN_POINT('',(0.0273,0.0080636645814075,0.0149906339383161));
#1325=CARTESIAN_POINT('',(0.0202,0.00206248526468958,0.00212106336239566));
#1326=CARTESIAN_POINT('',(0.0131,0.00206248526468958,0.00212106336239566));
#1327=CARTESIAN_POINT('',(0.0131,0.00506307492304854,0.00855584865035588));
#1328=CARTESIAN_POINT('',(0.0131,0.0080636645814075,0.0149906339383161));
#1329=CARTESIAN_POINT('',(0.0202,0.0080636645814075,0.0149906339383161));
#1330=CARTESIAN_POINT('',(0.0071,-0.00347381396411358,-0.00975156864778446));
#1331=CARTESIAN_POINT('',(0.0071,-0.00647440362247254,-0.0161863539357447));
#1332=CARTESIAN_POINT('',(0.0071,-0.000473224305754617,-0.00331678335982425));
#1333=CARTESIAN_POINT('',(-2.05998412772246E-17,-0.00647440362247254,-0.0161863539357447));
#1334=CARTESIAN_POINT('',(-0.0071,-0.00647440362247254,-0.0161863539357447));
#1335=CARTESIAN_POINT('',(-0.0071,-0.00347381396411358,-0.00975156864778446));
#1336=CARTESIAN_POINT('',(-0.0071,-0.000473224305754614,-0.00331678335982424));
#1337=CARTESIAN_POINT('',(-2.05998412772246E-17,-0.000473224305754617,-0.00331678335982425));
#1338=CARTESIAN_POINT('',(0.0071,0.00506307492304854,0.00855584865035588));
#1339=CARTESIAN_POINT('',(0.0071,0.00206248526468958,0.00212106336239566));
#1340=CARTESIAN_POINT('',(0.0071,0.0080636645814075,0.0149906339383161));
#1341=CARTESIAN_POINT('',(-2.05998412772246E-17,0.00206248526468958,0.00212106336239566));
#1342=CARTESIAN_POINT('',(-0.0071,0.00206248526468958,0.00212106336239566));
#1343=CARTESIAN_POINT('',(-0.0071,0.00506307492304854,0.00855584865035588));
#1344=CARTESIAN_POINT('',(-0.0071,0.0080636645814075,0.0149906339383161));
#1345=CARTESIAN_POINT('',(-2.05998412772246E-17,0.0080636645814075,0.0149906339383161));
#1346=CARTESIAN_POINT('',(-0.0131,-0.00347381396411358,-0.00975156864778446));
#1347=CARTESIAN_POINT('',(-0.0131,-0.00647440362247254,-0.0161863539357447));
#1348=CARTESIAN_POINT('',(-0.0131,-0.000473224305754617,-0.00331678335982425));
#1349=CARTESIAN_POINT('',(-0.0202,-0.00647440362247254,-0.0161863539357447));
#1350=CARTESIAN_POINT('',(-0.0273,-0.00647440362247254,-0.0161863539357447));
#1351=CARTESIAN_POINT('',(-0.0273,-0.00347381396411358,-0.00975156864778446));
#1352=CARTESIAN_POINT('',(-0.0273,-0.000473224305754614,-0.00331678335982424));
#1353=CARTESIAN_POINT('',(-0.0202,-0.000473224305754617,-0.00331678335982425));
#1354=CARTESIAN_POINT('',(0.0273,-0.00347381396411358,-0.00975156864778446));
#1355=CARTESIAN_POINT('',(0.0273,-0.00647440362247254,-0.0161863539357447));
#1356=CARTESIAN_POINT('',(0.0273,-0.000473224305754617,-0.00331678335982425));
#1357=CARTESIAN_POINT('',(0.0202,-0.00647440362247254,-0.0161863539357447));
#1358=CARTESIAN_POINT('',(0.0131,-0.00647440362247254,-0.0161863539357447));
#1359=CARTESIAN_POINT('',(0.0131,-0.00347381396411358,-0.00975156864778446));
#1360=CARTESIAN_POINT('',(0.0131,-0.000473224305754614,-0.00331678335982424));
#1361=CARTESIAN_POINT('',(0.0202,-0.000473224305754617,-0.00331678335982425));
#1362=CARTESIAN_POINT('',(-0.000300000000000015,0.0122898471988145,0.0240537118086826));
#1363=CARTESIAN_POINT('',(0.0317,0.0122898471988145,0.0240537118086826));
#1364=CARTESIAN_POINT('',(-0.0323,0.0122898471988145,0.0240537118086826));
#1365=CARTESIAN_POINT('',(-0.0323,0.010176755890111,0.0195221728734994));
#1366=CARTESIAN_POINT('',(-0.0373,0.010176755890111,0.0195221728734994));
#1367=CARTESIAN_POINT('',(-0.0373,0.000879154131815621,-0.000416598441306962));
#1368=CARTESIAN_POINT('',(-0.0373,-0.00841844762647975,-0.0203553697561133));
#1369=CARTESIAN_POINT('',(-0.0323,-0.00841844762647975,-0.0203553697561133));
#1370=CARTESIAN_POINT('',(-0.0323,-0.0105315389351832,-0.0248869086912965));
#1371=CARTESIAN_POINT('',(-0.000300000000000015,-0.0105315389351832,-0.0248869086912965));
#1372=CARTESIAN_POINT('',(0.0317,-0.0105315389351832,-0.0248869086912965));
#1373=CARTESIAN_POINT('',(0.0317,-0.00841844762647975,-0.0203553697561133));
#1374=CARTESIAN_POINT('',(0.0367,-0.00841844762647975,-0.0203553697561133));
#1375=CARTESIAN_POINT('',(0.0367,0.000879154131815628,-0.000416598441306949));
#1376=CARTESIAN_POINT('',(0.0367,0.010176755890111,0.0195221728734994));
#1377=CARTESIAN_POINT('',(0.0317,0.010176755890111,0.0195221728734994));
#1378=CARTESIAN_POINT('',(-0.0131,0.00506307492304854,0.00855584865035588));
#1379=CARTESIAN_POINT('',(-0.0131,0.00206248526468958,0.00212106336239566));
#1380=CARTESIAN_POINT('',(-0.0131,0.0080636645814075,0.0149906339383161));
#1381=CARTESIAN_POINT('',(-0.0202,0.00206248526468958,0.00212106336239566));
#1382=CARTESIAN_POINT('',(-0.0273,0.00206248526468958,0.00212106336239566));
#1383=CARTESIAN_POINT('',(-0.0273,0.00506307492304854,0.00855584865035588));
#1384=CARTESIAN_POINT('',(-0.0273,0.0080636645814075,0.0149906339383161));
#1385=CARTESIAN_POINT('',(-0.0202,0.0080636645814075,0.0149906339383161));
#1386=CARTESIAN_POINT('',(-0.000300000000000015,-0.0105315389351832,-0.0248869086912965));
#1387=CARTESIAN_POINT('',(-0.0323,-0.0105315389351832,-0.0248869086912965));
#1388=CARTESIAN_POINT('',(0.0317,-0.0105315389351833,-0.0248869086912965));
#1389=CARTESIAN_POINT('',(0.0367,0.000879154131815628,-0.000416598441306949));
#1390=CARTESIAN_POINT('',(0.0367,-0.0038869086912965,-0.0224684610648167));
#1391=CARTESIAN_POINT('',(0.0367,0.010176755890111,0.0195221728734994));
#1392=CARTESIAN_POINT('',(-0.000300000000000015,0.0122898471988145,0.0240537118086826));
#1393=CARTESIAN_POINT('',(-0.0323,0.0122898471988145,0.0240537118086826));
#1394=CARTESIAN_POINT('',(0.0317,0.0122898471988145,0.0240537118086826));
#1395=CARTESIAN_POINT('',(-0.0373,0.000879154131815621,-0.000416598441306962));
#1396=CARTESIAN_POINT('',(-0.0373,0.0147082948252942,0.0174090815647959));
#1397=CARTESIAN_POINT('',(-0.0373,-0.00841844762647975,-0.0203553697561133));
#1398=CARTESIAN_POINT('',(-0.0202,0.0852200399426233,-0.0366559412173678));
#1399=CARTESIAN_POINT('',(-0.0273,0.0852200399426233,-0.0366559412173678));
#1400=CARTESIAN_POINT('',(-0.0131,0.0852200399426233,-0.0366559412173678));
#1401=CARTESIAN_POINT('',(-0.0131,0.0882206296009823,-0.0302211559294076));
#1402=CARTESIAN_POINT('',(-0.0131,0.0912212192593412,-0.0237863706414474));
#1403=CARTESIAN_POINT('',(-0.0202,0.0912212192593412,-0.0237863706414474));
#1404=CARTESIAN_POINT('',(-0.0273,0.0912212192593412,-0.0237863706414474));
#1405=CARTESIAN_POINT('',(-0.0273,0.0882206296009823,-0.0302211559294076));
#1406=CARTESIAN_POINT('',(0.0273,0.0796837407138201,-0.0485285732275479));
#1407=CARTESIAN_POINT('',(0.0273,0.0766831510554612,-0.0549633585155081));
#1408=CARTESIAN_POINT('',(0.0273,0.0826843303721791,-0.0420937879395877));
#1409=CARTESIAN_POINT('',(0.0202,0.0826843303721791,-0.0420937879395877));
#1410=CARTESIAN_POINT('',(0.0131,0.0826843303721791,-0.0420937879395877));
#1411=CARTESIAN_POINT('',(0.0131,0.0796837407138201,-0.0485285732275479));
#1412=CARTESIAN_POINT('',(0.0131,0.0766831510554612,-0.0549633585155081));
#1413=CARTESIAN_POINT('',(0.0202,0.0766831510554612,-0.0549633585155081));
#1414=CARTESIAN_POINT('',(-0.0131,0.0796837407138201,-0.0485285732275479));
#1415=CARTESIAN_POINT('',(-0.0131,0.0766831510554612,-0.0549633585155081));
#1416=CARTESIAN_POINT('',(-0.0131,0.0826843303721791,-0.0420937879395877));
#1417=CARTESIAN_POINT('',(-0.0202,0.0826843303721791,-0.0420937879395877));
#1418=CARTESIAN_POINT('',(-0.0273,0.0826843303721791,-0.0420937879395877));
#1419=CARTESIAN_POINT('',(-0.0273,0.0796837407138201,-0.0485285732275479));
#1420=CARTESIAN_POINT('',(-0.0273,0.0766831510554612,-0.0549633585155081));
#1421=CARTESIAN_POINT('',(-0.0202,0.0766831510554612,-0.0549633585155081));
#1422=CARTESIAN_POINT('',(0.0071,0.0882206296009823,-0.0302211559294076));
#1423=CARTESIAN_POINT('',(0.0071,0.0852200399426233,-0.0366559412173678));
#1424=CARTESIAN_POINT('',(0.0071,0.0912212192593412,-0.0237863706414474));
#1425=CARTESIAN_POINT('',(-2.05998412772246E-17,0.0912212192593412,-0.0237863706414474));
#1426=CARTESIAN_POINT('',(-0.0071,0.0912212192593412,-0.0237863706414474));
#1427=CARTESIAN_POINT('',(-0.0071,0.0882206296009823,-0.0302211559294076));
#1428=CARTESIAN_POINT('',(-0.0071,0.0852200399426233,-0.0366559412173678));
#1429=CARTESIAN_POINT('',(-2.05998412772246E-17,0.0852200399426233,-0.0366559412173678));
#1430=CARTESIAN_POINT('',(0.0071,0.0796837407138201,-0.0485285732275479));
#1431=CARTESIAN_POINT('',(0.0071,0.0766831510554612,-0.0549633585155081));
#1432=CARTESIAN_POINT('',(0.0071,0.0826843303721791,-0.0420937879395877));
#1433=CARTESIAN_POINT('',(-2.05998412772246E-17,0.0826843303721791,-0.0420937879395877));
#1434=CARTESIAN_POINT('',(-0.0071,0.0826843303721791,-0.0420937879395877));
#1435=CARTESIAN_POINT('',(-0.0071,0.0796837407138201,-0.0485285732275479));
#1436=CARTESIAN_POINT('',(-0.0071,0.0766831510554612,-0.0549633585155081));
#1437=CARTESIAN_POINT('',(-2.05998412772246E-17,0.0766831510554612,-0.0549633585155081));
#1438=CARTESIAN_POINT('',(0.0273,0.0882206296009823,-0.0302211559294076));
#1439=CARTESIAN_POINT('',(0.0273,0.0852200399426233,-0.0366559412173678));
#1440=CARTESIAN_POINT('',(0.0273,0.0912212192593412,-0.0237863706414474));
#1441=CARTESIAN_POINT('',(0.0202,0.0912212192593412,-0.0237863706414474));
#1442=CARTESIAN_POINT('',(0.0131,0.0912212192593412,-0.0237863706414474));
#1443=CARTESIAN_POINT('',(0.0131,0.0882206296009823,-0.0302211559294076));
#1444=CARTESIAN_POINT('',(0.0131,0.0852200399426233,-0.0366559412173678));
#1445=CARTESIAN_POINT('',(0.0202,0.0852200399426233,-0.0366559412173678));
#1446=CARTESIAN_POINT('',(-0.0323,0.010176755890111,0.0195221728734994));
#1447=CARTESIAN_POINT('',(-0.0323,-0.00841844762647976,-0.0203553697561133));
#1448=CARTESIAN_POINT('',(0.0317,-0.00841844762647975,-0.0203553697561133));
#1449=CARTESIAN_POINT('',(0.0317,0.010176755890111,0.0195221728734994));
#1450=MECHANICAL_DESIGN_GEOMETRIC_PRESENTATION_REPRESENTATION('',(#901),
#1451);
#1451=(
GEOMETRIC_REPRESENTATION_CONTEXT(3)
GLOBAL_UNCERTAINTY_ASSIGNED_CONTEXT((#1452))
GLOBAL_UNIT_ASSIGNED_CONTEXT((#1455,#1454,#1453))
REPRESENTATION_CONTEXT('Bottomplate','TOP_LEVEL_ASSEMBLY_PART')
);
#1452=UNCERTAINTY_MEASURE_WITH_UNIT(LENGTH_MEASURE(1.E-8),#1455,
'DISTANCE_ACCURACY_VALUE','Maximum Tolerance applied to model');
#1453=(
NAMED_UNIT(*)
SI_UNIT($,.STERADIAN.)
SOLID_ANGLE_UNIT()
);
#1454=(
NAMED_UNIT(*)
PLANE_ANGLE_UNIT()
SI_UNIT($,.RADIAN.)
);
#1455=(
LENGTH_UNIT()
NAMED_UNIT(*)
SI_UNIT($,.METRE.)
);
#1456=PRODUCT_DEFINITION_SHAPE('','',#1457);
#1457=PRODUCT_DEFINITION('','',#1459,#1458);
#1458=PRODUCT_DEFINITION_CONTEXT('',#1465,'design');
#1459=PRODUCT_DEFINITION_FORMATION_WITH_SPECIFIED_SOURCE('','',#1461,
 .NOT_KNOWN.);
#1460=PRODUCT_RELATED_PRODUCT_CATEGORY('','',(#1461));
#1461=PRODUCT('Bottomplate','Bottomplate','Bottomplate',(#1463));
#1462=PRODUCT_CATEGORY('','');
#1463=PRODUCT_CONTEXT('',#1465,'mechanical');
#1464=APPLICATION_PROTOCOL_DEFINITION('international standard',
'ap242_managed_model_based_3d_engineering',2020,#1465);
#1465=APPLICATION_CONTEXT('managed model based 3d engineering');
ENDSEC;
END-ISO-10303-21;
